<svg width="1281" height="910" viewBox="0 0 1281 910" fill="none" xmlns="http://www.w3.org/2000/svg">
<g opacity="0.05">
<path d="M128.556 1.01685V1509.02" stroke="white"/>
<path d="M0.556152 1.01685V1509.02" stroke="white"/>
<path d="M256.556 1.01685V1509.02" stroke="white"/>
<path d="M384.556 1.01685V1509.02" stroke="white"/>
<path d="M512.556 1.01685V1509.02" stroke="white"/>
<path d="M640.556 1.01685V1509.02" stroke="white"/>
<path d="M768.556 1.01685V1509.02" stroke="white"/>
<path d="M896.556 1.01685V1509.02" stroke="white"/>
<path d="M1024.56 1.01685V1509.02" stroke="white"/>
<path d="M1152.56 1.01685V1509.02" stroke="white"/>
<path d="M1280.56 1.01685V1509.02" stroke="white"/>
<path d="M0.556152 216.445L1280.56 216.445" stroke="white"/>
<path d="M0.556152 1.01685L1280.56 1.01701" stroke="white"/>
<path d="M0.556152 431.874L1280.56 431.874" stroke="white"/>
<path d="M0.556152 647.302L1280.56 647.303" stroke="white"/>
<path d="M0.556152 862.731L1280.56 862.731" stroke="white"/>
</g>
<rect width="127.983" height="1508" transform="matrix(-1 0 0 1 1281 0.916992)" fill="url(#paint0_linear_1801_780)"/>
<rect x="0.983398" y="0.916992" width="127.983" height="1508" fill="url(#paint1_linear_1801_780)"/>
<!-- <rect opacity="0.1" width="134.339" height="216" transform="matrix(-1 0 0 1 257.305 430.917)" fill="url(#paint2_linear_1801_780)"/> -->
<!-- <rect opacity="0.05" width="127.983" height="216" transform="matrix(-1 0 0 1 774.213 0.916992)" fill="url(#paint3_linear_1801_780)"/> -->
<!-- <path d="M1143.89 628.917V441.917" stroke="url(#paint4_linear_1801_780)"/> -->
<!-- <g filter="url(#filter0_d_1801_780)">
<ellipse cx="1143.89" cy="441.917" rx="2" ry="1.33316" transform="rotate(-90 1143.89 441.917)" fill="#8A0000"/>
</g> -->
<!-- <rect opacity="0.1" width="127.731" height="216" transform="matrix(-1 0 0 1 385.022 215.917)" fill="url(#paint5_linear_1801_780)"/>
<g filter="url(#filter1_d_1801_780)">
<circle cx="384.735" cy="432.417" r="2" transform="rotate(90 384.735 432.417)" fill="#EE0000"/>
</g> -->
<!-- <path d="M256.624 403.917V216.917" stroke="url(#paint6_linear_1801_780)"/>
<g filter="url(#filter2_d_1801_780)">
<ellipse cx="256.624" cy="216.917" rx="2" ry="1.33316" transform="rotate(-90 256.624 216.917)" fill="#8A0000"/>
</g> -->
<defs>
<filter id="filter0_d_1801_780" x="1136.55" y="433.917" width="14.6665" height="16" filterUnits="userSpaceOnUse" color-interpolation-filters="sRGB">
<feFlood flood-opacity="0" result="BackgroundImageFix"/>
<feColorMatrix in="SourceAlpha" type="matrix" values="0 0 0 0 0 0 0 0 0 0 0 0 0 0 0 0 0 0 127 0" result="hardAlpha"/>
<feOffset/>
<feGaussianBlur stdDeviation="3"/>
<feComposite in2="hardAlpha" operator="out"/>
<feColorMatrix type="matrix" values="0 0 0 0 1 0 0 0 0 0.268571 0 0 0 0 0.268571 0 0 0 1 0"/>
<feBlend mode="normal" in2="BackgroundImageFix" result="effect1_dropShadow_1801_780"/>
<feBlend mode="normal" in="SourceGraphic" in2="effect1_dropShadow_1801_780" result="shape"/>
</filter>
<filter id="filter1_d_1801_780" x="376.735" y="424.417" width="16" height="16" filterUnits="userSpaceOnUse" color-interpolation-filters="sRGB">
<feFlood flood-opacity="0" result="BackgroundImageFix"/>
<feColorMatrix in="SourceAlpha" type="matrix" values="0 0 0 0 0 0 0 0 0 0 0 0 0 0 0 0 0 0 127 0" result="hardAlpha"/>
<feOffset/>
<feGaussianBlur stdDeviation="3"/>
<feComposite in2="hardAlpha" operator="out"/>
<feColorMatrix type="matrix" values="0 0 0 0 1 0 0 0 0 0.268571 0 0 0 0 0.268571 0 0 0 1 0"/>
<feBlend mode="normal" in2="BackgroundImageFix" result="effect1_dropShadow_1801_780"/>
<feBlend mode="normal" in="SourceGraphic" in2="effect1_dropShadow_1801_780" result="shape"/>
</filter>
<filter id="filter2_d_1801_780" x="249.291" y="208.917" width="14.6665" height="16" filterUnits="userSpaceOnUse" color-interpolation-filters="sRGB">
<feFlood flood-opacity="0" result="BackgroundImageFix"/>
<feColorMatrix in="SourceAlpha" type="matrix" values="0 0 0 0 0 0 0 0 0 0 0 0 0 0 0 0 0 0 127 0" result="hardAlpha"/>
<feOffset/>
<feGaussianBlur stdDeviation="3"/>
<feComposite in2="hardAlpha" operator="out"/>
<feColorMatrix type="matrix" values="0 0 0 0 1 0 0 0 0 0.268571 0 0 0 0 0.268571 0 0 0 1 0"/>
<feBlend mode="normal" in2="BackgroundImageFix" result="effect1_dropShadow_1801_780"/>
<feBlend mode="normal" in="SourceGraphic" in2="effect1_dropShadow_1801_780" result="shape"/>
</filter>
<linearGradient id="paint0_linear_1801_780" x1="0" y1="754" x2="127.983" y2="754" gradientUnits="userSpaceOnUse">
<stop/>
<stop offset="1" stop-opacity="0"/>
</linearGradient>
<linearGradient id="paint1_linear_1801_780" x1="0.983398" y1="754.917" x2="128.966" y2="754.917" gradientUnits="userSpaceOnUse">
<stop/>
<stop offset="1" stop-opacity="0"/>
</linearGradient>
<linearGradient id="paint2_linear_1801_780" x1="67.1693" y1="0" x2="67.1693" y2="216" gradientUnits="userSpaceOnUse">
<stop stop-color="#EE0000" stop-opacity="0"/>
<stop offset="1" stop-color="#EE0000" stop-opacity="0.5"/>
</linearGradient>
<linearGradient id="paint3_linear_1801_780" x1="63.9915" y1="0" x2="63.9915" y2="216" gradientUnits="userSpaceOnUse">
<stop stop-color="#EE0000" stop-opacity="0"/>
<stop offset="1" stop-color="#EE0000" stop-opacity="0.4"/>
</linearGradient>
<linearGradient id="paint4_linear_1801_780" x1="1143.89" y1="441.917" x2="1143.89" y2="634.417" gradientUnits="userSpaceOnUse">
<stop stop-color="#8A0000"/>
<stop offset="1" stop-color="#EE0000" stop-opacity="0"/>
</linearGradient>
<linearGradient id="paint5_linear_1801_780" x1="63.8657" y1="0" x2="63.8657" y2="216" gradientUnits="userSpaceOnUse">
<stop stop-color="#EE0000" stop-opacity="0"/>
<stop offset="1" stop-color="#EE0000" stop-opacity="0.5"/>
</linearGradient>
<linearGradient id="paint6_linear_1801_780" x1="256.624" y1="216.917" x2="256.624" y2="409.417" gradientUnits="userSpaceOnUse">
<stop stop-color="#8A0000"/>
<stop offset="1" stop-color="#EE0000" stop-opacity="0"/>
</linearGradient>
</defs>
</svg>
