<svg width="769" height="790" viewBox="0 0 769 790" fill="none" xmlns="http://www.w3.org/2000/svg">
<g opacity="0.05">
<path d="M77.3413 1.01685V1509.02" stroke="white"/>
<path d="M0.556641 1.01685V1509.02" stroke="white"/>
<path d="M154.126 1.01685V1509.02" stroke="white"/>
<path d="M230.911 1.01685V1509.02" stroke="white"/>
<path d="M307.695 1.01685V1509.02" stroke="white"/>
<path d="M384.48 1.01685V1509.02" stroke="white"/>
<path d="M461.264 1.01685V1509.02" stroke="white"/>
<path d="M538.049 1.01685V1509.02" stroke="white"/>
<path d="M614.833 1.01685V1509.02" stroke="white"/>
<path d="M691.618 1.01685V1509.02" stroke="white"/>
<path d="M768.403 1.01685V1509.02" stroke="white"/>
<path d="M0.556641 216.445L768.403 216.446" stroke="white"/>
<path d="M0.556641 1.01685L768.403 1.01695" stroke="white"/>
<path d="M0.556641 431.874L768.403 431.874" stroke="white"/>
<path d="M0.556641 647.302L768.403 647.303" stroke="white"/>
</g>
<rect width="76.7744" height="1508" transform="matrix(-1 0 0 1 549.03 0.916992)" fill="url(#paint0_linear_1817_975)"/>
<rect x="0.812988" y="0.916992" width="76.7744" height="1508" fill="url(#paint1_linear_1817_975)"/>
<!-- <rect opacity="0.1" width="80.587" height="216" transform="matrix(-1 0 0 1 154.575 430.917)" fill="url(#paint2_linear_1817_975)"/> -->
<!-- <rect opacity="0.05" width="76.7744" height="216" transform="matrix(-1 0 0 1 464.657 0.916992)" fill="url(#paint3_linear_1817_975)"/> -->
<!-- <path d="M614.418 628.917V441.917" stroke="url(#paint4_linear_1817_975)"/>
<g filter="url(#filter0_d_1817_975)">
<ellipse cx="614.418" cy="441.917" rx="2" ry="0.799733" transform="rotate(-90 614.418 441.917)" fill="#8A0000"/>
</g>
<rect opacity="0.1" width="77.2021" height="216" transform="matrix(-1 0 0 1 154.496 215.917)" fill="url(#paint5_linear_1817_975)"/>
<g filter="url(#filter1_d_1817_975)">
<circle cx="153.557" cy="432.417" r="2" transform="rotate(90 153.557 432.417)" fill="#EE0000"/>
</g>
<path d="M77.4453 403.917L77.4453 216.917" stroke="url(#paint6_linear_1817_975)"/>
<g filter="url(#filter2_d_1817_975)">
<ellipse cx="77.4455" cy="216.917" rx="2" ry="1.33316" transform="rotate(-90 77.4455 216.917)" fill="#8A0000"/>
</g> -->
<defs>
<filter id="filter0_d_1817_975" x="607.618" y="433.917" width="13.5996" height="16" filterUnits="userSpaceOnUse" color-interpolation-filters="sRGB">
<feFlood flood-opacity="0" result="BackgroundImageFix"/>
<feColorMatrix in="SourceAlpha" type="matrix" values="0 0 0 0 0 0 0 0 0 0 0 0 0 0 0 0 0 0 127 0" result="hardAlpha"/>
<feOffset/>
<feGaussianBlur stdDeviation="3"/>
<feComposite in2="hardAlpha" operator="out"/>
<feColorMatrix type="matrix" values="0 0 0 0 1 0 0 0 0 0.268571 0 0 0 0 0.268571 0 0 0 1 0"/>
<feBlend mode="normal" in2="BackgroundImageFix" result="effect1_dropShadow_1817_975"/>
<feBlend mode="normal" in="SourceGraphic" in2="effect1_dropShadow_1817_975" result="shape"/>
</filter>
<filter id="filter1_d_1817_975" x="145.557" y="424.417" width="16" height="16" filterUnits="userSpaceOnUse" color-interpolation-filters="sRGB">
<feFlood flood-opacity="0" result="BackgroundImageFix"/>
<feColorMatrix in="SourceAlpha" type="matrix" values="0 0 0 0 0 0 0 0 0 0 0 0 0 0 0 0 0 0 127 0" result="hardAlpha"/>
<feOffset/>
<feGaussianBlur stdDeviation="3"/>
<feComposite in2="hardAlpha" operator="out"/>
<feColorMatrix type="matrix" values="0 0 0 0 1 0 0 0 0 0.268571 0 0 0 0 0.268571 0 0 0 1 0"/>
<feBlend mode="normal" in2="BackgroundImageFix" result="effect1_dropShadow_1817_975"/>
<feBlend mode="normal" in="SourceGraphic" in2="effect1_dropShadow_1817_975" result="shape"/>
</filter>
<filter id="filter2_d_1817_975" x="70.1123" y="208.917" width="14.6665" height="16" filterUnits="userSpaceOnUse" color-interpolation-filters="sRGB">
<feFlood flood-opacity="0" result="BackgroundImageFix"/>
<feColorMatrix in="SourceAlpha" type="matrix" values="0 0 0 0 0 0 0 0 0 0 0 0 0 0 0 0 0 0 127 0" result="hardAlpha"/>
<feOffset/>
<feGaussianBlur stdDeviation="3"/>
<feComposite in2="hardAlpha" operator="out"/>
<feColorMatrix type="matrix" values="0 0 0 0 1 0 0 0 0 0.268571 0 0 0 0 0.268571 0 0 0 1 0"/>
<feBlend mode="normal" in2="BackgroundImageFix" result="effect1_dropShadow_1817_975"/>
<feBlend mode="normal" in="SourceGraphic" in2="effect1_dropShadow_1817_975" result="shape"/>
</filter>
<linearGradient id="paint0_linear_1817_975" x1="0" y1="754" x2="76.7744" y2="754" gradientUnits="userSpaceOnUse">
<stop/>
<stop offset="1" stop-opacity="0"/>
</linearGradient>
<linearGradient id="paint1_linear_1817_975" x1="0.812988" y1="754.917" x2="77.5874" y2="754.917" gradientUnits="userSpaceOnUse">
<stop/>
<stop offset="1" stop-opacity="0"/>
</linearGradient>
<linearGradient id="paint2_linear_1817_975" x1="40.2935" y1="0" x2="40.2935" y2="216" gradientUnits="userSpaceOnUse">
<stop stop-color="#EE0000" stop-opacity="0"/>
<stop offset="1" stop-color="#EE0000" stop-opacity="0.5"/>
</linearGradient>
<linearGradient id="paint3_linear_1817_975" x1="38.3872" y1="0" x2="38.3872" y2="216" gradientUnits="userSpaceOnUse">
<stop stop-color="#EE0000" stop-opacity="0"/>
<stop offset="1" stop-color="#EE0000" stop-opacity="0.4"/>
</linearGradient>
<linearGradient id="paint4_linear_1817_975" x1="614.418" y1="441.917" x2="614.418" y2="634.417" gradientUnits="userSpaceOnUse">
<stop stop-color="#8A0000"/>
<stop offset="1" stop-color="#EE0000" stop-opacity="0"/>
</linearGradient>
<linearGradient id="paint5_linear_1817_975" x1="38.6011" y1="0" x2="38.6011" y2="216" gradientUnits="userSpaceOnUse">
<stop stop-color="#EE0000" stop-opacity="0"/>
<stop offset="1" stop-color="#EE0000" stop-opacity="0.5"/>
</linearGradient>
<linearGradient id="paint6_linear_1817_975" x1="77.4454" y1="216.917" x2="77.4453" y2="409.417" gradientUnits="userSpaceOnUse">
<stop stop-color="#8A0000"/>
<stop offset="1" stop-color="#EE0000" stop-opacity="0"/>
</linearGradient>
</defs>
</svg>
