<svg width="1921" height="1510" viewBox="0 0 1921 1510" fill="none" xmlns="http://www.w3.org/2000/svg">
<g opacity="0.05">
<path d="M192.3 1.01685V1509.02" stroke="white"/>
<path d="M0.299805 1.01685V1509.02" stroke="white"/>
<path d="M384.3 1.01685V1509.02" stroke="white"/>
<path d="M576.3 1.01685V1509.02" stroke="white"/>
<path d="M768.3 1.01685V1509.02" stroke="white"/>
<path d="M960.3 1.01685V1509.02" stroke="white"/>
<path d="M1152.3 1.01685V1509.02" stroke="white"/>
<path d="M1344.3 1.01685V1509.02" stroke="white"/>
<path d="M1536.3 1.01685V1509.02" stroke="white"/>
<path d="M1728.3 1.01685V1509.02" stroke="white"/>
<path d="M1920.3 1.01685V1509.02" stroke="white"/>
<path d="M0.299805 216.445L1920.3 216.446" stroke="white"/>
<path d="M0.299805 1.01685L1920.3 1.01701" stroke="white"/>
<path d="M0.299805 431.874L1920.3 431.874" stroke="white"/>
<path d="M0.299805 647.303L1920.3 647.303" stroke="white"/>
<path d="M0.299805 862.731L1920.3 862.731" stroke="white"/>
<path d="M0.299805 1078.16L1920.3 1078.16" stroke="white"/>
<path d="M0.299805 1293.59L1920.3 1293.59" stroke="white"/>
<path d="M0.299805 1509.02L1920.3 1509.02" stroke="white"/>
</g>
<rect x="0.556152" y="0.916992" width="192" height="1508" fill="url(#paint0_linear_177_2339)"/>
<rect width="192" height="1508" transform="matrix(-1 0 0 1 1920.56 0.916992)" fill="url(#paint1_linear_177_2339)"/>
<rect x="0.556152" y="0.916992" width="1920" height="214" fill="url(#paint2_linear_177_2339)"/>
<!-- <rect opacity="0.1" x="1344.56" y="215.917" width="192" height="216" fill="url(#paint3_linear_177_2339)"/> -->
<!-- <rect opacity="0.1" x="1538.56" y="646.917" width="192" height="216" fill="url(#paint4_linear_177_2339)"/> -->
<rect opacity="0.05" x="385.556" y="0.916992" width="192" height="216" fill="url(#paint5_linear_177_2339)"/>
<!-- <g filter="url(#filter0_d_177_2339)">
<circle cx="2" cy="2" r="2" transform="matrix(0 1 1 0 1343.06 430.417)" fill="#EE0000"/>
</g> -->
<!-- <g filter="url(#filter1_d_177_2339)">
<circle cx="2" cy="2" r="2" transform="matrix(0 1 1 0 575.056 215.417)" fill="#EE0000"/>
</g> -->
<!-- <path d="M385.056 618.917L385.056 431.917" stroke="url(#paint6_linear_177_2339)"/> -->
<!-- <g filter="url(#filter2_d_177_2339)">
<circle cx="2" cy="2" r="2" transform="matrix(0 -1 -1 0 387.056 433.917)" fill="#8A0000"/>
</g> -->
<!-- <path d="M1537.56 403.917V216.917" stroke="url(#paint7_linear_177_2339)"/> -->
<!-- <g filter="url(#filter3_d_177_2339)">
<circle cx="2" cy="2" r="2" transform="matrix(0 -1 -1 0 1539.56 218.917)" fill="#8A0000"/>
</g> -->
<defs>
<filter id="filter0_d_177_2339" x="1337.06" y="424.417" width="16" height="16" filterUnits="userSpaceOnUse" color-interpolation-filters="sRGB">
<feFlood flood-opacity="0" result="BackgroundImageFix"/>
<feColorMatrix in="SourceAlpha" type="matrix" values="0 0 0 0 0 0 0 0 0 0 0 0 0 0 0 0 0 0 127 0" result="hardAlpha"/>
<feOffset/>
<feGaussianBlur stdDeviation="3"/>
<feComposite in2="hardAlpha" operator="out"/>
<feColorMatrix type="matrix" values="0 0 0 0 1 0 0 0 0 0.268571 0 0 0 0 0.268571 0 0 0 1 0"/>
<feBlend mode="normal" in2="BackgroundImageFix" result="effect1_dropShadow_177_2339"/>
<feBlend mode="normal" in="SourceGraphic" in2="effect1_dropShadow_177_2339" result="shape"/>
</filter>
<filter id="filter1_d_177_2339" x="569.056" y="209.417" width="16" height="16" filterUnits="userSpaceOnUse" color-interpolation-filters="sRGB">
<feFlood flood-opacity="0" result="BackgroundImageFix"/>
<feColorMatrix in="SourceAlpha" type="matrix" values="0 0 0 0 0 0 0 0 0 0 0 0 0 0 0 0 0 0 127 0" result="hardAlpha"/>
<feOffset/>
<feGaussianBlur stdDeviation="3"/>
<feComposite in2="hardAlpha" operator="out"/>
<feColorMatrix type="matrix" values="0 0 0 0 1 0 0 0 0 0.268571 0 0 0 0 0.268571 0 0 0 1 0"/>
<feBlend mode="normal" in2="BackgroundImageFix" result="effect1_dropShadow_177_2339"/>
<feBlend mode="normal" in="SourceGraphic" in2="effect1_dropShadow_177_2339" result="shape"/>
</filter>
<filter id="filter2_d_177_2339" x="377.056" y="423.917" width="16" height="16" filterUnits="userSpaceOnUse" color-interpolation-filters="sRGB">
<feFlood flood-opacity="0" result="BackgroundImageFix"/>
<feColorMatrix in="SourceAlpha" type="matrix" values="0 0 0 0 0 0 0 0 0 0 0 0 0 0 0 0 0 0 127 0" result="hardAlpha"/>
<feOffset/>
<feGaussianBlur stdDeviation="3"/>
<feComposite in2="hardAlpha" operator="out"/>
<feColorMatrix type="matrix" values="0 0 0 0 1 0 0 0 0 0.268571 0 0 0 0 0.268571 0 0 0 1 0"/>
<feBlend mode="normal" in2="BackgroundImageFix" result="effect1_dropShadow_177_2339"/>
<feBlend mode="normal" in="SourceGraphic" in2="effect1_dropShadow_177_2339" result="shape"/>
</filter>
<filter id="filter3_d_177_2339" x="1529.56" y="208.917" width="16" height="16" filterUnits="userSpaceOnUse" color-interpolation-filters="sRGB">
<feFlood flood-opacity="0" result="BackgroundImageFix"/>
<feColorMatrix in="SourceAlpha" type="matrix" values="0 0 0 0 0 0 0 0 0 0 0 0 0 0 0 0 0 0 127 0" result="hardAlpha"/>
<feOffset/>
<feGaussianBlur stdDeviation="3"/>
<feComposite in2="hardAlpha" operator="out"/>
<feColorMatrix type="matrix" values="0 0 0 0 1 0 0 0 0 0.268571 0 0 0 0 0.268571 0 0 0 1 0"/>
<feBlend mode="normal" in2="BackgroundImageFix" result="effect1_dropShadow_177_2339"/>
<feBlend mode="normal" in="SourceGraphic" in2="effect1_dropShadow_177_2339" result="shape"/>
</filter>
<linearGradient id="paint0_linear_177_2339" x1="0.556152" y1="754.917" x2="192.556" y2="754.917" gradientUnits="userSpaceOnUse">
<stop/>
<stop offset="1" stop-opacity="0"/>
</linearGradient>
<linearGradient id="paint1_linear_177_2339" x1="0" y1="754" x2="192" y2="754" gradientUnits="userSpaceOnUse">
<stop/>
<stop offset="1" stop-opacity="0"/>
</linearGradient>
<linearGradient id="paint2_linear_177_2339" x1="960.556" y1="0.916992" x2="960.556" y2="214.917" gradientUnits="userSpaceOnUse">
<stop/>
<stop offset="1" stop-opacity="0"/>
</linearGradient>
<linearGradient id="paint3_linear_177_2339" x1="1440.56" y1="215.917" x2="1440.56" y2="431.917" gradientUnits="userSpaceOnUse">
<stop stop-color="#EE0000" stop-opacity="0"/>
<stop offset="1" stop-color="#EE0000" stop-opacity="0.5"/>
</linearGradient>
<linearGradient id="paint4_linear_177_2339" x1="1634.56" y1="646.917" x2="1634.56" y2="862.917" gradientUnits="userSpaceOnUse">
<stop stop-color="#EE0000" stop-opacity="0"/>
<stop offset="1" stop-color="#EE0000" stop-opacity="0.5"/>
</linearGradient>
<linearGradient id="paint5_linear_177_2339" x1="481.556" y1="0.916992" x2="481.556" y2="216.917" gradientUnits="userSpaceOnUse">
<stop stop-color="#EE0000" stop-opacity="0"/>
<stop offset="1" stop-color="#EE0000" stop-opacity="0.4"/>
</linearGradient>
<linearGradient id="paint6_linear_177_2339" x1="385.056" y1="431.917" x2="385.056" y2="624.417" gradientUnits="userSpaceOnUse">
<stop stop-color="#8A0000"/>
<stop offset="1" stop-color="#EE0000" stop-opacity="0"/>
</linearGradient>
<linearGradient id="paint7_linear_177_2339" x1="1537.56" y1="216.917" x2="1537.56" y2="409.417" gradientUnits="userSpaceOnUse">
<stop stop-color="#8A0000"/>
<stop offset="1" stop-color="#EE0000" stop-opacity="0"/>
</linearGradient>
</defs>
</svg>
