<svg width="1281" height="1510" viewBox="0 0 1281 1510" fill="none" xmlns="http://www.w3.org/2000/svg">
<g opacity="0.05">
<path d="M128.3 1.01685V1509.02" stroke="white"/>
<path d="M0.299805 1.01685V1509.02" stroke="white"/>
<path d="M256.3 1.01685V1509.02" stroke="white"/>
<path d="M384.3 1.01685V1509.02" stroke="white"/>
<path d="M512.3 1.01685V1509.02" stroke="white"/>
<path d="M640.3 1.01685V1509.02" stroke="white"/>
<path d="M768.3 1.01685V1509.02" stroke="white"/>
<path d="M896.3 1.01685V1509.02" stroke="white"/>
<path d="M1024.3 1.01685V1509.02" stroke="white"/>
<path d="M1152.3 1.01685V1509.02" stroke="white"/>
<path d="M1280.3 1.01685V1509.02" stroke="white"/>
<path d="M0.299805 216.445L1280.3 216.446" stroke="white"/>
<path d="M0.299805 1.01685L1280.3 1.01696" stroke="white"/>
<path d="M0.299805 431.874L1280.3 431.874" stroke="white"/>
<path d="M0.299805 647.303L1280.3 647.303" stroke="white"/>
<path d="M0.299805 862.731L1280.3 862.731" stroke="white"/>
<path d="M0.299805 1078.16L1280.3 1078.16" stroke="white"/>
<path d="M0.299805 1293.59L1280.3 1293.59" stroke="white"/>
<path d="M0.299805 1509.02L1280.3 1509.02" stroke="white"/>
</g>
<rect x="0.556152" y="0.916992" width="128" height="1508" fill="url(#paint0_linear_1801_1883)"/>
<rect width="128" height="1508" transform="matrix(-1 0 0 1 1280.56 0.916992)" fill="url(#paint1_linear_1801_1883)"/>
<rect x="0.556152" y="0.916992" width="1280" height="214" fill="url(#paint2_linear_1801_1883)"/>
<!-- <rect opacity="0.1" x="1024.07" y="215.917" width="126.65" height="216" fill="url(#paint3_linear_1801_1883)"/> -->
<!-- <rect opacity="0.1" x="957.556" y="646.917" width="192" height="216" fill="url(#paint4_linear_1801_1883)"/> -->
<!-- <rect opacity="0.05" x="129.604" y="0.916992" width="126.953" height="216" fill="url(#paint5_linear_1801_1883)"/> -->
<!-- <g filter="url(#filter0_d_1801_1883)">
<circle cx="2" cy="2" r="2" transform="matrix(0 1 1 0 1022.06 430.417)" fill="#EE0000"/>
</g> -->
<!-- <g filter="url(#filter1_d_1801_1883)">
<circle cx="2" cy="2" r="2" transform="matrix(0 1 1 0 254.056 215.417)" fill="#EE0000"/>
</g> -->
<!-- <path d="M128.056 618.917L128.056 431.917" stroke="url(#paint6_linear_1801_1883)"/>
<g filter="url(#filter2_d_1801_1883)">
<circle cx="2" cy="2" r="2" transform="matrix(0 -1 -1 0 130.056 433.917)" fill="#8A0000"/>
</g> -->
<!-- <path d="M1153.56 403.917V216.917" stroke="url(#paint7_linear_1801_1883)"/>
<g filter="url(#filter3_d_1801_1883)">
<circle cx="2" cy="2" r="2" transform="matrix(0 -1 -1 0 1155.56 218.917)" fill="#8A0000"/>
</g> -->
<defs>
<filter id="filter0_d_1801_1883" x="1016.06" y="424.417" width="16" height="16" filterUnits="userSpaceOnUse" color-interpolation-filters="sRGB">
<feFlood flood-opacity="0" result="BackgroundImageFix"/>
<feColorMatrix in="SourceAlpha" type="matrix" values="0 0 0 0 0 0 0 0 0 0 0 0 0 0 0 0 0 0 127 0" result="hardAlpha"/>
<feOffset/>
<feGaussianBlur stdDeviation="3"/>
<feComposite in2="hardAlpha" operator="out"/>
<feColorMatrix type="matrix" values="0 0 0 0 1 0 0 0 0 0.268571 0 0 0 0 0.268571 0 0 0 1 0"/>
<feBlend mode="normal" in2="BackgroundImageFix" result="effect1_dropShadow_1801_1883"/>
<feBlend mode="normal" in="SourceGraphic" in2="effect1_dropShadow_1801_1883" result="shape"/>
</filter>
<filter id="filter1_d_1801_1883" x="248.056" y="209.417" width="16" height="16" filterUnits="userSpaceOnUse" color-interpolation-filters="sRGB">
<feFlood flood-opacity="0" result="BackgroundImageFix"/>
<feColorMatrix in="SourceAlpha" type="matrix" values="0 0 0 0 0 0 0 0 0 0 0 0 0 0 0 0 0 0 127 0" result="hardAlpha"/>
<feOffset/>
<feGaussianBlur stdDeviation="3"/>
<feComposite in2="hardAlpha" operator="out"/>
<feColorMatrix type="matrix" values="0 0 0 0 1 0 0 0 0 0.268571 0 0 0 0 0.268571 0 0 0 1 0"/>
<feBlend mode="normal" in2="BackgroundImageFix" result="effect1_dropShadow_1801_1883"/>
<feBlend mode="normal" in="SourceGraphic" in2="effect1_dropShadow_1801_1883" result="shape"/>
</filter>
<filter id="filter2_d_1801_1883" x="120.056" y="423.917" width="16" height="16" filterUnits="userSpaceOnUse" color-interpolation-filters="sRGB">
<feFlood flood-opacity="0" result="BackgroundImageFix"/>
<feColorMatrix in="SourceAlpha" type="matrix" values="0 0 0 0 0 0 0 0 0 0 0 0 0 0 0 0 0 0 127 0" result="hardAlpha"/>
<feOffset/>
<feGaussianBlur stdDeviation="3"/>
<feComposite in2="hardAlpha" operator="out"/>
<feColorMatrix type="matrix" values="0 0 0 0 1 0 0 0 0 0.268571 0 0 0 0 0.268571 0 0 0 1 0"/>
<feBlend mode="normal" in2="BackgroundImageFix" result="effect1_dropShadow_1801_1883"/>
<feBlend mode="normal" in="SourceGraphic" in2="effect1_dropShadow_1801_1883" result="shape"/>
</filter>
<filter id="filter3_d_1801_1883" x="1145.56" y="208.917" width="16" height="16" filterUnits="userSpaceOnUse" color-interpolation-filters="sRGB">
<feFlood flood-opacity="0" result="BackgroundImageFix"/>
<feColorMatrix in="SourceAlpha" type="matrix" values="0 0 0 0 0 0 0 0 0 0 0 0 0 0 0 0 0 0 127 0" result="hardAlpha"/>
<feOffset/>
<feGaussianBlur stdDeviation="3"/>
<feComposite in2="hardAlpha" operator="out"/>
<feColorMatrix type="matrix" values="0 0 0 0 1 0 0 0 0 0.268571 0 0 0 0 0.268571 0 0 0 1 0"/>
<feBlend mode="normal" in2="BackgroundImageFix" result="effect1_dropShadow_1801_1883"/>
<feBlend mode="normal" in="SourceGraphic" in2="effect1_dropShadow_1801_1883" result="shape"/>
</filter>
<linearGradient id="paint0_linear_1801_1883" x1="0.556152" y1="754.917" x2="128.556" y2="754.917" gradientUnits="userSpaceOnUse">
<stop/>
<stop offset="1" stop-opacity="0"/>
</linearGradient>
<linearGradient id="paint1_linear_1801_1883" x1="0" y1="754" x2="128" y2="754" gradientUnits="userSpaceOnUse">
<stop/>
<stop offset="1" stop-opacity="0"/>
</linearGradient>
<linearGradient id="paint2_linear_1801_1883" x1="640.556" y1="0.916992" x2="640.556" y2="214.917" gradientUnits="userSpaceOnUse">
<stop/>
<stop offset="1" stop-opacity="0"/>
</linearGradient>
<linearGradient id="paint3_linear_1801_1883" x1="1087.39" y1="215.917" x2="1087.39" y2="431.917" gradientUnits="userSpaceOnUse">
<stop stop-color="#EE0000" stop-opacity="0"/>
<stop offset="1" stop-color="#EE0000" stop-opacity="0.5"/>
</linearGradient>
<linearGradient id="paint4_linear_1801_1883" x1="1053.56" y1="646.917" x2="1053.56" y2="862.917" gradientUnits="userSpaceOnUse">
<stop stop-color="#EE0000" stop-opacity="0"/>
<stop offset="1" stop-color="#EE0000" stop-opacity="0.5"/>
</linearGradient>
<linearGradient id="paint5_linear_1801_1883" x1="193.08" y1="0.916992" x2="193.08" y2="216.917" gradientUnits="userSpaceOnUse">
<stop stop-color="#EE0000" stop-opacity="0"/>
<stop offset="1" stop-color="#EE0000" stop-opacity="0.4"/>
</linearGradient>
<linearGradient id="paint6_linear_1801_1883" x1="128.056" y1="431.917" x2="128.056" y2="624.417" gradientUnits="userSpaceOnUse">
<stop stop-color="#8A0000"/>
<stop offset="1" stop-color="#EE0000" stop-opacity="0"/>
</linearGradient>
<linearGradient id="paint7_linear_1801_1883" x1="1153.56" y1="216.917" x2="1153.56" y2="409.417" gradientUnits="userSpaceOnUse">
<stop stop-color="#8A0000"/>
<stop offset="1" stop-color="#EE0000" stop-opacity="0"/>
</linearGradient>
</defs>
</svg>
