<svg width="375" height="1000" viewBox="0 0 375 1000" fill="none" xmlns="http://www.w3.org/2000/svg">
<g clip-path="url(#clip0_1927_1858)">
<g opacity="0.05">
<path d="M67.5439 0.0996094V1508.1" stroke="white"/>
<path d="M144.344 0.0996094V1508.1" stroke="white"/>
<path d="M221.144 0.0996094V1508.1" stroke="white"/>
<path d="M297.944 0.0996094V1508.1" stroke="white"/>
<path d="M374.744 0.0996094V1508.1" stroke="white"/>
<path d="M-393.256 215.528L374.744 215.528" stroke="white"/>
<path d="M-393.256 0.0996094L374.744 0.0996765" stroke="white"/>
<path d="M-393.256 430.957L374.744 430.957" stroke="white"/>
<path d="M-393.256 646.386L374.744 646.386" stroke="white"/>
<path d="M-393.256 861.813L374.744 861.814" stroke="white"/>
</g>
<!-- <rect opacity="0.1" width="78.6201" height="216" transform="matrix(-1 0 0 1 222.171 215)" fill="url(#paint0_linear_1927_1858)"/> -->
<rect x="572" y="1007.45" width="768" height="215.594" transform="rotate(180 572 1007.45)" fill="url(#paint0_linear_1927_1929)"/>

<!-- <g filter="url(#filter0_d_1927_1858)">
<circle cx="144.5" cy="431.5" r="2" transform="rotate(90 144.5 431.5)" fill="#EE0000"/>
</g> -->
</g>
<defs>
<filter id="filter0_d_1927_1858" x="136.5" y="423.5" width="16" height="16" filterUnits="userSpaceOnUse" color-interpolation-filters="sRGB">
<feFlood flood-opacity="0" result="BackgroundImageFix"/>
<feColorMatrix in="SourceAlpha" type="matrix" values="0 0 0 0 0 0 0 0 0 0 0 0 0 0 0 0 0 0 127 0" result="hardAlpha"/>
<feOffset/>
<feGaussianBlur stdDeviation="3"/>
<feComposite in2="hardAlpha" operator="out"/>
<feColorMatrix type="matrix" values="0 0 0 0 1 0 0 0 0 0.268571 0 0 0 0 0.268571 0 0 0 1 0"/>
<feBlend mode="normal" in2="BackgroundImageFix" result="effect1_dropShadow_1927_1858"/>
<feBlend mode="normal" in="SourceGraphic" in2="effect1_dropShadow_1927_1858" result="shape"/>
</filter>
<linearGradient id="paint0_linear_1927_1929" x1="956" y1="1007.45" x2="956" y2="1223.04" gradientUnits="userSpaceOnUse">
<stop/>
<stop offset="1" stop-opacity="0"/>
</linearGradient>
<linearGradient id="paint0_linear_1927_1858" x1="39.3101" y1="0" x2="39.3101" y2="216" gradientUnits="userSpaceOnUse">
<stop stop-color="#EE0000" stop-opacity="0"/>
<stop offset="1" stop-color="#EE0000" stop-opacity="0.5"/>
</linearGradient>
<clipPath id="clip0_1927_1858">
<rect width="375" height="1000" fill="white"/>
</clipPath>
</defs>
</svg>
