<svg width="769" height="1192" viewBox="0 0 769 1192" fill="none" xmlns="http://www.w3.org/2000/svg">
<g opacity="0.05">
<path d="M77.1001 1.0166V1509.02" stroke="white"/>
<path d="M0.300293 1.0166V1509.02" stroke="white"/>
<path d="M153.9 1.0166V1509.02" stroke="white"/>
<path d="M230.701 1.0166V1509.02" stroke="white"/>
<path d="M307.5 1.0166V1509.02" stroke="white"/>
<path d="M384.3 1.0166V1509.02" stroke="white"/>
<path d="M461.101 1.0166V1509.02" stroke="white"/>
<path d="M537.9 1.0166V1509.02" stroke="white"/>
<path d="M614.7 1.0166V1509.02" stroke="white"/>
<path d="M691.5 1.0166V1509.02" stroke="white"/>
<path d="M768.301 1.0166V1509.02" stroke="white"/>
<path d="M0.300293 216.445L768.3 216.445" stroke="white"/>
<path d="M0.300293 1.0166L768.3 1.01667" stroke="white"/>
<path d="M0.300293 431.874L768.3 431.874" stroke="white"/>
<path d="M0.300293 647.302L768.3 647.302" stroke="white"/>
<path d="M0.300293 862.731L768.3 862.731" stroke="white"/>
<path d="M0.300293 1078.16L768.3 1078.16" stroke="white"/>
</g>
<!-- <rect opacity="0.1" width="78.6201" height="216" transform="matrix(-1 0 0 1 615.728 215.917)" fill="url(#paint0_linear_1817_1386)"/> -->
<!-- <rect opacity="0.1" width="78.2231" height="216" transform="matrix(-1 0 0 1 309.354 430.917)" fill="url(#paint1_linear_1817_1386)"/> -->
<!-- <g filter="url(#filter0_d_1817_1386)">
<circle cx="538.057" cy="432.417" r="2" transform="rotate(90 538.057 432.417)" fill="#EE0000"/>
</g> -->
<defs>
<filter id="filter0_d_1817_1386" x="530.057" y="424.417" width="16" height="16" filterUnits="userSpaceOnUse" color-interpolation-filters="sRGB">
<feFlood flood-opacity="0" result="BackgroundImageFix"/>
<feColorMatrix in="SourceAlpha" type="matrix" values="0 0 0 0 0 0 0 0 0 0 0 0 0 0 0 0 0 0 127 0" result="hardAlpha"/>
<feOffset/>
<feGaussianBlur stdDeviation="3"/>
<feComposite in2="hardAlpha" operator="out"/>
<feColorMatrix type="matrix" values="0 0 0 0 1 0 0 0 0 0.268571 0 0 0 0 0.268571 0 0 0 1 0"/>
<feBlend mode="normal" in2="BackgroundImageFix" result="effect1_dropShadow_1817_1386"/>
<feBlend mode="normal" in="SourceGraphic" in2="effect1_dropShadow_1817_1386" result="shape"/>
</filter>
<linearGradient id="paint0_linear_1817_1386" x1="39.3101" y1="0" x2="39.3101" y2="216" gradientUnits="userSpaceOnUse">
<stop stop-color="#EE0000" stop-opacity="0"/>
<stop offset="1" stop-color="#EE0000" stop-opacity="0.5"/>
</linearGradient>
<linearGradient id="paint1_linear_1817_1386" x1="39.1116" y1="0" x2="39.1116" y2="216" gradientUnits="userSpaceOnUse">
<stop stop-color="#EE0000" stop-opacity="0"/>
<stop offset="1" stop-color="#EE0000" stop-opacity="0.5"/>
</linearGradient>
</defs>
</svg>
