<svg width="1281" height="1001" viewBox="0 0 1281 1001" fill="none" xmlns="http://www.w3.org/2000/svg">
<g opacity="0.05">
<path d="M124.3 0.0166016V1508.02" stroke="white"/>
<path d="M316.3 0.0166016V1508.02" stroke="white"/>
<path d="M508.3 0.0166016V1508.02" stroke="white"/>
<path d="M700.3 0.0166016V1508.02" stroke="white"/>
<path d="M892.3 0.0166016V1508.02" stroke="white"/>
<path d="M1084.3 0.0166016V1508.02" stroke="white"/>
<path d="M1276.3 0.0166016V1508.02" stroke="white"/>
<path d="M-259.7 215.445L1660.3 215.445" stroke="white"/>
<path d="M-259.7 0.0166016L1660.3 0.0167694" stroke="white"/>
<path d="M-259.7 430.874L1660.3 430.874" stroke="white"/>
<path d="M-259.7 646.302L1660.3 646.302" stroke="white"/>
<path d="M-259.7 861.731L1660.3 861.731" stroke="white"/>
</g>
<!-- <rect opacity="0.1" width="192" height="216" transform="matrix(-1 0 0 1 316.556 214.917)" fill="url(#paint0_linear_1802_1928)"/>
<rect opacity="0.1" width="192" height="216" transform="matrix(-1 0 0 1 124.556 429.917)" fill="url(#paint1_linear_1802_1928)"/>
<rect opacity="0.05" width="192" height="216" transform="matrix(-1 0 0 1 1275.56 -0.0830078)" fill="url(#paint2_linear_1802_1928)"/>
<g filter="url(#filter0_d_1802_1928)">
<circle cx="316.056" cy="431.417" r="2" transform="rotate(90 316.056 431.417)" fill="#EE0000"/>
</g> -->
<defs>
<filter id="filter0_d_1802_1928" x="308.056" y="423.417" width="16" height="16" filterUnits="userSpaceOnUse" color-interpolation-filters="sRGB">
<feFlood flood-opacity="0" result="BackgroundImageFix"/>
<feColorMatrix in="SourceAlpha" type="matrix" values="0 0 0 0 0 0 0 0 0 0 0 0 0 0 0 0 0 0 127 0" result="hardAlpha"/>
<feOffset/>
<feGaussianBlur stdDeviation="3"/>
<feComposite in2="hardAlpha" operator="out"/>
<feColorMatrix type="matrix" values="0 0 0 0 1 0 0 0 0 0.268571 0 0 0 0 0.268571 0 0 0 1 0"/>
<feBlend mode="normal" in2="BackgroundImageFix" result="effect1_dropShadow_1802_1928"/>
<feBlend mode="normal" in="SourceGraphic" in2="effect1_dropShadow_1802_1928" result="shape"/>
</filter>
<linearGradient id="paint0_linear_1802_1928" x1="96" y1="0" x2="96" y2="216" gradientUnits="userSpaceOnUse">
<stop stop-color="#EE0000" stop-opacity="0"/>
<stop offset="1" stop-color="#EE0000" stop-opacity="0.5"/>
</linearGradient>
<linearGradient id="paint1_linear_1802_1928" x1="96" y1="0" x2="96" y2="216" gradientUnits="userSpaceOnUse">
<stop stop-color="#EE0000" stop-opacity="0"/>
<stop offset="1" stop-color="#EE0000" stop-opacity="0.5"/>
</linearGradient>
<linearGradient id="paint2_linear_1802_1928" x1="96" y1="0" x2="96" y2="216" gradientUnits="userSpaceOnUse">
<stop stop-color="#EE0000" stop-opacity="0"/>
<stop offset="1" stop-color="#EE0000" stop-opacity="0.4"/>
</linearGradient>
</defs>
</svg>
