<svg width="1281" height="1009" viewBox="0 0 1281 1009" fill="none" xmlns="http://www.w3.org/2000/svg">
<mask id="path-1-inside-1_1802_2645" fill="white">
<path d="M1280.56 0.916504H0.556152V144.536H1280.56V0.916504Z"/>
</mask>
<path d="M1280.56 1.58317H0.556152V0.249837H1280.56V1.58317Z" fill="white" fill-opacity="0.05" mask="url(#path-1-inside-1_1802_2645)"/>
<mask id="path-3-inside-2_1802_2645" fill="white">
<path d="M1280.56 144.536H0.556152V288.155H1280.56V144.536Z"/>
</mask>
<path d="M1280.56 145.202H0.556152V143.869H1280.56V145.202Z" fill="white" fill-opacity="0.05" mask="url(#path-3-inside-2_1802_2645)"/>
<mask id="path-5-inside-3_1802_2645" fill="white">
<path d="M1280.56 288.155H0.556152V431.774H1280.56V288.155Z"/>
</mask>
<path d="M1280.56 288.821H0.556152V287.488H1280.56V288.821Z" fill="white" fill-opacity="0.05" mask="url(#path-5-inside-3_1802_2645)"/>
<mask id="path-7-inside-4_1802_2645" fill="white">
<path d="M1280.56 431.773H0.556152V575.392H1280.56V431.773Z"/>
</mask>
<path d="M1280.56 432.44H0.556152V431.107H1280.56V432.44Z" fill="white" fill-opacity="0.05" mask="url(#path-7-inside-4_1802_2645)"/>
<mask id="path-9-inside-5_1802_2645" fill="white">
<path d="M1280.56 575.393H0.556152V719.012H1280.56V575.393Z"/>
</mask>
<path d="M1280.56 576.059H0.556152V574.726H1280.56V576.059Z" fill="white" fill-opacity="0.05" mask="url(#path-9-inside-5_1802_2645)"/>
<mask id="path-11-inside-6_1802_2645" fill="white">
<path d="M1280.56 719.012H0.556152V862.631H1280.56V719.012Z"/>
</mask>
<path d="M1280.56 719.678H0.556152V718.345H1280.56V719.678Z" fill="white" fill-opacity="0.05" mask="url(#path-11-inside-6_1802_2645)"/>
<mask id="path-13-inside-7_1802_2645" fill="white">
<path d="M1280.56 862.631H0.556152V1006.25H1280.56V862.631Z"/>
</mask>
<path d="M1280.56 863.298H0.556152V861.964H1280.56V863.298ZM0.556152 1005.58H1280.56V1006.92H0.556152V1005.58Z" fill="white" fill-opacity="0.05" mask="url(#path-13-inside-7_1802_2645)"/>
<mask id="path-15-inside-8_1802_2645" fill="white">
<path d="M1280.56 0.916504H1152.56V1006.25H1280.56V0.916504Z"/>
</mask>
<path d="M1279.89 1006.25V0.916504H1281.22V1006.25H1279.89Z" fill="white" fill-opacity="0.05" mask="url(#path-15-inside-8_1802_2645)"/>
<mask id="path-17-inside-9_1802_2645" fill="white">
<path d="M1152.56 0.916504H1024.56V1006.25H1152.56V0.916504Z"/>
</mask>
<path d="M1151.89 1006.25V0.916504H1153.22V1006.25H1151.89Z" fill="white" fill-opacity="0.05" mask="url(#path-17-inside-9_1802_2645)"/>
<mask id="path-19-inside-10_1802_2645" fill="white">
<path d="M1024.56 0.916504H896.556V1006.25H1024.56V0.916504Z"/>
</mask>
<path d="M1023.89 1006.25V0.916504H1025.22V1006.25H1023.89Z" fill="white" fill-opacity="0.05" mask="url(#path-19-inside-10_1802_2645)"/>
<mask id="path-21-inside-11_1802_2645" fill="white">
<path d="M896.556 0.916504H768.556V1006.25H896.556V0.916504Z"/>
</mask>
<path d="M895.889 1006.25V0.916504H897.223V1006.25H895.889Z" fill="white" fill-opacity="0.05" mask="url(#path-21-inside-11_1802_2645)"/>
<mask id="path-23-inside-12_1802_2645" fill="white">
<path d="M768.556 0.916504H640.556V1006.25H768.556V0.916504Z"/>
</mask>
<path d="M767.889 1006.25V0.916504H769.223V1006.25H767.889Z" fill="white" fill-opacity="0.05" mask="url(#path-23-inside-12_1802_2645)"/>
<mask id="path-25-inside-13_1802_2645" fill="white">
<path d="M640.556 0.916504H512.556V1006.25H640.556V0.916504Z"/>
</mask>
<path d="M639.889 1006.25V0.916504H641.223V1006.25H639.889Z" fill="white" fill-opacity="0.05" mask="url(#path-25-inside-13_1802_2645)"/>
<mask id="path-27-inside-14_1802_2645" fill="white">
<path d="M512.556 0.916504H384.556V1006.25H512.556V0.916504Z"/>
</mask>
<path d="M511.889 1006.25V0.916504H513.223V1006.25H511.889Z" fill="white" fill-opacity="0.05" mask="url(#path-27-inside-14_1802_2645)"/>
<mask id="path-29-inside-15_1802_2645" fill="white">
<path d="M384.556 0.916504H256.556V1006.25H384.556V0.916504Z"/>
</mask>
<path d="M383.889 1006.25V0.916504H385.223V1006.25H383.889Z" fill="white" fill-opacity="0.05" mask="url(#path-29-inside-15_1802_2645)"/>
<mask id="path-31-inside-16_1802_2645" fill="white">
<path d="M256.556 0.916504H128.556V1006.25H256.556V0.916504Z"/>
</mask>
<path d="M255.889 1006.25V0.916504H257.223V1006.25H255.889Z" fill="white" fill-opacity="0.05" mask="url(#path-31-inside-16_1802_2645)"/>
<mask id="path-33-inside-17_1802_2645" fill="white">
<path d="M128.556 0.916504H0.556152V1006.25H128.556V0.916504Z"/>
</mask>
<path d="M1.22282 0.916504V1006.25H-0.110519V0.916504H1.22282ZM127.889 1006.25V0.916504H129.223V1006.25H127.889Z" fill="white" fill-opacity="0.05" mask="url(#path-33-inside-17_1802_2645)"/>
<rect width="128" height="1005.33" transform="matrix(-1 0 0 1 1280.56 0.916504)" fill="url(#paint0_linear_1802_2645)"/>
<rect x="0.556152" y="0.916504" width="128" height="1005.33" fill="url(#paint1_linear_1802_2645)"/>
<rect width="1280" height="142.667" transform="matrix(-1 0 0 1 1280.56 0.916504)" fill="url(#paint2_linear_1802_2645)"/>
<rect x="1280.56" y="1008.25" width="1280" height="142.667" transform="rotate(180 1280.56 1008.25)" fill="url(#paint3_linear_1802_2645)"/>
<!-- <rect opacity="0.1" width="128" height="144" transform="matrix(-1 0 0 1 384.556 144.25)" fill="url(#paint4_linear_1802_2645)"/>
<rect opacity="0.05" width="128" height="144" transform="matrix(-1 0 0 1 1023.89 0.916504)" fill="url(#paint5_linear_1802_2645)"/>
<g filter="url(#filter0_d_1802_2645)">
<circle cx="384.223" cy="288.583" r="1.33333" transform="rotate(90 384.223 288.583)" fill="#EE0000"/>
</g>
<g filter="url(#filter1_d_1802_2645)">
<circle cx="896.223" cy="145.25" r="1.33333" transform="rotate(90 896.223 145.25)" fill="#EE0000"/>
</g>
<path d="M1024.22 412.917V288.25" stroke="url(#paint6_linear_1802_2645)" stroke-width="0.666667"/>
<g filter="url(#filter2_d_1802_2645)">
<circle cx="1024.22" cy="288.25" r="1.33333" transform="rotate(-90 1024.22 288.25)" fill="#8A0000"/>
</g>
<path d="M255.89 269.583L255.89 144.916" stroke="url(#paint7_linear_1802_2645)" stroke-width="0.666667"/>
<g filter="url(#filter3_d_1802_2645)">
<circle cx="255.889" cy="144.916" r="1.33333" transform="rotate(-90 255.889 144.916)" fill="#8A0000"/>
</g> -->
<defs>
<filter id="filter0_d_1802_2645" x="378.89" y="283.25" width="10.6665" height="10.6665" filterUnits="userSpaceOnUse" color-interpolation-filters="sRGB">
<feFlood flood-opacity="0" result="BackgroundImageFix"/>
<feColorMatrix in="SourceAlpha" type="matrix" values="0 0 0 0 0 0 0 0 0 0 0 0 0 0 0 0 0 0 127 0" result="hardAlpha"/>
<feOffset/>
<feGaussianBlur stdDeviation="2"/>
<feComposite in2="hardAlpha" operator="out"/>
<feColorMatrix type="matrix" values="0 0 0 0 1 0 0 0 0 0.268571 0 0 0 0 0.268571 0 0 0 1 0"/>
<feBlend mode="normal" in2="BackgroundImageFix" result="effect1_dropShadow_1802_2645"/>
<feBlend mode="normal" in="SourceGraphic" in2="effect1_dropShadow_1802_2645" result="shape"/>
</filter>
<filter id="filter1_d_1802_2645" x="890.89" y="139.917" width="10.6665" height="10.6665" filterUnits="userSpaceOnUse" color-interpolation-filters="sRGB">
<feFlood flood-opacity="0" result="BackgroundImageFix"/>
<feColorMatrix in="SourceAlpha" type="matrix" values="0 0 0 0 0 0 0 0 0 0 0 0 0 0 0 0 0 0 127 0" result="hardAlpha"/>
<feOffset/>
<feGaussianBlur stdDeviation="2"/>
<feComposite in2="hardAlpha" operator="out"/>
<feColorMatrix type="matrix" values="0 0 0 0 1 0 0 0 0 0.268571 0 0 0 0 0.268571 0 0 0 1 0"/>
<feBlend mode="normal" in2="BackgroundImageFix" result="effect1_dropShadow_1802_2645"/>
<feBlend mode="normal" in="SourceGraphic" in2="effect1_dropShadow_1802_2645" result="shape"/>
</filter>
<filter id="filter2_d_1802_2645" x="1018.89" y="282.917" width="10.6665" height="10.6665" filterUnits="userSpaceOnUse" color-interpolation-filters="sRGB">
<feFlood flood-opacity="0" result="BackgroundImageFix"/>
<feColorMatrix in="SourceAlpha" type="matrix" values="0 0 0 0 0 0 0 0 0 0 0 0 0 0 0 0 0 0 127 0" result="hardAlpha"/>
<feOffset/>
<feGaussianBlur stdDeviation="2"/>
<feComposite in2="hardAlpha" operator="out"/>
<feColorMatrix type="matrix" values="0 0 0 0 1 0 0 0 0 0.268571 0 0 0 0 0.268571 0 0 0 1 0"/>
<feBlend mode="normal" in2="BackgroundImageFix" result="effect1_dropShadow_1802_2645"/>
<feBlend mode="normal" in="SourceGraphic" in2="effect1_dropShadow_1802_2645" result="shape"/>
</filter>
<filter id="filter3_d_1802_2645" x="250.556" y="139.583" width="10.6665" height="10.6665" filterUnits="userSpaceOnUse" color-interpolation-filters="sRGB">
<feFlood flood-opacity="0" result="BackgroundImageFix"/>
<feColorMatrix in="SourceAlpha" type="matrix" values="0 0 0 0 0 0 0 0 0 0 0 0 0 0 0 0 0 0 127 0" result="hardAlpha"/>
<feOffset/>
<feGaussianBlur stdDeviation="2"/>
<feComposite in2="hardAlpha" operator="out"/>
<feColorMatrix type="matrix" values="0 0 0 0 1 0 0 0 0 0.268571 0 0 0 0 0.268571 0 0 0 1 0"/>
<feBlend mode="normal" in2="BackgroundImageFix" result="effect1_dropShadow_1802_2645"/>
<feBlend mode="normal" in="SourceGraphic" in2="effect1_dropShadow_1802_2645" result="shape"/>
</filter>
<linearGradient id="paint0_linear_1802_2645" x1="0" y1="502.667" x2="128" y2="502.667" gradientUnits="userSpaceOnUse">
<stop/>
<stop offset="1" stop-opacity="0"/>
</linearGradient>
<linearGradient id="paint1_linear_1802_2645" x1="0.556152" y1="503.583" x2="128.556" y2="503.583" gradientUnits="userSpaceOnUse">
<stop/>
<stop offset="1" stop-opacity="0"/>
</linearGradient>
<linearGradient id="paint2_linear_1802_2645" x1="640" y1="0" x2="640" y2="142.667" gradientUnits="userSpaceOnUse">
<stop/>
<stop offset="1" stop-opacity="0"/>
</linearGradient>
<linearGradient id="paint3_linear_1802_2645" x1="1920.56" y1="1008.25" x2="1920.56" y2="1150.92" gradientUnits="userSpaceOnUse">
<stop/>
<stop offset="1" stop-opacity="0"/>
</linearGradient>
<linearGradient id="paint4_linear_1802_2645" x1="64" y1="0" x2="64" y2="144" gradientUnits="userSpaceOnUse">
<stop stop-color="#EE0000" stop-opacity="0"/>
<stop offset="1" stop-color="#EE0000" stop-opacity="0.5"/>
</linearGradient>
<linearGradient id="paint5_linear_1802_2645" x1="64" y1="0" x2="64" y2="144" gradientUnits="userSpaceOnUse">
<stop stop-color="#EE0000" stop-opacity="0"/>
<stop offset="1" stop-color="#EE0000" stop-opacity="0.4"/>
</linearGradient>
<linearGradient id="paint6_linear_1802_2645" x1="1024.22" y1="288.25" x2="1024.22" y2="416.583" gradientUnits="userSpaceOnUse">
<stop stop-color="#8A0000"/>
<stop offset="1" stop-color="#EE0000" stop-opacity="0"/>
</linearGradient>
<linearGradient id="paint7_linear_1802_2645" x1="255.89" y1="144.916" x2="255.89" y2="273.25" gradientUnits="userSpaceOnUse">
<stop stop-color="#8A0000"/>
<stop offset="1" stop-color="#EE0000" stop-opacity="0"/>
</linearGradient>
</defs>
</svg>
