<svg width="1921" height="1509" viewBox="0 0 1921 1509" fill="none" xmlns="http://www.w3.org/2000/svg">
<mask id="path-1-inside-1_73_5528" fill="white">
<path d="M1920.56 0.916992H0.556152V216.346H1920.56V0.916992Z"/>
</mask>
<path d="M1920.56 1.91699H0.556152V-0.0830078H1920.56V1.91699Z" fill="white" fill-opacity="0.05" mask="url(#path-1-inside-1_73_5528)"/>
<mask id="path-3-inside-2_73_5528" fill="white">
<path d="M1920.56 216.346H0.556152V431.774H1920.56V216.346Z"/>
</mask>
<path d="M1920.56 217.346H0.556152V215.346H1920.56V217.346Z" fill="white" fill-opacity="0.05" mask="url(#path-3-inside-2_73_5528)"/>
<mask id="path-5-inside-3_73_5528" fill="white">
<path d="M1920.56 431.774H0.556152V647.202H1920.56V431.774Z"/>
</mask>
<path d="M1920.56 432.774H0.556152V430.774H1920.56V432.774Z" fill="white" fill-opacity="0.05" mask="url(#path-5-inside-3_73_5528)"/>
<mask id="path-7-inside-4_73_5528" fill="white">
<path d="M1920.56 647.203H0.556152V862.631H1920.56V647.203Z"/>
</mask>
<path d="M1920.56 648.203H0.556152V646.203H1920.56V648.203Z" fill="white" fill-opacity="0.05" mask="url(#path-7-inside-4_73_5528)"/>
<mask id="path-9-inside-5_73_5528" fill="white">
<path d="M1920.56 862.631H0.556152V1078.06H1920.56V862.631Z"/>
</mask>
<path d="M1920.56 863.631H0.556152V861.631H1920.56V863.631Z" fill="white" fill-opacity="0.05" mask="url(#path-9-inside-5_73_5528)"/>
<mask id="path-11-inside-6_73_5528" fill="white">
<path d="M1920.56 1078.06H0.556152V1293.49H1920.56V1078.06Z"/>
</mask>
<path d="M1920.56 1079.06H0.556152V1077.06H1920.56V1079.06Z" fill="white" fill-opacity="0.05" mask="url(#path-11-inside-6_73_5528)"/>
<mask id="path-13-inside-7_73_5528" fill="white">
<path d="M1920.56 1293.49H0.556152V1508.92H1920.56V1293.49Z"/>
</mask>
<path d="M1920.56 1294.49H0.556152V1292.49H1920.56V1294.49ZM0.556152 1507.92H1920.56V1509.92H0.556152V1507.92Z" fill="white" fill-opacity="0.05" mask="url(#path-13-inside-7_73_5528)"/>
<mask id="path-15-inside-8_73_5528" fill="white">
<path d="M1920.56 0.916992H1728.56V1508.92H1920.56V0.916992Z"/>
</mask>
<path d="M1919.56 1508.92V0.916992H1921.56V1508.92H1919.56Z" fill="white" fill-opacity="0.05" mask="url(#path-15-inside-8_73_5528)"/>
<mask id="path-17-inside-9_73_5528" fill="white">
<path d="M1728.56 0.916992H1536.56V1508.92H1728.56V0.916992Z"/>
</mask>
<path d="M1727.56 1508.92V0.916992H1729.56V1508.92H1727.56Z" fill="white" fill-opacity="0.05" mask="url(#path-17-inside-9_73_5528)"/>
<mask id="path-19-inside-10_73_5528" fill="white">
<path d="M1536.56 0.916992H1344.56V1508.92H1536.56V0.916992Z"/>
</mask>
<path d="M1535.56 1508.92V0.916992H1537.56V1508.92H1535.56Z" fill="white" fill-opacity="0.05" mask="url(#path-19-inside-10_73_5528)"/>
<mask id="path-21-inside-11_73_5528" fill="white">
<path d="M1344.56 0.916992H1152.56V1508.92H1344.56V0.916992Z"/>
</mask>
<path d="M1343.56 1508.92V0.916992H1345.56V1508.92H1343.56Z" fill="white" fill-opacity="0.05" mask="url(#path-21-inside-11_73_5528)"/>
<mask id="path-23-inside-12_73_5528" fill="white">
<path d="M1152.56 0.916992H960.556V1508.92H1152.56V0.916992Z"/>
</mask>
<path d="M1151.56 1508.92V0.916992H1153.56V1508.92H1151.56Z" fill="white" fill-opacity="0.05" mask="url(#path-23-inside-12_73_5528)"/>
<mask id="path-25-inside-13_73_5528" fill="white">
<path d="M960.556 0.916992H768.556V1508.92H960.556V0.916992Z"/>
</mask>
<path d="M959.556 1508.92V0.916992H961.556V1508.92H959.556Z" fill="white" fill-opacity="0.05" mask="url(#path-25-inside-13_73_5528)"/>
<mask id="path-27-inside-14_73_5528" fill="white">
<path d="M768.556 0.916992H576.556V1508.92H768.556V0.916992Z"/>
</mask>
<path d="M767.556 1508.92V0.916992H769.556V1508.92H767.556Z" fill="white" fill-opacity="0.05" mask="url(#path-27-inside-14_73_5528)"/>
<mask id="path-29-inside-15_73_5528" fill="white">
<path d="M576.556 0.916992H384.556V1508.92H576.556V0.916992Z"/>
</mask>
<path d="M575.556 1508.92V0.916992H577.556V1508.92H575.556Z" fill="white" fill-opacity="0.05" mask="url(#path-29-inside-15_73_5528)"/>
<mask id="path-31-inside-16_73_5528" fill="white">
<path d="M384.556 0.916992H192.556V1508.92H384.556V0.916992Z"/>
</mask>
<path d="M383.556 1508.92V0.916992H385.556V1508.92H383.556Z" fill="white" fill-opacity="0.05" mask="url(#path-31-inside-16_73_5528)"/>
<mask id="path-33-inside-17_73_5528" fill="white">
<path d="M192.556 0.916992H0.556152V1508.92H192.556V0.916992Z"/>
</mask>
<path d="M1.55615 0.916992V1508.92H-0.443848V0.916992H1.55615ZM191.556 1508.92V0.916992H193.556V1508.92H191.556Z" fill="white" fill-opacity="0.05" mask="url(#path-33-inside-17_73_5528)"/>
<rect width="192" height="1508" transform="matrix(-1 0 0 1 1920.56 0.916992)" fill="url(#paint0_linear_73_5528)"/>
<rect x="0.556152" y="0.916992" width="192" height="1508" fill="url(#paint1_linear_73_5528)"/>
<rect width="1920" height="214" transform="matrix(-1 0 0 1 1920.56 0.916992)" fill="url(#paint2_linear_73_5528)"/>
<!-- <rect opacity="0.1" width="192" height="216" transform="matrix(-1 0 0 1 576.556 215.917)" fill="url(#paint3_linear_73_5528)"/>
<rect opacity="0.05" width="192" height="216" transform="matrix(-1 0 0 1 1535.56 0.916992)" fill="url(#paint4_linear_73_5528)"/>
<g filter="url(#filter0_d_73_5528)">
<circle cx="576.056" cy="432.417" r="2" transform="rotate(90 576.056 432.417)" fill="#EE0000"/>
</g>
<g filter="url(#filter1_d_73_5528)">
<circle cx="1344.06" cy="217.417" r="2" transform="rotate(90 1344.06 217.417)" fill="#EE0000"/>
</g>
<path d="M1536.06 618.917V431.917" stroke="url(#paint5_linear_73_5528)"/>
<g filter="url(#filter2_d_73_5528)">
<circle cx="1536.06" cy="431.917" r="2" transform="rotate(-90 1536.06 431.917)" fill="#8A0000"/>
</g>
<path d="M383.556 403.917L383.556 216.917" stroke="url(#paint6_linear_73_5528)"/>
<g filter="url(#filter3_d_73_5528)">
<circle cx="383.556" cy="216.917" r="2" transform="rotate(-90 383.556 216.917)" fill="#8A0000"/>
</g> -->
<defs>
<filter id="filter0_d_73_5528" x="568.056" y="424.417" width="16" height="16" filterUnits="userSpaceOnUse" color-interpolation-filters="sRGB">
<feFlood flood-opacity="0" result="BackgroundImageFix"/>
<feColorMatrix in="SourceAlpha" type="matrix" values="0 0 0 0 0 0 0 0 0 0 0 0 0 0 0 0 0 0 127 0" result="hardAlpha"/>
<feOffset/>
<feGaussianBlur stdDeviation="3"/>
<feComposite in2="hardAlpha" operator="out"/>
<feColorMatrix type="matrix" values="0 0 0 0 1 0 0 0 0 0.268571 0 0 0 0 0.268571 0 0 0 1 0"/>
<feBlend mode="normal" in2="BackgroundImageFix" result="effect1_dropShadow_73_5528"/>
<feBlend mode="normal" in="SourceGraphic" in2="effect1_dropShadow_73_5528" result="shape"/>
</filter>
<filter id="filter1_d_73_5528" x="1336.06" y="209.417" width="16" height="16" filterUnits="userSpaceOnUse" color-interpolation-filters="sRGB">
<feFlood flood-opacity="0" result="BackgroundImageFix"/>
<feColorMatrix in="SourceAlpha" type="matrix" values="0 0 0 0 0 0 0 0 0 0 0 0 0 0 0 0 0 0 127 0" result="hardAlpha"/>
<feOffset/>
<feGaussianBlur stdDeviation="3"/>
<feComposite in2="hardAlpha" operator="out"/>
<feColorMatrix type="matrix" values="0 0 0 0 1 0 0 0 0 0.268571 0 0 0 0 0.268571 0 0 0 1 0"/>
<feBlend mode="normal" in2="BackgroundImageFix" result="effect1_dropShadow_73_5528"/>
<feBlend mode="normal" in="SourceGraphic" in2="effect1_dropShadow_73_5528" result="shape"/>
</filter>
<filter id="filter2_d_73_5528" x="1528.06" y="423.917" width="16" height="16" filterUnits="userSpaceOnUse" color-interpolation-filters="sRGB">
<feFlood flood-opacity="0" result="BackgroundImageFix"/>
<feColorMatrix in="SourceAlpha" type="matrix" values="0 0 0 0 0 0 0 0 0 0 0 0 0 0 0 0 0 0 127 0" result="hardAlpha"/>
<feOffset/>
<feGaussianBlur stdDeviation="3"/>
<feComposite in2="hardAlpha" operator="out"/>
<feColorMatrix type="matrix" values="0 0 0 0 1 0 0 0 0 0.268571 0 0 0 0 0.268571 0 0 0 1 0"/>
<feBlend mode="normal" in2="BackgroundImageFix" result="effect1_dropShadow_73_5528"/>
<feBlend mode="normal" in="SourceGraphic" in2="effect1_dropShadow_73_5528" result="shape"/>
</filter>
<filter id="filter3_d_73_5528" x="375.556" y="208.917" width="16" height="16" filterUnits="userSpaceOnUse" color-interpolation-filters="sRGB">
<feFlood flood-opacity="0" result="BackgroundImageFix"/>
<feColorMatrix in="SourceAlpha" type="matrix" values="0 0 0 0 0 0 0 0 0 0 0 0 0 0 0 0 0 0 127 0" result="hardAlpha"/>
<feOffset/>
<feGaussianBlur stdDeviation="3"/>
<feComposite in2="hardAlpha" operator="out"/>
<feColorMatrix type="matrix" values="0 0 0 0 1 0 0 0 0 0.268571 0 0 0 0 0.268571 0 0 0 1 0"/>
<feBlend mode="normal" in2="BackgroundImageFix" result="effect1_dropShadow_73_5528"/>
<feBlend mode="normal" in="SourceGraphic" in2="effect1_dropShadow_73_5528" result="shape"/>
</filter>
<linearGradient id="paint0_linear_73_5528" x1="0" y1="754" x2="192" y2="754" gradientUnits="userSpaceOnUse">
<stop/>
<stop offset="1" stop-opacity="0"/>
</linearGradient>
<linearGradient id="paint1_linear_73_5528" x1="0.556152" y1="754.917" x2="192.556" y2="754.917" gradientUnits="userSpaceOnUse">
<stop/>
<stop offset="1" stop-opacity="0"/>
</linearGradient>
<linearGradient id="paint2_linear_73_5528" x1="960" y1="0" x2="960" y2="214" gradientUnits="userSpaceOnUse">
<stop/>
<stop offset="1" stop-opacity="0"/>
</linearGradient>
<linearGradient id="paint3_linear_73_5528" x1="96" y1="0" x2="96" y2="216" gradientUnits="userSpaceOnUse">
<stop stop-color="#EE0000" stop-opacity="0"/>
<stop offset="1" stop-color="#EE0000" stop-opacity="0.5"/>
</linearGradient>
<linearGradient id="paint4_linear_73_5528" x1="96" y1="0" x2="96" y2="216" gradientUnits="userSpaceOnUse">
<stop stop-color="#EE0000" stop-opacity="0"/>
<stop offset="1" stop-color="#EE0000" stop-opacity="0.4"/>
</linearGradient>
<linearGradient id="paint5_linear_73_5528" x1="1536.06" y1="431.917" x2="1536.06" y2="624.417" gradientUnits="userSpaceOnUse">
<stop stop-color="#8A0000"/>
<stop offset="1" stop-color="#EE0000" stop-opacity="0"/>
</linearGradient>
<linearGradient id="paint6_linear_73_5528" x1="383.556" y1="216.917" x2="383.556" y2="409.417" gradientUnits="userSpaceOnUse">
<stop stop-color="#8A0000"/>
<stop offset="1" stop-color="#EE0000" stop-opacity="0"/>
</linearGradient>
</defs>
</svg>