<svg width="375" height="1008" viewBox="0 0 375 1008" fill="none" xmlns="http://www.w3.org/2000/svg">
<g clip-path="url(#clip0_1927_1885)">
<mask id="path-1-inside-1_1927_1885" fill="white">
<path d="M572.25 0H-195.75V138.769H572.25V0Z"/>
</mask>
<path d="M572.25 0.666667H-195.75V-0.666667H572.25V0.666667Z" fill="white" fill-opacity="0.05" mask="url(#path-1-inside-1_1927_1885)"/>
<mask id="path-3-inside-2_1927_1885" fill="white">
<path d="M572.25 138.77H-195.75V277.539H572.25V138.77Z"/>
</mask>
<path d="M572.25 139.436H-195.75V138.103H572.25V139.436Z" fill="white" fill-opacity="0.05" mask="url(#path-3-inside-2_1927_1885)"/>
<mask id="path-5-inside-3_1927_1885" fill="white">
<path d="M572.25 277.538H-195.75V416.307H572.25V277.538Z"/>
</mask>
<path d="M572.25 278.205H-195.75V276.871H572.25V278.205Z" fill="white" fill-opacity="0.05" mask="url(#path-5-inside-3_1927_1885)"/>
<mask id="path-7-inside-4_1927_1885" fill="white">
<path d="M572.25 416.308H-195.75V555.077H572.25V416.308Z"/>
</mask>
<path d="M572.25 416.974H-195.75V415.641H572.25V416.974Z" fill="white" fill-opacity="0.05" mask="url(#path-7-inside-4_1927_1885)"/>
<mask id="path-9-inside-5_1927_1885" fill="white">
<path d="M572.25 555.077H-195.75V693.846H572.25V555.077Z"/>
</mask>
<path d="M572.25 555.744H-195.75V554.41H572.25V555.744Z" fill="white" fill-opacity="0.05" mask="url(#path-9-inside-5_1927_1885)"/>
<mask id="path-11-inside-6_1927_1885" fill="white">
<path d="M572.25 693.846H-195.75V832.615H572.25V693.846Z"/>
</mask>
<path d="M572.25 694.512H-195.75V693.179H572.25V694.512Z" fill="white" fill-opacity="0.05" mask="url(#path-11-inside-6_1927_1885)"/>
<mask id="path-13-inside-7_1927_1885" fill="white">
<path d="M572.25 832.615H-195.75V971.384H572.25V832.615Z"/>
</mask>
<path d="M572.25 833.282H-195.75V831.949H572.25V833.282ZM-195.75 970.718H572.25V972.051H-195.75V970.718Z" fill="white" fill-opacity="0.05" mask="url(#path-13-inside-7_1927_1885)"/>
<mask id="path-15-inside-8_1927_1885" fill="white">
<path d="M572.25 971.385H-195.75V1110.15H572.25V971.385Z"/>
</mask>
<path d="M572.25 972.051H-195.75V970.718H572.25V972.051ZM-195.75 1109.49H572.25V1110.82H-195.75V1109.49Z" fill="white" fill-opacity="0.05" mask="url(#path-15-inside-8_1927_1885)"/>
<mask id="path-17-inside-9_1927_1885" fill="white">
<path d="M418.65 0H341.85V1795H418.65V0Z"/>
</mask>
<path d="M417.984 1795V0H419.317V1795H417.984Z" fill="white" fill-opacity="0.05" mask="url(#path-17-inside-9_1927_1885)"/>
<mask id="path-19-inside-10_1927_1885" fill="white">
<path d="M341.85 0H265.05V1795H341.85V0Z"/>
</mask>
<path d="M341.183 1795V0H342.516V1795H341.183Z" fill="white" fill-opacity="0.05" mask="url(#path-19-inside-10_1927_1885)"/>
<mask id="path-21-inside-11_1927_1885" fill="white">
<path d="M265.05 0H188.25V1795H265.05V0Z"/>
</mask>
<path d="M264.383 1795V0H265.716V1795H264.383Z" fill="white" fill-opacity="0.05" mask="url(#path-21-inside-11_1927_1885)"/>
<mask id="path-23-inside-12_1927_1885" fill="white">
<path d="M188.25 0H111.45V1795H188.25V0Z"/>
</mask>
<path d="M187.583 1795V0H188.917V1795H187.583Z" fill="white" fill-opacity="0.05" mask="url(#path-23-inside-12_1927_1885)"/>
<mask id="path-25-inside-13_1927_1885" fill="white">
<path d="M111.45 0H34.6502V1795H111.45V0Z"/>
</mask>
<path d="M110.784 1795V0H112.117V1795H110.784Z" fill="white" fill-opacity="0.05" mask="url(#path-25-inside-13_1927_1885)"/>
<mask id="path-27-inside-14_1927_1885" fill="white">
<path d="M34.6504 0H-42.1496V1795H34.6504V0Z"/>
</mask>
<path d="M33.9837 1795V0H35.3171V1795H33.9837Z" fill="white" fill-opacity="0.05" mask="url(#path-27-inside-14_1927_1885)"/>
<rect width="768" height="142.667" transform="matrix(-1 0 0 1 571.75 0)" fill="url(#paint0_linear_1927_1885)"/>
<rect x="571.75" y="1007.33" width="768" height="142.667" transform="rotate(180 571.75 1007.33)" fill="url(#paint1_linear_1927_1885)"/>
<rect opacity="0.05" width="76.8" height="144" transform="matrix(-1 0 0 1 417.75 0)" fill="url(#paint2_linear_1927_1885)"/>
<!-- <rect opacity="0.1" width="76.8" height="144" transform="matrix(-1 0 0 1 341.345 0.320312)" fill="url(#paint3_linear_1927_1885)"/>
<g filter="url(#filter0_d_1927_1885)">
<ellipse cx="340.614" cy="144.654" rx="1.33333" ry="1.33" transform="rotate(90 340.614 144.654)" fill="#EE0000"/>
</g>
<g filter="url(#filter1_d_1927_1885)">
<ellipse cx="340.62" cy="144.333" rx="1.33333" ry="1.33" transform="rotate(90 340.62 144.333)" fill="#EE0000"/>
</g> -->
</g>
<defs>
<filter id="filter0_d_1927_1885" x="335.284" y="139.32" width="10.6602" height="10.667" filterUnits="userSpaceOnUse" color-interpolation-filters="sRGB">
<feFlood flood-opacity="0" result="BackgroundImageFix"/>
<feColorMatrix in="SourceAlpha" type="matrix" values="0 0 0 0 0 0 0 0 0 0 0 0 0 0 0 0 0 0 127 0" result="hardAlpha"/>
<feOffset/>
<feGaussianBlur stdDeviation="2"/>
<feComposite in2="hardAlpha" operator="out"/>
<feColorMatrix type="matrix" values="0 0 0 0 1 0 0 0 0 0.268571 0 0 0 0 0.268571 0 0 0 1 0"/>
<feBlend mode="normal" in2="BackgroundImageFix" result="effect1_dropShadow_1927_1885"/>
<feBlend mode="normal" in="SourceGraphic" in2="effect1_dropShadow_1927_1885" result="shape"/>
</filter>
<filter id="filter1_d_1927_1885" x="335.29" y="139" width="10.6602" height="10.667" filterUnits="userSpaceOnUse" color-interpolation-filters="sRGB">
<feFlood flood-opacity="0" result="BackgroundImageFix"/>
<feColorMatrix in="SourceAlpha" type="matrix" values="0 0 0 0 0 0 0 0 0 0 0 0 0 0 0 0 0 0 127 0" result="hardAlpha"/>
<feOffset/>
<feGaussianBlur stdDeviation="2"/>
<feComposite in2="hardAlpha" operator="out"/>
<feColorMatrix type="matrix" values="0 0 0 0 1 0 0 0 0 0.268571 0 0 0 0 0.268571 0 0 0 1 0"/>
<feBlend mode="normal" in2="BackgroundImageFix" result="effect1_dropShadow_1927_1885"/>
<feBlend mode="normal" in="SourceGraphic" in2="effect1_dropShadow_1927_1885" result="shape"/>
</filter>
<linearGradient id="paint0_linear_1927_1885" x1="384" y1="0" x2="384" y2="142.667" gradientUnits="userSpaceOnUse">
<stop/>
<stop offset="1" stop-opacity="0"/>
</linearGradient>
<linearGradient id="paint1_linear_1927_1885" x1="955.75" y1="1007.33" x2="955.75" y2="1150" gradientUnits="userSpaceOnUse">
<stop/>
<stop offset="1" stop-opacity="0"/>
</linearGradient>
<linearGradient id="paint2_linear_1927_1885" x1="38.4" y1="0" x2="38.4" y2="144" gradientUnits="userSpaceOnUse">
<stop stop-color="#EE0000" stop-opacity="0"/>
<stop offset="1" stop-color="#EE0000" stop-opacity="0.4"/>
</linearGradient>
<linearGradient id="paint3_linear_1927_1885" x1="38.4" y1="0" x2="38.4" y2="144" gradientUnits="userSpaceOnUse">
<stop stop-color="#EE0000" stop-opacity="0"/>
<stop offset="1" stop-color="#EE0000" stop-opacity="0.93"/>
</linearGradient>
<clipPath id="clip0_1927_1885">
<rect width="375" height="1007.33" fill="white"/>
</clipPath>
</defs>
</svg>
