<svg width="769" height="1009" viewBox="0 0 769 1009" fill="none" xmlns="http://www.w3.org/2000/svg">
<mask id="path-1-inside-1_1817_1486" fill="white">
<path d="M768.557 0.916504H0.556641V144.536H768.557V0.916504Z"/>
</mask>
<path d="M768.557 1.58317H0.556641V0.249837H768.557V1.58317Z" fill="white" fill-opacity="0.05" mask="url(#path-1-inside-1_1817_1486)"/>
<mask id="path-3-inside-2_1817_1486" fill="white">
<path d="M768.557 144.536H0.556641V288.155H768.557V144.536Z"/>
</mask>
<path d="M768.557 145.202H0.556641V143.869H768.557V145.202Z" fill="white" fill-opacity="0.05" mask="url(#path-3-inside-2_1817_1486)"/>
<mask id="path-5-inside-3_1817_1486" fill="white">
<path d="M768.557 288.155H0.556641V431.774H768.557V288.155Z"/>
</mask>
<path d="M768.557 288.821H0.556641V287.488H768.557V288.821Z" fill="white" fill-opacity="0.05" mask="url(#path-5-inside-3_1817_1486)"/>
<mask id="path-7-inside-4_1817_1486" fill="white">
<path d="M768.557 431.773H0.556641V575.392H768.557V431.773Z"/>
</mask>
<path d="M768.557 432.44H0.556641V431.107H768.557V432.44Z" fill="white" fill-opacity="0.05" mask="url(#path-7-inside-4_1817_1486)"/>
<mask id="path-9-inside-5_1817_1486" fill="white">
<path d="M768.557 575.393H0.556641V719.012H768.557V575.393Z"/>
</mask>
<path d="M768.557 576.059H0.556641V574.726H768.557V576.059Z" fill="white" fill-opacity="0.05" mask="url(#path-9-inside-5_1817_1486)"/>
<mask id="path-11-inside-6_1817_1486" fill="white">
<path d="M768.557 719.012H0.556641V862.631H768.557V719.012Z"/>
</mask>
<path d="M768.557 719.678H0.556641V718.345H768.557V719.678Z" fill="white" fill-opacity="0.05" mask="url(#path-11-inside-6_1817_1486)"/>
<mask id="path-13-inside-7_1817_1486" fill="white">
<path d="M768.557 862.631H0.556641V1006.25H768.557V862.631Z"/>
</mask>
<path d="M768.557 863.298H0.556641V861.964H768.557V863.298ZM0.556641 1005.58H768.557V1006.92H0.556641V1005.58Z" fill="white" fill-opacity="0.05" mask="url(#path-13-inside-7_1817_1486)"/>
<mask id="path-15-inside-8_1817_1486" fill="white">
<path d="M768.557 0.916504H691.757V1006.25H768.557V0.916504Z"/>
</mask>
<path d="M767.89 1006.25V0.916504H769.223V1006.25H767.89Z" fill="white" fill-opacity="0.05" mask="url(#path-15-inside-8_1817_1486)"/>
<mask id="path-17-inside-9_1817_1486" fill="white">
<path d="M691.757 0.916504H614.957V1006.25H691.757V0.916504Z"/>
</mask>
<path d="M691.09 1006.25V0.916504H692.424V1006.25H691.09Z" fill="white" fill-opacity="0.05" mask="url(#path-17-inside-9_1817_1486)"/>
<mask id="path-19-inside-10_1817_1486" fill="white">
<path d="M614.957 0.916504H538.157V1006.25H614.957V0.916504Z"/>
</mask>
<path d="M614.29 1006.25V0.916504H615.623V1006.25H614.29Z" fill="white" fill-opacity="0.05" mask="url(#path-19-inside-10_1817_1486)"/>
<mask id="path-21-inside-11_1817_1486" fill="white">
<path d="M538.157 0.916504H461.357V1006.25H538.157V0.916504Z"/>
</mask>
<path d="M537.49 1006.25V0.916504H538.823V1006.25H537.49Z" fill="white" fill-opacity="0.05" mask="url(#path-21-inside-11_1817_1486)"/>
<mask id="path-23-inside-12_1817_1486" fill="white">
<path d="M461.356 0.916504H384.556V1006.25H461.356V0.916504Z"/>
</mask>
<path d="M460.69 1006.25V0.916504H462.023V1006.25H460.69Z" fill="white" fill-opacity="0.05" mask="url(#path-23-inside-12_1817_1486)"/>
<mask id="path-25-inside-13_1817_1486" fill="white">
<path d="M384.557 0.916504H307.757V1006.25H384.557V0.916504Z"/>
</mask>
<path d="M383.89 1006.25V0.916504H385.223V1006.25H383.89Z" fill="white" fill-opacity="0.05" mask="url(#path-25-inside-13_1817_1486)"/>
<mask id="path-27-inside-14_1817_1486" fill="white">
<path d="M307.757 0.916504H230.957V1006.25H307.757V0.916504Z"/>
</mask>
<path d="M307.09 1006.25V0.916504H308.424V1006.25H307.09Z" fill="white" fill-opacity="0.05" mask="url(#path-27-inside-14_1817_1486)"/>
<mask id="path-29-inside-15_1817_1486" fill="white">
<path d="M230.957 0.916504H154.157V1006.25H230.957V0.916504Z"/>
</mask>
<path d="M230.29 1006.25V0.916504H231.623V1006.25H230.29Z" fill="white" fill-opacity="0.05" mask="url(#path-29-inside-15_1817_1486)"/>
<mask id="path-31-inside-16_1817_1486" fill="white">
<path d="M154.157 0.916504H77.3567V1006.25H154.157V0.916504Z"/>
</mask>
<path d="M153.49 1006.25V0.916504H154.823V1006.25H153.49Z" fill="white" fill-opacity="0.05" mask="url(#path-31-inside-16_1817_1486)"/>
<mask id="path-33-inside-17_1817_1486" fill="white">
<path d="M77.3564 0.916504H0.556442V1006.25H77.3564V0.916504Z"/>
</mask>
<path d="M1.22311 0.916504V1006.25H-0.110222V0.916504H1.22311ZM76.6898 1006.25V0.916504H78.0231V1006.25H76.6898Z" fill="white" fill-opacity="0.05" mask="url(#path-33-inside-17_1817_1486)"/>
<rect width="76.8" height="1005.33" transform="matrix(-1 0 0 1 768.557 0.916504)" fill="url(#paint0_linear_1817_1486)"/>
<rect x="0.556641" y="0.916504" width="76.8" height="1005.33" fill="url(#paint1_linear_1817_1486)"/>
<rect width="768" height="142.667" transform="matrix(-1 0 0 1 768.557 0.916504)" fill="url(#paint2_linear_1817_1486)"/>
<rect x="768.557" y="1008.25" width="768" height="142.667" transform="rotate(180 768.557 1008.25)" fill="url(#paint3_linear_1817_1486)"/>
<!-- <rect opacity="0.1" width="76.8" height="144" transform="matrix(-1 0 0 1 230.957 144.25)" fill="url(#paint4_linear_1817_1486)"/>
<rect opacity="0.05" width="76.8" height="144" transform="matrix(-1 0 0 1 614.557 0.916504)" fill="url(#paint5_linear_1817_1486)"/>
<g filter="url(#filter0_d_1817_1486)">
<ellipse cx="230.757" cy="288.583" rx="1.33333" ry="0.8" transform="rotate(90 230.757 288.583)" fill="#EE0000"/>
</g>
<g filter="url(#filter1_d_1817_1486)">
<ellipse cx="537.957" cy="145.25" rx="1.33333" ry="0.8" transform="rotate(90 537.957 145.25)" fill="#EE0000"/>
</g>
<path d="M614.756 412.917V288.25" stroke="url(#paint6_linear_1817_1486)" stroke-width="0.666667"/>
<g filter="url(#filter2_d_1817_1486)">
<ellipse cx="614.757" cy="288.25" rx="1.33333" ry="0.8" transform="rotate(-90 614.757 288.25)" fill="#8A0000"/>
</g>
<path d="M153.756 269.583L153.756 144.916" stroke="url(#paint7_linear_1817_1486)" stroke-width="0.666667"/>
<g filter="url(#filter3_d_1817_1486)">
<ellipse cx="153.757" cy="144.916" rx="1.33333" ry="0.8" transform="rotate(-90 153.757 144.916)" fill="#8A0000"/>
</g> -->
<defs>
<filter id="filter0_d_1817_1486" x="225.957" y="283.25" width="9.6001" height="10.6665" filterUnits="userSpaceOnUse" color-interpolation-filters="sRGB">
<feFlood flood-opacity="0" result="BackgroundImageFix"/>
<feColorMatrix in="SourceAlpha" type="matrix" values="0 0 0 0 0 0 0 0 0 0 0 0 0 0 0 0 0 0 127 0" result="hardAlpha"/>
<feOffset/>
<feGaussianBlur stdDeviation="2"/>
<feComposite in2="hardAlpha" operator="out"/>
<feColorMatrix type="matrix" values="0 0 0 0 1 0 0 0 0 0.268571 0 0 0 0 0.268571 0 0 0 1 0"/>
<feBlend mode="normal" in2="BackgroundImageFix" result="effect1_dropShadow_1817_1486"/>
<feBlend mode="normal" in="SourceGraphic" in2="effect1_dropShadow_1817_1486" result="shape"/>
</filter>
<filter id="filter1_d_1817_1486" x="533.157" y="139.917" width="9.6001" height="10.6665" filterUnits="userSpaceOnUse" color-interpolation-filters="sRGB">
<feFlood flood-opacity="0" result="BackgroundImageFix"/>
<feColorMatrix in="SourceAlpha" type="matrix" values="0 0 0 0 0 0 0 0 0 0 0 0 0 0 0 0 0 0 127 0" result="hardAlpha"/>
<feOffset/>
<feGaussianBlur stdDeviation="2"/>
<feComposite in2="hardAlpha" operator="out"/>
<feColorMatrix type="matrix" values="0 0 0 0 1 0 0 0 0 0.268571 0 0 0 0 0.268571 0 0 0 1 0"/>
<feBlend mode="normal" in2="BackgroundImageFix" result="effect1_dropShadow_1817_1486"/>
<feBlend mode="normal" in="SourceGraphic" in2="effect1_dropShadow_1817_1486" result="shape"/>
</filter>
<filter id="filter2_d_1817_1486" x="609.957" y="282.917" width="9.6001" height="10.6665" filterUnits="userSpaceOnUse" color-interpolation-filters="sRGB">
<feFlood flood-opacity="0" result="BackgroundImageFix"/>
<feColorMatrix in="SourceAlpha" type="matrix" values="0 0 0 0 0 0 0 0 0 0 0 0 0 0 0 0 0 0 127 0" result="hardAlpha"/>
<feOffset/>
<feGaussianBlur stdDeviation="2"/>
<feComposite in2="hardAlpha" operator="out"/>
<feColorMatrix type="matrix" values="0 0 0 0 1 0 0 0 0 0.268571 0 0 0 0 0.268571 0 0 0 1 0"/>
<feBlend mode="normal" in2="BackgroundImageFix" result="effect1_dropShadow_1817_1486"/>
<feBlend mode="normal" in="SourceGraphic" in2="effect1_dropShadow_1817_1486" result="shape"/>
</filter>
<filter id="filter3_d_1817_1486" x="148.957" y="139.583" width="9.6001" height="10.6665" filterUnits="userSpaceOnUse" color-interpolation-filters="sRGB">
<feFlood flood-opacity="0" result="BackgroundImageFix"/>
<feColorMatrix in="SourceAlpha" type="matrix" values="0 0 0 0 0 0 0 0 0 0 0 0 0 0 0 0 0 0 127 0" result="hardAlpha"/>
<feOffset/>
<feGaussianBlur stdDeviation="2"/>
<feComposite in2="hardAlpha" operator="out"/>
<feColorMatrix type="matrix" values="0 0 0 0 1 0 0 0 0 0.268571 0 0 0 0 0.268571 0 0 0 1 0"/>
<feBlend mode="normal" in2="BackgroundImageFix" result="effect1_dropShadow_1817_1486"/>
<feBlend mode="normal" in="SourceGraphic" in2="effect1_dropShadow_1817_1486" result="shape"/>
</filter>
<linearGradient id="paint0_linear_1817_1486" x1="0" y1="502.667" x2="76.8" y2="502.667" gradientUnits="userSpaceOnUse">
<stop/>
<stop offset="1" stop-opacity="0"/>
</linearGradient>
<linearGradient id="paint1_linear_1817_1486" x1="0.556641" y1="503.583" x2="77.3566" y2="503.583" gradientUnits="userSpaceOnUse">
<stop/>
<stop offset="1" stop-opacity="0"/>
</linearGradient>
<linearGradient id="paint2_linear_1817_1486" x1="384" y1="0" x2="384" y2="142.667" gradientUnits="userSpaceOnUse">
<stop/>
<stop offset="1" stop-opacity="0"/>
</linearGradient>
<linearGradient id="paint3_linear_1817_1486" x1="1152.56" y1="1008.25" x2="1152.56" y2="1150.92" gradientUnits="userSpaceOnUse">
<stop/>
<stop offset="1" stop-opacity="0"/>
</linearGradient>
<linearGradient id="paint4_linear_1817_1486" x1="38.4" y1="0" x2="38.4" y2="144" gradientUnits="userSpaceOnUse">
<stop stop-color="#EE0000" stop-opacity="0"/>
<stop offset="1" stop-color="#EE0000" stop-opacity="0.5"/>
</linearGradient>
<linearGradient id="paint5_linear_1817_1486" x1="38.4" y1="0" x2="38.4" y2="144" gradientUnits="userSpaceOnUse">
<stop stop-color="#EE0000" stop-opacity="0"/>
<stop offset="1" stop-color="#EE0000" stop-opacity="0.4"/>
</linearGradient>
<linearGradient id="paint6_linear_1817_1486" x1="614.756" y1="288.25" x2="614.756" y2="416.583" gradientUnits="userSpaceOnUse">
<stop stop-color="#8A0000"/>
<stop offset="1" stop-color="#EE0000" stop-opacity="0"/>
</linearGradient>
<linearGradient id="paint7_linear_1817_1486" x1="153.756" y1="144.916" x2="153.756" y2="273.25" gradientUnits="userSpaceOnUse">
<stop stop-color="#8A0000"/>
<stop offset="1" stop-color="#EE0000" stop-opacity="0"/>
</linearGradient>
</defs>
</svg>
