<svg width="1920" height="1161" viewBox="0 0 1920 1161" fill="none" xmlns="http://www.w3.org/2000/svg">
<g opacity="0.05">
<path d="M1728.81 1.01685V1509.02" stroke="white"/>
<path d="M1536.81 1.01685V1509.02" stroke="white"/>
<path d="M1344.81 1.01685V1509.02" stroke="white"/>
<path d="M1152.81 1.01685V1509.02" stroke="white"/>
<path d="M960.812 1.01685V1509.02" stroke="white"/>
<path d="M768.812 1.01685V1509.02" stroke="white"/>
<path d="M576.812 1.01685V1509.02" stroke="white"/>
<path d="M384.812 1.01685V1509.02" stroke="white"/>
<path d="M192.812 1.01685V1509.02" stroke="white"/>
<path d="M0.8125 1.01685V1509.02" stroke="white"/>
<path d="M1920.81 216.445L0.812158 216.445" stroke="white"/>
<path d="M1920.81 1.01685L0.812158 1.01701" stroke="white"/>
<path d="M1920.81 431.874L0.812158 431.874" stroke="white"/>
<path d="M1920.81 647.303L0.812158 647.303" stroke="white"/>
<path d="M1920.81 862.731L0.812158 862.731" stroke="white"/>
<path d="M1920.81 1078.16L0.812158 1078.16" stroke="white"/>
</g>
<rect x="0.556152" y="0.916992" width="192" height="1160" fill="url(#paint0_linear_177_2534)"/>
<rect width="192" height="1160" transform="matrix(-1 0 0 1 1920.56 0.916992)" fill="url(#paint1_linear_177_2534)"/>
<!-- <rect opacity="0.1" x="1344.56" y="215.917" width="192" height="216" fill="url(#paint2_linear_177_2534)"/>
<rect opacity="0.1" x="1536.56" y="430.917" width="192" height="216" fill="url(#paint3_linear_177_2534)"/>
<rect opacity="0.05" x="385.556" y="0.916992" width="192" height="216" fill="url(#paint4_linear_177_2534)"/>
<g filter="url(#filter0_d_177_2534)">
<circle cx="2" cy="2" r="2" transform="matrix(0 1 1 0 1343.06 430.417)" fill="#EE0000"/>
</g>
<path d="M1537.56 835.917V648.917" stroke="url(#paint5_linear_177_2534)"/>
<g filter="url(#filter1_d_177_2534)">
<circle cx="2" cy="2" r="2" transform="matrix(0 -1 -1 0 1539.56 650.917)" fill="#8A0000"/>
</g> -->
<defs>
<filter id="filter0_d_177_2534" x="1337.06" y="424.417" width="16" height="16" filterUnits="userSpaceOnUse" color-interpolation-filters="sRGB">
<feFlood flood-opacity="0" result="BackgroundImageFix"/>
<feColorMatrix in="SourceAlpha" type="matrix" values="0 0 0 0 0 0 0 0 0 0 0 0 0 0 0 0 0 0 127 0" result="hardAlpha"/>
<feOffset/>
<feGaussianBlur stdDeviation="3"/>
<feComposite in2="hardAlpha" operator="out"/>
<feColorMatrix type="matrix" values="0 0 0 0 1 0 0 0 0 0.268571 0 0 0 0 0.268571 0 0 0 1 0"/>
<feBlend mode="normal" in2="BackgroundImageFix" result="effect1_dropShadow_177_2534"/>
<feBlend mode="normal" in="SourceGraphic" in2="effect1_dropShadow_177_2534" result="shape"/>
</filter>
<filter id="filter1_d_177_2534" x="1529.56" y="640.917" width="16" height="16" filterUnits="userSpaceOnUse" color-interpolation-filters="sRGB">
<feFlood flood-opacity="0" result="BackgroundImageFix"/>
<feColorMatrix in="SourceAlpha" type="matrix" values="0 0 0 0 0 0 0 0 0 0 0 0 0 0 0 0 0 0 127 0" result="hardAlpha"/>
<feOffset/>
<feGaussianBlur stdDeviation="3"/>
<feComposite in2="hardAlpha" operator="out"/>
<feColorMatrix type="matrix" values="0 0 0 0 1 0 0 0 0 0.268571 0 0 0 0 0.268571 0 0 0 1 0"/>
<feBlend mode="normal" in2="BackgroundImageFix" result="effect1_dropShadow_177_2534"/>
<feBlend mode="normal" in="SourceGraphic" in2="effect1_dropShadow_177_2534" result="shape"/>
</filter>
<linearGradient id="paint0_linear_177_2534" x1="0.556152" y1="580.917" x2="192.556" y2="580.917" gradientUnits="userSpaceOnUse">
<stop/>
<stop offset="1" stop-opacity="0"/>
</linearGradient>
<linearGradient id="paint1_linear_177_2534" x1="0" y1="580" x2="192" y2="580" gradientUnits="userSpaceOnUse">
<stop/>
<stop offset="1" stop-opacity="0"/>
</linearGradient>
<linearGradient id="paint2_linear_177_2534" x1="1440.56" y1="215.917" x2="1440.56" y2="431.917" gradientUnits="userSpaceOnUse">
<stop stop-color="#EE0000" stop-opacity="0"/>
<stop offset="1" stop-color="#EE0000" stop-opacity="0.5"/>
</linearGradient>
<linearGradient id="paint3_linear_177_2534" x1="1632.56" y1="430.917" x2="1632.56" y2="646.917" gradientUnits="userSpaceOnUse">
<stop stop-color="#EE0000" stop-opacity="0"/>
<stop offset="1" stop-color="#EE0000" stop-opacity="0.5"/>
</linearGradient>
<linearGradient id="paint4_linear_177_2534" x1="481.556" y1="0.916992" x2="481.556" y2="216.917" gradientUnits="userSpaceOnUse">
<stop stop-color="#EE0000" stop-opacity="0"/>
<stop offset="1" stop-color="#EE0000" stop-opacity="0.4"/>
</linearGradient>
<linearGradient id="paint5_linear_177_2534" x1="1537.56" y1="648.917" x2="1537.56" y2="841.417" gradientUnits="userSpaceOnUse">
<stop stop-color="#8A0000"/>
<stop offset="1" stop-color="#EE0000" stop-opacity="0"/>
</linearGradient>
</defs>
</svg>
