<svg width="51" height="49" viewBox="0 0 51 49" fill="none" xmlns="http://www.w3.org/2000/svg">
<path fill-rule="evenodd" clip-rule="evenodd" d="M0.321777 0.916992H50.9462V48.917H5.81168L17.3601 42.1764L23.272 44.6558L30.1716 39.9525L36.4841 44.0204L44.8755 37.0449C43.5702 36.6581 43.3561 36.4578 42.8035 35.9191C42.7828 35.9191 36.4012 41.1543 36.4012 41.1543L30.1785 37.1416L23.0234 41.9968L17.0424 39.6417L1.60642 48.8135V48.917H0.321777V0.916992ZM2.27632 24.9448H4.83172C5.47632 24.9494 6.06568 25.0415 6.59978 25.221C7.12467 25.4006 7.55287 25.7045 7.87748 26.1465C8.19978 26.5701 8.36093 27.1387 8.36093 27.8524C8.36093 28.3911 8.25503 28.8607 8.04323 29.2613C7.83143 29.6711 7.54366 29.9727 7.17992 30.1661V30.2075C7.38712 30.3134 7.5805 30.4538 7.76006 30.6288C7.93503 30.7992 8.08927 31.004 8.2228 31.2435C8.34712 31.4737 8.44841 31.7315 8.52668 32.017C8.59114 32.3071 8.62337 32.6133 8.62337 32.9356C8.62337 33.861 8.35402 34.6069 7.81532 35.1733C7.27661 35.7396 6.45704 36.0228 5.35661 36.0228H2.27632V24.9448ZM4.51402 27.1134V29.3511H5.08035C5.42568 29.3511 5.68812 29.2475 5.86078 29.0472C6.04035 28.8538 6.12783 28.573 6.12323 28.2046C6.12323 27.8133 6.01273 27.5324 5.79172 27.362C5.57071 27.1963 5.30596 27.1134 4.99748 27.1134H4.51402ZM4.51402 31.5266V33.8403H5.11489C5.96668 33.8403 6.39258 33.4628 6.39258 32.7076C6.39258 32.2334 6.27748 31.918 6.04726 31.7615C5.82165 31.6049 5.49935 31.5266 5.08035 31.5266H4.51402ZM16.0755 32.1828V24.9586L13.9483 24.9448V31.0017C13.9483 31.895 13.8493 32.5787 13.6513 33.053C13.451 33.5295 13.0366 33.7643 12.4012 33.7643C12.0605 33.7643 11.7958 33.6699 11.607 33.4812C11.4067 33.2947 11.2686 33.0392 11.1857 32.7146C11.1097 32.4038 11.0683 32.0239 11.0683 31.5957V24.9586L8.93417 24.9448V32.3761C8.93417 33.2533 9.0723 33.9784 9.36237 34.5586C9.64554 35.1456 10.0392 35.5738 10.5572 35.857C11.0683 36.1402 11.6622 36.2783 12.346 36.2783C13.0711 36.2783 13.7204 36.1125 14.2798 35.7879C14.8415 35.4656 15.2812 34.9914 15.5989 34.3652C15.9166 33.7482 16.0755 33.0207 16.0755 32.1828ZM20.7926 27.8801C20.5393 27.5716 20.3183 27.3552 20.1296 27.2309C19.9224 27.0927 19.6852 27.0237 19.4182 27.0237C19.2156 27.0237 19.0268 27.1043 18.8519 27.2654C18.6677 27.4266 18.5756 27.6407 18.5756 27.9077C18.5756 28.2807 18.7759 28.5753 19.1765 28.7917C19.5863 29.0174 20.0052 29.2338 20.4334 29.4409C20.8686 29.662 21.2415 30.0073 21.5592 30.4769C21.8769 30.9604 22.0288 31.6579 22.0288 32.5903C22.0288 33.7736 21.7503 34.683 21.1932 35.3184C20.636 35.9584 19.927 36.2784 19.066 36.2784C18.5687 36.2784 18.0875 36.1679 17.6225 35.9468C17.1529 35.7327 16.7385 35.4081 16.3863 34.9661L17.5327 32.8735C17.9011 33.4674 18.3868 33.7644 18.99 33.7644C19.2294 33.7644 19.4596 33.6792 19.6806 33.5089C19.897 33.3431 20.0052 33.0991 20.0052 32.7768C20.0052 32.3946 19.8027 32.093 19.3975 31.872C19.2179 31.7684 19.0107 31.6579 18.769 31.5336L18.4513 31.3748L18.1267 31.1952C17.6939 30.9696 17.3209 30.6243 17.0078 30.1592C16.6993 29.7034 16.5451 29.0197 16.5451 28.108C16.5451 27.4127 16.6786 26.805 16.9457 26.2847C17.2081 25.7736 17.5604 25.373 17.9955 25.0968C18.4191 24.8251 18.8749 24.6893 19.3629 24.6893C19.8096 24.6893 20.2493 24.7998 20.6821 25.0208C21.1241 25.2487 21.5109 25.5664 21.8424 25.9739L20.7926 27.8801ZM24.4737 24.7238L22.3396 25.9117V36.0158L24.4737 36.0227V24.7238ZM32.1676 36.0297L27.2847 30.7463L27.2916 35.9952H25.1437V24.7929L30.0335 30.0625V24.9586H32.1676V36.0297ZM32.7546 36.0228H37.0919V33.6884H34.8887V31.5474H37.0919V29.2199H34.8887V27.2999H37.5201V24.9448H32.7546V36.0228ZM42.0783 27.8801C41.8205 27.5716 41.5972 27.3552 41.4084 27.2309C41.2058 27.0927 40.9687 27.0237 40.6971 27.0237C40.4991 27.0237 40.3103 27.1043 40.1307 27.2654C39.9466 27.4266 39.8545 27.6407 39.8545 27.9077C39.8545 28.2807 40.0547 28.5753 40.4553 28.7917C40.8651 29.0174 41.2841 29.2338 41.7123 29.4409C42.1474 29.662 42.5204 30.0073 42.8381 30.4769C43.1558 30.9604 43.3146 31.6579 43.3146 32.5903C43.3146 33.7736 43.0337 34.683 42.472 35.3184C41.9149 35.9584 41.2058 36.2784 40.3448 36.2784C39.8476 36.2784 39.3641 36.1679 38.9014 35.9468C38.4317 35.7327 38.0173 35.4081 37.6651 34.9661L38.8185 32.8735C39.1822 33.4674 39.6657 33.7644 40.2689 33.7644C40.5083 33.7644 40.7385 33.6792 40.9595 33.5089C41.1805 33.3431 41.2841 33.0945 41.2841 32.7768C41.2841 32.3946 41.0815 32.093 40.6763 31.872C40.4968 31.7707 40.2896 31.6579 40.0547 31.5336L39.7301 31.3748L39.4124 31.1952C38.975 30.9696 38.5998 30.6243 38.2867 30.1592C37.9782 29.7034 37.824 29.0197 37.824 28.108C37.824 27.4104 37.9552 26.8027 38.2245 26.2847C38.487 25.769 38.8369 25.373 39.2743 25.0968C39.6979 24.8251 40.1537 24.6893 40.6418 24.6893C41.0907 24.6893 41.5327 24.7998 41.9609 25.0208C42.4076 25.251 42.7943 25.5687 43.1212 25.9739L42.0783 27.8801ZM46.9889 27.2309C47.1822 27.3552 47.4056 27.5716 47.6588 27.8801L48.7017 25.9739C48.3748 25.5687 47.9903 25.251 47.5483 25.0208C47.1155 24.7998 46.6735 24.6893 46.2222 24.6893C45.7388 24.6893 45.283 24.8251 44.8548 25.0968C44.4174 25.373 44.0674 25.769 43.805 26.2847C43.5379 26.805 43.4044 27.4127 43.4044 28.108C43.4044 29.0197 43.5563 29.7034 43.874 30.1592C44.1825 30.6243 44.5555 30.9696 44.9929 31.1952L45.3175 31.3748L45.6352 31.5336C45.87 31.6579 46.0772 31.7684 46.2568 31.872C46.6643 32.093 46.8645 32.3969 46.8645 32.7768C46.8645 33.0991 46.7563 33.3431 46.5399 33.5089C46.3189 33.6815 46.091 33.7644 45.8493 33.7644C45.2507 33.7644 44.7673 33.4674 44.3989 32.8735L43.2456 34.9661C43.6001 35.4035 44.0122 35.7304 44.4818 35.9468C44.9468 36.1679 45.4303 36.2784 45.9322 36.2784C46.7932 36.2784 47.4999 35.9584 48.0525 35.3184C48.6142 34.683 48.895 33.7736 48.895 32.5903C48.895 31.6579 48.7362 30.9604 48.4254 30.4769C48.1008 30.0073 47.7279 29.662 47.2927 29.4409C46.8645 29.2338 46.4479 29.0174 46.0427 28.7917C45.6421 28.5776 45.4349 28.2807 45.4349 27.9077C45.4349 27.6384 45.5316 27.4312 45.7181 27.2654C45.893 27.1043 46.0795 27.0237 46.2775 27.0237C46.5492 27.0237 46.7863 27.0927 46.9889 27.2309ZM48.9296 23.1006V6.3593H41.6432L39.2674 16.2079H39.226L36.8501 6.3593H17.2565V16.201C16.7661 14.9302 15.7578 14.2051 14.7011 13.839C15.9304 13.1622 16.7454 12.2505 16.7454 10.5584C16.7454 8.84563 15.813 6.3593 11.4412 6.3593H2.33849V23.1006H11.7658C14.1348 23.1006 16.4484 21.9472 17.2565 19.744V23.1006H22.3742V16.7259H27.0499V12.879H22.3673V10.3443H29.5638V23.1006H34.4053V12.361H34.4536L37.3336 23.1006H41.1529L44.0398 12.361H44.0881V23.1006H48.9296ZM10.1635 12.879H7.44929V10.3443H10.1635C11.2133 10.3443 11.9109 10.6482 11.9109 11.4977C11.9109 12.5751 11.234 12.879 10.1635 12.879ZM10.6746 16.0007C11.8832 16.0007 12.4634 16.5394 12.4634 17.5271C12.4634 18.8117 11.5379 19.1156 10.4605 19.1156H7.4631V16.0007H10.6746Z" fill="#5C5C5C"/>
</svg>
