<svg width="144" height="20" viewBox="0 0 144 20" fill="none" xmlns="http://www.w3.org/2000/svg">
<path fill-rule="evenodd" clip-rule="evenodd" d="M0.197754 4.15698H9.82089V7.39554H8.66426C8.06281 7.39554 7.92402 7.62686 7.92402 8.18204V15.5845C7.92402 15.9546 8.24787 16.2784 8.618 16.2784H8.66426H11.4402C11.8565 16.3247 12.2267 15.9546 12.2729 15.5382V15.4919V12.8085H16.1129V19.4707H0.197754V16.2322H1.30812C1.81703 16.2322 2.09462 16.0471 2.09462 15.5382V8.18204C2.09462 7.71939 2.04836 7.4418 1.40065 7.4418H0.197754V4.15698ZM17.7785 4.15698H33.6474V9.10734H29.6686V8.32084C29.6686 7.81192 29.4373 7.4418 28.6508 7.4418H25.1809V10.2177H28.9284V13.1787H25.2271V16.2784H28.8358C29.2522 16.3247 29.6223 16.0008 29.6686 15.5382C29.6686 15.4919 29.6686 15.4457 29.6686 15.3994V14.6129H33.6474V19.517H17.7785V16.2784H18.7038C19.1664 16.2784 19.444 16.0934 19.444 15.6307V8.18204C19.444 7.71939 19.3978 7.39554 18.75 7.39554H17.8247L17.7785 4.15698ZM41.5125 4.15698H57.7052V9.10734H53.7727V8.32084C53.819 7.90445 53.4951 7.53433 53.0325 7.48807C52.9862 7.48807 52.9399 7.48807 52.8937 7.48807H49.285V10.264H52.6161V13.1787H49.285V15.3994C49.285 16.0471 49.5626 16.2784 50.3491 16.2784H51.5982V19.517H41.5125V16.2784H42.8541C43.178 16.3247 43.4556 16.0471 43.5019 15.7232C43.5019 15.677 43.5019 15.677 43.5019 15.6307V8.18204C43.5019 7.71939 43.4556 7.39554 42.8079 7.39554H41.5125V4.15698ZM66.912 8.18204C66.912 7.62686 67.097 7.4418 67.6522 7.4418H68.8551V4.20325H59.2782V7.4418H60.4811C61.1288 7.4418 61.2214 7.71939 61.2214 8.18204V15.5845C61.2214 16.1396 60.8975 16.2784 60.4811 16.2784H59.2782V19.517H68.8551V16.2784H67.6985C67.2358 16.2784 66.912 16.0934 66.912 15.5845V8.18204ZM82.9659 4.15698H86.3433V9.56999H82.9197C82.2257 8.13578 80.7915 7.21048 79.2185 7.21048C77.1366 7.21048 75.5173 8.69096 75.5173 11.4669C75.5173 16.0934 78.1081 16.556 79.2185 16.556C81.5317 16.556 82.0406 14.8905 82.0406 14.2428H79.9125V11.4206H87.2686L87.2223 13.3637C87.2223 13.7801 86.8059 19.4707 78.5708 19.4707C72.6488 19.4707 69.5953 16.371 69.5953 11.5131C69.5953 8.27457 72.1399 4.15698 78.1544 4.15698C81.5317 4.15698 82.9659 5.31361 82.9659 5.31361V4.15698ZM105.219 16.2322C104.525 16.2322 104.34 15.6307 103.97 14.7054L99.899 4.15698H94.0233L89.8594 15.4919C89.6744 15.9546 89.1655 16.2784 88.6565 16.2322H87.8238V19.4707H95.0411V16.371H94.0233C93.5606 16.371 93.5144 16.0471 93.6532 15.5845L94.1158 14.1965H98.4647L98.9274 15.677C99.1124 16.1859 98.5573 16.371 98.2334 16.371H97.3544V19.4707H106.006V16.2322H105.219ZM94.8098 12.1146L96.2903 7.62686H96.3365L97.817 12.1146H94.8098ZM125.576 16.2322C124.975 16.2322 124.882 15.9546 124.604 15.5382C124.281 15.1681 122.476 12.2996 122.476 12.2996C122.476 12.2996 125.16 11.5594 125.16 8.69096C125.16 5.82252 122.754 4.85096 121.736 4.5271C120.718 4.29578 118.498 4.15698 117.942 4.15698H107.486V7.39554H108.504C109.152 7.39554 109.244 7.76566 109.244 8.18204V15.4457C109.244 15.7695 109.198 16.2322 108.504 16.2322H107.486V19.4707H116.693V16.2322H115.768C115.12 16.2322 115.028 15.862 115.028 15.4919V13.0399H117.11L120.811 19.517H126.64V16.2322H125.576ZM117.11 10.3565H115.028V7.25674H117.341C117.942 7.25674 119.145 7.48807 119.145 8.87602C119.145 9.89385 118.359 10.4028 117.11 10.3565ZM135.06 4.15698C128.676 4.15698 126.409 8.22831 126.409 11.6982C126.409 16.2322 129.647 19.4707 135.06 19.4707C139.964 19.4707 143.758 17.0649 143.758 11.8832C143.758 6.93289 140.057 4.15698 135.06 4.15698ZM135.292 16.5098C133.904 16.5098 132.377 15.677 132.377 11.4206C132.377 8.78349 133.395 7.16421 135.153 7.16421C136.772 7.16421 137.929 8.27457 137.929 11.6982C137.929 15.4457 136.726 16.5098 135.292 16.5098Z" fill="#5C5C5C"/>
<path fill-rule="evenodd" clip-rule="evenodd" d="M52.9395 15.2606C54.42 16.5098 55.7616 17.944 56.872 19.517L56.2706 19.0544C54.7438 17.3888 54.6513 17.4351 53.3559 16.2785C52.5231 15.5382 51.5978 14.8905 50.58 14.3816L49.2845 13.8264V13.1324H50.8575C51.4127 13.7801 52.1992 14.5667 52.9395 15.2606ZM42.9925 4.15702C45.9535 5.40617 47.1563 8.32087 47.1563 8.32087V13.1324C47.1563 13.1324 44.7506 12.6235 41.6971 10.5416L43.1313 10.6341C43.1313 10.6341 39.8002 8.92232 38.7824 7.71943C39.245 7.90449 39.7077 7.99702 40.1703 8.08955C40.1703 8.08955 37.672 6.74786 36.793 3.09292C36.978 3.37051 37.2556 3.55557 37.5332 3.69437C37.1631 2.584 36.978 1.47364 36.9318 0.317017C36.9318 0.317017 39.7077 3.50931 42.9462 4.48087C43.0388 4.48087 42.9462 4.15702 42.9925 4.15702Z" fill="#323232"/>
</svg>
