<svg width="113" height="25" viewBox="0 0 113 25" fill="none" xmlns="http://www.w3.org/2000/svg">
<path d="M103.633 17.7577V10.5118H101.434V6.85648H103.633V3.16882H108.485V6.85648H112.044V10.5118H108.485V17.4989C108.485 19.181 109.165 20.2161 110.491 20.2161C110.976 20.2161 111.591 20.2161 112.27 20.0867L112.464 23.8067C111.623 23.9685 110.75 24.0008 110.006 24.0008C105.542 24.0008 103.633 21.5747 103.633 17.7577Z" fill="#5C5C5C"/>
<path d="M100.729 20.022L101.182 23.5479C99.985 23.9037 96.8472 24.3243 94.2918 24.3243C88.2104 24.3243 84.7168 21.8011 84.7168 15.6874V15.1375C84.7168 9.96183 87.4664 6.53296 93.1272 6.53296C97.9794 6.53296 100.923 9.08844 101.052 14.9757V17.0783H89.9571C90.4424 19.7632 92.3185 20.5396 95.521 20.5396C97.6883 20.5396 99.6615 20.2161 100.729 20.022ZM93.1919 10.3177C91.0893 10.3177 90.0542 11.5145 89.8924 14.0377H96.3944C96.362 11.5469 95.2622 10.3177 93.1919 10.3177Z" fill="#5C5C5C"/>
<path d="M83.9118 6.85653V10.4471H82.262C81.1945 12.3557 78.8331 14.0701 77.054 15.0405C77.5392 15.3964 78.0568 15.8169 78.5097 16.2374C79.5125 17.2078 80.7093 18.4371 81.7121 19.731C82.1973 20.3779 82.5532 20.5073 82.9737 20.5073C83.3295 20.5073 83.5883 20.4426 84.1705 20.2809L84.8822 23.5157C83.9441 24.0332 82.7796 24.2597 81.4533 24.2597C79.9977 24.2597 79.1566 23.6451 78.1862 22.5129C77.3128 21.3807 76.3747 20.2162 75.3072 19.1164C74.4985 18.2753 73.3017 17.1108 72.1372 16.5285V20.4103H74.4015V24.0009H64.9883V20.4103H67.2526V3.97757H65.053V0.386963H72.1372V13.5202C73.5605 13.2937 75.6307 12.0322 77.2805 10.4471H75.5984V6.85653H83.9118Z" fill="#5C5C5C"/>
<path d="M59.997 20.4102V24.0008H50.7778V20.4102H52.9451V10.447H50.7778V6.85644H57.8297V8.02096C59.253 7.11522 60.8057 6.53296 62.6171 6.53296C63.717 6.53296 64.558 6.72705 65.1726 7.05052V12.8731H61.0968V10.3823C60.9997 10.35 60.838 10.3177 60.6116 10.3177C59.7058 10.3177 58.5413 10.8029 57.8297 11.4498V20.4102H59.997Z" fill="#5C5C5C"/>
<path d="M37.0862 14.3935H41.8089V12.7437C41.8089 11.0617 41.0649 10.3177 38.9947 10.3177C38.2183 10.3177 36.9891 10.4147 35.7599 10.5441V12.5173H31.9428V7.30931C33.2368 6.95348 36.7303 6.53296 39.0917 6.53296C44.1056 6.53296 46.6935 8.34444 46.6935 12.7114V19.3427C46.7258 20.1837 46.9522 20.4749 47.5992 20.4749C47.7933 20.4749 48.1168 20.4102 48.6667 20.3131L49.3136 23.5479C48.5696 23.8714 47.2434 24.2272 46.0142 24.2272C44.5909 24.2272 43.4263 23.9684 42.6823 22.9657C40.8708 23.839 38.9623 24.3243 37.2155 24.3243C34.0131 24.3243 31.0371 23.2891 31.0371 19.7309V19.0516C31.0371 16.0756 33.3015 14.3935 37.0862 14.3935ZM36.1481 19.181V19.3427C36.1481 20.6043 37.1508 21.0248 38.5742 21.0248C40.0622 21.0248 41.0973 20.5719 41.8089 20.0543V17.4342H39.1564C37.0862 17.4342 36.1481 17.9194 36.1481 19.181Z" fill="#5C5C5C"/>
<path d="M7.51948 6.85644V8.27974C9.39565 7.17991 11.4012 6.53296 13.1803 6.53296C14.7977 6.53296 15.9299 7.11522 16.7063 8.118C18.5824 7.11522 20.588 6.53296 22.3995 6.53296C26.443 6.53296 28.1897 8.862 28.1897 12.5497V19.1163C28.1897 20.119 28.3515 20.4749 29.0308 20.4749C29.2249 20.4749 29.5483 20.4102 30.0659 20.3131V23.8022C29.3316 24.0336 28.3609 24.2272 27.4781 24.2272C24.955 24.2272 23.3052 23.3862 23.3052 19.1486V13.5201C23.3052 11.7086 22.5289 10.5441 20.7497 10.5441C19.8117 10.5441 18.5177 10.997 17.8061 11.4175C17.8384 11.838 17.8708 12.2585 17.8708 12.7114V20.4102H20.1351V24.0008H12.9863V13.1966C12.9863 11.5792 12.307 10.5441 10.6249 10.5441C9.65443 10.5441 8.23113 11.0293 7.51948 11.5792V20.4102H9.68678V24.0008H0.5V20.4102H2.63496V10.447H0.5V6.85644H7.51948Z" fill="#5C5C5C"/>
</svg>
