<svg width="35" height="61" viewBox="0 0 35 61" fill="none" xmlns="http://www.w3.org/2000/svg">
<path fill-rule="evenodd" clip-rule="evenodd" d="M33.8969 0.916992H33.9693C34.5584 0.928472 34.8617 1.25398 34.8617 1.89741C34.8617 7.92279 34.8616 12.7293 34.8614 16.8338H11.8946L10.118 36.3351L17.7481 37.3687C18.7349 36.2057 20.8541 35.5623 22.2237 35.5623C23.5072 35.5623 26.6247 36.2949 26.6247 40.3145C26.6247 42.7584 24.6245 44.5399 21.9049 44.5399C19.6217 44.5399 17.858 43.1243 17.5381 40.9487L8.58251 40.9517C9.94509 48.8785 13.1396 51.2978 21.6612 51.2978C27.357 51.2978 30.5707 50.2927 33.696 46.2978C34.2652 45.57 34.6284 44.6966 34.8595 43.7668C34.8593 48.1373 34.8591 53.2952 34.8591 59.9376C34.8591 60.7579 34.3638 61.0653 33.4044 60.8508L1.73222 54.0076C0.574418 53.7541 0.138184 53.276 0.138184 51.9806L0.140405 9.8546C0.140405 8.55905 0.574603 8.08078 1.73296 7.82638L33.4068 0.981242C33.586 0.941989 33.7499 0.92014 33.8969 0.916992ZM34.86 36.1946C34.8601 34.3928 34.8603 32.6746 34.8604 30.9562C34.8606 28.9923 34.8608 27.0281 34.8609 24.9384H18.9234L18.8357 29.4803C19.7623 29.0165 20.0982 28.9328 20.8965 28.7338C20.9793 28.7131 21.0672 28.6912 21.1613 28.6675C22.1609 28.4155 23.1454 28.2855 24.122 28.2855C27.4287 28.2855 30.1126 29.3422 32.1658 31.4552C33.488 32.8108 34.3861 34.3906 34.86 36.1946ZM30.7155 12.1125C30.7632 11.7137 30.8195 11.2431 31.6659 11.2431C32.3452 11.2431 32.4371 11.6669 32.4371 12.1295H30.7134L30.7155 12.1125ZM17.3054 13.8585C17.0717 13.8585 16.754 13.7979 16.754 13.3867C16.754 12.8894 17.1321 12.8369 17.5296 12.7817C17.7186 12.7554 17.912 12.7285 18.0712 12.6529C18.1084 12.6392 18.1525 12.6157 18.1913 12.592V13.0008C18.2 13.5178 17.9345 13.8585 17.3054 13.8585ZM31.5737 14.6248C30.2176 14.6248 29.6436 13.9346 29.6436 12.5457C29.6436 11.2803 30.1407 10.4392 31.62 10.4393C33.3681 10.4393 33.5806 11.7201 33.5214 12.8655L30.6875 12.8657C30.6875 13.5009 30.9079 13.8268 31.6578 13.827C32.2881 13.827 32.3528 13.5936 32.4164 13.3645C32.4186 13.3568 32.4207 13.3491 32.4228 13.3415H33.4527C33.3681 13.8368 33.1492 14.6248 31.5737 14.6248ZM26.9955 14.625C25.7356 14.625 25.0428 13.924 25.0428 12.5153C25.0428 11.3257 25.5551 10.4392 27.0793 10.4393C28.3945 10.4393 28.8409 11.1372 28.8409 11.911H27.835C27.8304 11.8856 27.8263 11.8599 27.8222 11.834C27.7763 11.5463 27.728 11.2433 27.0116 11.2433C26.2387 11.2433 26.0798 11.8262 26.0798 12.4555C26.0798 13.3734 26.282 13.8514 26.964 13.8514C27.7483 13.8514 27.7815 13.5372 27.8207 13.1644C27.825 13.1233 27.8295 13.0814 27.835 13.0391H28.8741C28.8741 13.6637 28.5476 14.625 26.9955 14.625ZM21.5603 14.5184H20.5077L20.5079 10.5432H21.524V11.0839C21.5266 11.0756 21.5292 11.0672 21.5318 11.0586C21.6071 10.814 21.7225 10.4391 22.5822 10.4391C23.4997 10.4391 23.984 10.7582 23.984 11.7042V14.5184H22.9331V11.8873C22.9331 11.4933 22.7805 11.265 22.2343 11.265C21.7951 11.265 21.5603 11.409 21.5603 11.9552V14.5184ZM18.0927 12.0367C18.1525 11.9852 18.1913 11.8328 18.1913 11.6501C18.1913 11.3705 18.0634 11.1826 17.5616 11.1822C16.8716 11.1822 16.8503 11.4294 16.8248 11.7257C16.8229 11.7484 16.8209 11.7715 16.8186 11.7947H15.8583V11.6208C15.8796 10.9461 16.2914 10.439 17.6142 10.439C18.6976 10.439 19.2027 10.7872 19.2027 11.7577V13.4489C19.2027 13.6157 19.2273 13.6698 19.2597 13.6915C19.2914 13.7129 19.3656 13.7515 19.4945 13.7444V14.5182H18.9698C18.7818 14.5182 18.6387 14.4945 18.4924 14.374C18.4088 14.2991 18.3621 14.1991 18.3233 14.1161C18.3105 14.0886 18.2985 14.0629 18.2863 14.0407C18.0071 14.5334 17.669 14.6248 17.1396 14.6248C16.1187 14.6248 15.6989 14.1386 15.6989 13.3358C15.6989 12.7596 15.9409 12.4992 16.2435 12.3494C16.512 12.2319 16.96 12.1944 17.3518 12.1616C17.6933 12.133 17.9921 12.108 18.0927 12.0367ZM13.7318 14.5184H12.6818V10.5434H13.619V11.2877C13.6279 11.2634 13.6367 11.2389 13.6454 11.2144C13.7835 10.8284 13.9226 10.4393 14.6707 10.4393C14.8439 10.4393 15.0112 10.4534 15.1846 10.4762V11.3494H14.5428C14.3008 11.3494 14.0766 11.4092 13.9295 11.5912C13.7548 11.8128 13.7318 12.1835 13.7318 12.3713V14.5184ZM11.0435 9.03454H11.5936V9.83813H11.301C11.1716 9.83813 11.0346 9.84683 10.9864 9.907C10.9502 9.96181 10.9344 10.0131 10.9344 10.1188V10.5432H11.5936V11.2268H10.9344V14.518H9.8842V11.2266H9.35798V10.543H9.8842V9.99032C9.8842 9.6787 9.95234 9.43781 10.186 9.24673C10.4136 9.06546 10.7844 9.03454 11.0435 9.03454Z" fill="#5C5C5C"/>
</svg>
