<svg width="112" height="20" viewBox="0 0 112 20" fill="none" xmlns="http://www.w3.org/2000/svg">
<path d="M5.10757 0.782133V15.8147H16.289V19.0147H0.326172V0.763527H5.10757V0.782133ZM17.0145 0.782133L15.2099 6.19609H17.4425L20.1587 0.782133H17.0145ZM29.1448 12.0752H37.7029L33.4425 3.88911L29.1448 12.0752ZM36.5122 0.782133L46.7076 19.0333H41.3122L39.2471 15.0705H27.6006L25.4983 19.0333H20.475L30.8006 0.782133H36.5122ZM58.0378 19.517C61.368 19.517 64.4378 19.0891 67.6378 18.3821V9.15423H57.6099V12.131H63.1541V15.7403C61.7587 16.1124 59.8238 16.4472 58.2239 16.4472C53.0145 16.4472 50.6145 13.9914 50.6145 9.80539C50.6145 6.04725 52.9029 3.36818 57.5727 3.36818C60.2518 3.36818 62.3169 4.14957 62.5959 6.2519H67.6192C67.2843 1.80539 62.6332 0.317017 57.5169 0.317017C50.4843 0.317017 45.6843 3.62864 45.6843 9.8426C45.6657 16.41 50.5959 19.517 58.0378 19.517ZM87.0424 19.0333V15.8147H75.3773V11.3496H86.1122V8.16818H75.3773V4.00074H86.7634V0.782133H70.5773V19.0333H87.0424ZM104.94 4.00074V0.782133H89.6285V19.0333H94.4285V11.6845H104.382V8.48446H94.4285V4.01934H104.94V4.00074ZM107.154 19.0333H111.954V0.782133H107.154V19.0333Z" fill="#5C5C5C"/>
</svg>
