<svg width="92" height="25" viewBox="0 0 92 25" fill="none" xmlns="http://www.w3.org/2000/svg">
<path d="M9.09421 3.15421H11.1024C12.3254 2.97404 13.5744 3.13245 14.7137 3.61222C16.143 4.47215 17.1797 5.85655 17.6027 7.4701C17.9021 8.31566 17.9021 8.31566 18.6244 8.01619H19.1881V1.32216H0.286268V2.50242H1.06137C1.39819 2.50009 1.73126 2.57325 2.0361 2.71652C2.34094 2.8598 2.60981 3.06955 2.82295 3.33037C3.5452 4.49302 3.66852 5.79659 3.66852 12.5787C3.66852 19.7836 3.50997 21.5452 2.82295 22.4436C2.65335 22.6746 2.43376 22.8642 2.18058 22.9984C1.92741 23.1327 1.64719 23.2079 1.36084 23.2187C0.286268 23.4125 0.286268 23.3949 0.286268 23.8705C0.226843 24.0295 0.226843 24.2047 0.286268 24.3637H12.2122C12.2911 24.2081 12.3323 24.0361 12.3323 23.8617C12.3323 23.6872 12.2911 23.5152 12.2122 23.3596C11.9234 23.2793 11.629 23.2204 11.3314 23.1835C11.0095 23.1452 10.6914 23.0804 10.3802 22.9897C9.93451 22.6643 9.58147 22.2283 9.35594 21.7247C9.13041 21.2212 9.04019 20.6674 9.09421 20.1183C8.91805 18.9557 8.82997 16.8241 8.82997 15.0625V13.6709H9.5346C10.4125 13.644 11.2899 13.7389 12.1418 13.9527C12.5499 14.2049 12.8972 14.5441 13.1591 14.9461C13.421 15.348 13.5909 15.8028 13.6567 16.278L13.8153 16.8241H14.8898V9.0203H13.9033L13.7448 9.77778C13.6781 10.2637 13.4983 10.7273 13.2199 11.1311C12.9415 11.535 12.5722 11.8679 12.1418 12.1031C11.7249 12.2271 11.2857 12.2572 10.8558 12.1912H8.82997V10.2886C8.82997 8.31566 8.93566 4.15831 9.00613 3.50653L9.09421 3.15421ZM91.5365 17.1236C90.7038 15.7834 89.4051 14.7984 87.89 14.3579C86.7285 13.9948 85.6549 13.395 84.7368 12.5963C84.5302 12.3965 84.3756 12.1492 84.2866 11.8759C84.1975 11.6026 84.1767 11.3117 84.2259 11.0285C84.2273 10.4731 84.449 9.94085 84.8425 9.54877C85.1091 9.26949 85.4466 9.06788 85.819 8.9655C86.1913 8.86311 86.5844 8.86378 86.9564 8.96745C87.7265 9.18692 88.4229 9.61062 88.9718 10.1936C89.5207 10.7767 89.9017 11.4973 90.0744 12.2792C90.3562 13.0719 90.3915 13.0719 90.9023 12.8606L91.2194 12.7372V8.35089L90.9904 8.2452C89.2561 7.63609 87.4165 7.38441 85.5823 7.50533C84.0028 7.54535 82.4951 8.17355 81.3545 9.26692C80.8372 9.75116 80.432 10.3426 80.1673 10.9999C79.9026 11.6572 79.7847 12.3643 79.822 13.0719C79.8318 14.1538 80.2613 15.1895 81.0198 15.961C81.8581 16.7854 82.8867 17.3904 84.0145 17.7225C86.745 18.7971 87.5377 19.4841 87.5377 20.7349C87.5494 21.2623 87.3814 21.778 87.0613 22.1974C86.7412 22.6167 86.288 22.9148 85.7761 23.0425C85.161 23.1777 84.5239 23.1777 83.9088 23.0425C83.1035 22.73 82.3844 22.2296 81.8115 21.5831C81.2385 20.9366 80.8282 20.1626 80.6147 19.3256L80.3857 18.7619H80.0686C79.917 18.7731 79.7683 18.8088 79.6282 18.8676H79.452V23.8705H79.7515C80.9416 24.2664 82.1695 24.5379 83.4156 24.6808H85.1772C85.9411 24.7369 86.7091 24.6654 87.4496 24.4694C88.3897 24.2959 89.2681 23.8795 89.9974 23.2614C90.7267 22.6433 91.2816 21.8452 91.607 20.9462C91.8172 20.4442 91.925 19.9051 91.9241 19.3608C91.9935 18.594 91.8598 17.8224 91.5365 17.1236ZM74.9424 8.01619C73.8867 7.57299 72.7494 7.358 71.6048 7.38533C70.4603 7.41265 69.3344 7.68167 68.3012 8.17473C67.3299 8.6498 66.4691 9.32325 65.7743 10.1516C65.0794 10.98 64.566 11.9448 64.2671 12.9839C63.8861 14.1174 63.7247 15.3131 63.7915 16.507C63.7789 17.1567 63.832 17.8059 63.95 18.4448C64.2345 20.0158 64.9929 21.4621 66.1234 22.5894C67.2539 23.7168 68.7024 24.4712 70.2741 24.7513C71.2977 24.8802 72.3334 24.8802 73.3569 24.7513C74.419 24.5641 75.4355 24.1754 76.3516 23.6062C77.1094 23.1814 77.7507 22.5764 78.2189 21.8447C78.1889 21.7298 78.1359 21.6223 78.0633 21.5284C77.9906 21.4346 77.8997 21.3564 77.7961 21.2986C77.5951 21.3714 77.4053 21.4722 77.2324 21.598C76.3562 22.1755 75.3216 22.4649 74.2729 22.426C73.5769 22.473 72.8792 22.3647 72.2302 22.1087C71.5812 21.8528 70.9973 21.4557 70.5208 20.9462C70.1521 20.6038 69.8478 20.1981 69.6224 19.7484C69.075 18.6532 68.78 17.4493 68.7592 16.2252V15.5382H78.5184V15.1859C78.5399 14.8339 78.5399 14.4809 78.5184 14.1289C78.5149 12.885 78.1822 11.6643 77.5541 10.5907C76.926 9.51702 76.0249 8.62879 74.9424 8.01619ZM70.0275 14.1113H68.7944V13.0719C69.1996 10.412 70.2037 8.82652 71.4368 8.82652C72.6699 8.82652 73.1984 10.3943 73.4274 13.2657V14.0761H72.3704L70.0275 14.1113ZM44.6959 7.43487C44.0872 7.41126 43.4821 7.53833 42.9343 7.8048C41.7437 8.383 40.782 9.34466 40.2038 10.5353L39.9748 10.958V7.43487H39.8868C39.6754 7.43487 33.1575 8.73844 32.9461 8.82652C32.7347 8.9146 32.8052 8.93222 32.8052 9.2493C32.8052 9.56639 32.8052 9.61924 32.9461 9.63685L33.6331 9.77778C33.8255 9.7825 34.0144 9.83095 34.1853 9.91946C34.3562 10.008 34.5047 10.1342 34.6196 10.2886C35.06 10.87 35.1481 11.8917 35.1481 16.2428C35.2351 18.2016 35.1526 20.1643 34.9015 22.1089C34.8424 22.4021 34.6937 22.6697 34.4759 22.8748C34.2582 23.0799 33.9822 23.2124 33.686 23.2539L33.087 23.3772H32.858V23.8705C32.7941 24.0348 32.7941 24.217 32.858 24.3813H42.7053V23.8705C42.7395 23.7019 42.7395 23.5282 42.7053 23.3596C42.1124 23.3365 41.5228 23.2599 40.9437 23.1306C40.6284 22.9657 40.3704 22.7091 40.2037 22.3946C40.037 22.0802 39.9695 21.7226 40.0101 21.369C39.8691 20.3473 39.7987 17.3526 39.8339 15.0625C39.8691 12.7725 39.8339 12.6316 40.0277 12.473C40.6172 12.021 41.3466 11.7904 42.0887 11.8212C42.7883 11.8365 43.4751 12.0112 44.097 12.3321C44.3125 12.4518 44.5438 12.5407 44.784 12.5963C44.784 12.5963 46.5456 8.33328 46.5456 8.1395C46.3201 7.87755 46.0329 7.67593 45.71 7.5529C45.387 7.42986 45.0385 7.3893 44.6959 7.43487ZM32.8228 14.8335C32.7613 13.5747 32.3999 12.3488 31.7687 11.258C31.1374 10.1671 30.2547 9.24287 29.1939 8.56228C27.9333 7.88222 26.5308 7.50724 25.099 7.46747C23.6673 7.4277 22.2461 7.72424 20.9497 8.33328C19.1167 9.29982 17.7328 10.9429 17.0918 12.9134C16.4298 15.1196 16.4298 17.4717 17.0918 19.6779C17.4389 20.8837 18.0876 21.981 18.9767 22.8664C20.084 23.9469 21.5119 24.6391 23.046 24.8394C24.0308 24.9217 25.0207 24.9217 26.0054 24.8394C26.3678 24.7842 26.7266 24.7078 27.08 24.6103C28.5139 24.2092 29.8039 23.4081 30.799 22.3006C31.7942 21.1931 32.4534 19.8251 32.6995 18.3567C32.8753 17.1909 32.9167 16.0088 32.8228 14.8335ZM25.4946 23.6415C23.733 24.17 22.4118 22.4612 21.9714 18.8676C21.8097 16.9861 21.8097 15.0943 21.9714 13.2129C22.3237 10.3239 23.2221 8.86175 24.6138 8.86175C24.8946 8.84435 25.1754 8.89445 25.4329 9.00784C25.6903 9.12124 25.9168 9.29464 26.0935 9.51354C27.2738 10.6938 27.8551 13.0367 27.8551 16.5599C28.0017 18.5538 27.6883 20.5547 26.9391 22.4084C26.6083 22.949 26.0964 23.3547 25.4946 23.5534V23.6415ZM57.2032 7.78718C56.7061 7.72322 56.2029 7.72322 55.7058 7.78718C54.7517 7.78637 53.8085 7.99063 52.9401 8.38612L52.394 8.61513V4.79249C52.4895 3.50242 52.4895 2.20706 52.394 0.916992C52.1826 0.916992 45.4534 2.20295 45.3477 2.2558C45.2957 2.38586 45.2957 2.53091 45.3477 2.66096C45.3477 3.0309 45.3477 3.01328 46.1404 3.18944C46.363 3.23935 46.5768 3.32249 46.7746 3.43606C47.1184 3.75942 47.3473 4.18621 47.4264 4.65156C47.6269 5.99217 47.6918 7.34958 47.6201 8.70321V24.17L48.0958 24.2756C48.8004 24.4342 50.791 24.7689 51.4428 24.8394C52.7443 24.9429 54.052 24.9429 55.3535 24.8394C56.7981 24.6918 58.1751 24.1528 59.3361 23.2806C60.497 22.4083 61.398 21.2357 61.9418 19.8893C62.2661 19.0251 62.4906 18.1268 62.6112 17.2117C62.7161 15.9721 62.6747 14.7246 62.4879 13.4947C62.2989 12.1161 61.6905 10.829 60.7451 9.80803C59.7997 8.78702 58.5632 8.0815 57.2032 7.78718ZM52.5878 23.342C52.5878 23.113 52.4116 15.3972 52.4469 12.3145V9.90109L52.9577 9.77778C53.3024 9.72839 53.6524 9.72839 53.9971 9.77778C54.3783 9.73902 54.7617 9.8256 55.0893 10.0244C55.7471 10.4784 56.2934 11.0758 56.687 11.7715C57.0807 12.4672 57.3113 13.2431 57.3617 14.0408C57.49 15.3236 57.49 16.6159 57.3617 17.8987C57.2563 19.7631 56.5379 21.5404 55.3183 22.9545C54.9721 23.2833 54.5374 23.5037 54.0675 23.5886C53.712 23.6505 53.3485 23.6505 52.993 23.5886C52.6583 23.5886 52.6583 23.4829 52.6583 23.342H52.5878Z" fill="#5C5C5C"/>
</svg>
