<svg width="90" height="31" viewBox="0 0 90 31" fill="none" xmlns="http://www.w3.org/2000/svg">
<path d="M0.556152 1.00925H5.4152V11.3885H13.0728V15.5403H0.556152V1.00925ZM20.8227 10.143L22.1451 6.62176L23.4675 10.143H20.8227ZM13.6571 15.5403H18.8391L19.5925 13.5874H24.6822L25.4511 15.5403H30.7253L24.6054 0.916992H19.7924L13.6571 15.5403ZM4.40033 30.6248H9.25938V20.2148H13.0882V16.1092H0.556152V20.2148H4.38496V30.6248H4.40033ZM18.4854 23.0134V20.1687H20.6074C21.7299 20.1687 22.4526 20.63 22.4526 21.5526V21.5987C22.4526 22.4905 21.7453 23.0134 20.592 23.0134H18.4854ZM13.6264 30.6248H18.4854V26.4731H19.4849H19.531L22.2681 30.6248H27.8037L24.4208 25.6889C26.1892 24.8432 27.2809 23.367 27.2809 21.245V21.1989C27.2809 19.7074 26.8196 18.631 25.9585 17.7545C24.9436 16.7396 23.2983 16.0938 20.7304 16.0938H13.6264V30.6248ZM38.2138 26.9498V24.7971H40.6587C41.7197 24.7971 42.2425 25.2276 42.2425 25.858V25.9042C42.2425 26.5346 41.7043 26.9652 40.6433 26.9652H38.2138V26.9498ZM38.2138 21.7986V19.7689H40.305C41.3352 19.7689 41.858 20.1225 41.858 20.7683V20.8145C41.858 21.4603 41.366 21.814 40.3204 21.814H38.2138V21.7986ZM33.4777 30.6248H41.5351C45.2102 30.6248 47.1169 28.918 47.1169 26.5961V26.55C47.1169 24.5664 45.9175 23.5669 44.0415 23.0287C45.5946 22.4905 46.6402 21.4296 46.6402 19.7074V19.6612C46.6402 18.6617 46.2712 17.9237 45.7484 17.4008C44.9026 16.5551 43.6264 16.0938 41.612 16.0938H33.4777V30.6248ZM47.3014 24.1051C47.3014 28.918 50.1 30.917 54.4362 30.917C58.7724 30.917 61.6633 28.9641 61.6633 24.0128V16.1092H56.7273V24.1666C56.7273 25.9349 55.7894 26.6423 54.4823 26.6423C53.1753 26.6423 52.2373 25.8734 52.2373 24.0743V16.1246H47.3014V24.1051ZM62.2476 30.6248H67.0605V23.9206L72.4577 30.6248H76.7786V16.0938H71.9657V22.5059L66.7837 16.0938H62.2322V30.6248H62.2476ZM77.3322 30.6248H89.8181V26.6423H82.0989V25.0585H89.203V21.5526H82.0989V20.0764H89.7104V16.0938H77.3168V30.6248H77.3322ZM27.9421 30.6248H32.9088V16.0938H27.9421V30.6248Z" fill="#5C5C5C"/>
</svg>
