<svg width="48" height="41" viewBox="0 0 48 41" fill="none" xmlns="http://www.w3.org/2000/svg">
<path fill-rule="evenodd" clip-rule="evenodd" d="M23.6117 0.916992L21.0888 21.7244L26.5768 22.3226C27.63 21.2559 29.889 20.2213 32.2728 20.1744C34.4807 20.131 36.7957 20.9423 38.359 23.181C40.248 25.8859 40.6114 32.279 33.2872 34.0268C31.6746 34.3129 28.2674 34.2609 24.8602 30.3075L24.7822 30.2035L19.3982 34.7291C21.583 37.7462 28.5483 42.5371 36.5384 40.3731C44.5284 38.2091 46.3538 32.8044 46.9421 29.4492C47.4756 26.4061 47.0201 20.502 42.6245 16.9647C40.8732 15.2481 35.8881 12.127 29.2037 13.8696L29.828 7.6534H44.4972V0.916992H23.6117ZM7.77216 34.0788C11.8804 34.0788 15.2108 30.7484 15.2108 26.6402C15.2108 22.5319 11.8804 19.2015 7.77216 19.2015C3.6639 19.2015 0.333496 22.5319 0.333496 26.6402C0.333496 30.7484 3.6639 34.0788 7.77216 34.0788Z" fill="#5C5C5C"/>
</svg>
