<svg width="1277" height="601" viewBox="0 0 1277 601" fill="none" xmlns="http://www.w3.org/2000/svg">
<g opacity="0.05">
<path d="M1083.81 1.0166V1509.02" stroke="white"/>
<path d="M1275.81 1.0166V1509.02" stroke="white"/>
<path d="M891.812 1.0166V1509.02" stroke="white"/>
<path d="M699.812 1.0166V1509.02" stroke="white"/>
<path d="M507.812 1.0166V1509.02" stroke="white"/>
<path d="M315.812 1.0166V1509.02" stroke="white"/>
<path d="M123.812 1.0166V1509.02" stroke="white"/>
<path d="M1275.81 216.445L-644.188 216.445" stroke="white"/>
<path d="M1275.81 1.0166L-644.188 1.01677" stroke="white"/>
<path d="M-644.444 431.917H1275.56" stroke="url(#paint0_linear_1801_1491)"/>
</g>
<rect width="192" height="1000" transform="matrix(-1 0 0 1 1275.56 0.916992)" fill="url(#paint1_linear_1801_1491)"/>
<rect width="1920" height="214" transform="matrix(1 0 0 -1 -644.444 599.917)" fill="url(#paint2_linear_1801_1491)"/>
<!-- <rect opacity="0.1" x="699.556" y="215.917" width="192" height="216" fill="url(#paint3_linear_1801_1491)"/>
<rect opacity="0.1" x="891.556" y="430.917" width="192" height="216" fill="url(#paint4_linear_1801_1491)"/>
<g filter="url(#filter0_d_1801_1491)">
<circle cx="2" cy="2" r="2" transform="matrix(0 1 1 0 698.056 430.417)" fill="#EE0000"/>
</g> -->
<defs>
<filter id="filter0_d_1801_1491" x="692.056" y="424.417" width="16" height="16" filterUnits="userSpaceOnUse" color-interpolation-filters="sRGB">
<feFlood flood-opacity="0" result="BackgroundImageFix"/>
<feColorMatrix in="SourceAlpha" type="matrix" values="0 0 0 0 0 0 0 0 0 0 0 0 0 0 0 0 0 0 127 0" result="hardAlpha"/>
<feOffset/>
<feGaussianBlur stdDeviation="3"/>
<feComposite in2="hardAlpha" operator="out"/>
<feColorMatrix type="matrix" values="0 0 0 0 1 0 0 0 0 0.268571 0 0 0 0 0.268571 0 0 0 1 0"/>
<feBlend mode="normal" in2="BackgroundImageFix" result="effect1_dropShadow_1801_1491"/>
<feBlend mode="normal" in="SourceGraphic" in2="effect1_dropShadow_1801_1491" result="shape"/>
</filter>
<linearGradient id="paint0_linear_1801_1491" x1="-644.444" y1="431.917" x2="1275.56" y2="431.917" gradientUnits="userSpaceOnUse">
<stop stop-color="white" stop-opacity="0"/>
<stop offset="0.532909" stop-color="white" stop-opacity="0.2"/>
<stop offset="1" stop-color="white" stop-opacity="0"/>
</linearGradient>
<linearGradient id="paint1_linear_1801_1491" x1="0" y1="500" x2="192" y2="500" gradientUnits="userSpaceOnUse">
<stop/>
<stop offset="1" stop-opacity="0"/>
</linearGradient>
<linearGradient id="paint2_linear_1801_1491" x1="960" y1="0" x2="960" y2="214" gradientUnits="userSpaceOnUse">
<stop/>
<stop offset="1" stop-opacity="0"/>
</linearGradient>
<linearGradient id="paint3_linear_1801_1491" x1="795.556" y1="215.917" x2="795.556" y2="431.917" gradientUnits="userSpaceOnUse">
<stop stop-color="#EE0000" stop-opacity="0"/>
<stop offset="1" stop-color="#EE0000" stop-opacity="0.5"/>
</linearGradient>
<linearGradient id="paint4_linear_1801_1491" x1="987.556" y1="430.917" x2="987.556" y2="646.917" gradientUnits="userSpaceOnUse">
<stop stop-color="#EE0000" stop-opacity="0"/>
<stop offset="1" stop-color="#EE0000" stop-opacity="0.5"/>
</linearGradient>
</defs>
</svg>
