<svg width="769" height="514" viewBox="0 0 769 514" fill="none" xmlns="http://www.w3.org/2000/svg">
<g opacity="0.05">
<path d="M653.511 0.0996094V1508.1" stroke="white"/>
<path d="M768.711 0.0996094V1508.1" stroke="white"/>
<path d="M538.311 0.0996094V1508.1" stroke="white"/>
<path d="M423.111 0.0996094V1508.1" stroke="white"/>
<path d="M307.911 0.0996094V1508.1" stroke="white"/>
<path d="M192.711 0.0996094V1508.1" stroke="white"/>
<path d="M77.5107 0.0996094V1508.1" stroke="white"/>
<path d="M768.711 215.528L-383.289 215.528" stroke="white"/>
<path d="M768.711 0.0996094L-383.289 0.0997772" stroke="white"/>
<path d="M-383.443 431H768.557" stroke="url(#paint0_linear_1817_1695)"/>
</g>
<rect x="5.61377" width="76.2943" height="602.037" fill="url(#paint1_linear_1817_1695)"/>
<rect width="76.2943" height="602.037" transform="matrix(-1 0 0 1 768.557 0)" fill="url(#paint2_linear_1817_1695)"/>
<!-- <rect opacity="0.1" x="422.957" y="215" width="115.2" height="216" fill="url(#paint3_linear_1817_1695)"/>
<rect opacity="0.1" x="538.157" y="430" width="115.2" height="216" fill="url(#paint4_linear_1817_1695)"/>
<g filter="url(#filter0_d_1817_1695)">
<ellipse cx="2" cy="1.2" rx="2" ry="1.2" transform="matrix(0 1 1 0 422.057 429.5)" fill="#EE0000"/>
</g> -->
<defs>
<filter id="filter0_d_1817_1695" x="416.057" y="423.5" width="14.3999" height="16" filterUnits="userSpaceOnUse" color-interpolation-filters="sRGB">
<feFlood flood-opacity="0" result="BackgroundImageFix"/>
<feColorMatrix in="SourceAlpha" type="matrix" values="0 0 0 0 0 0 0 0 0 0 0 0 0 0 0 0 0 0 127 0" result="hardAlpha"/>
<feOffset/>
<feGaussianBlur stdDeviation="3"/>
<feComposite in2="hardAlpha" operator="out"/>
<feColorMatrix type="matrix" values="0 0 0 0 1 0 0 0 0 0.268571 0 0 0 0 0.268571 0 0 0 1 0"/>
<feBlend mode="normal" in2="BackgroundImageFix" result="effect1_dropShadow_1817_1695"/>
<feBlend mode="normal" in="SourceGraphic" in2="effect1_dropShadow_1817_1695" result="shape"/>
</filter>
<linearGradient id="paint0_linear_1817_1695" x1="-383.443" y1="431" x2="768.557" y2="431" gradientUnits="userSpaceOnUse">
<stop stop-color="white" stop-opacity="0"/>
<stop offset="0.532909" stop-color="white" stop-opacity="0.2"/>
<stop offset="1" stop-color="white" stop-opacity="0"/>
</linearGradient>
<linearGradient id="paint1_linear_1817_1695" x1="5.61377" y1="301.019" x2="81.9081" y2="301.019" gradientUnits="userSpaceOnUse">
<stop/>
<stop offset="1" stop-opacity="0"/>
</linearGradient>
<linearGradient id="paint2_linear_1817_1695" x1="0" y1="301.019" x2="76.2943" y2="301.019" gradientUnits="userSpaceOnUse">
<stop/>
<stop offset="1" stop-opacity="0"/>
</linearGradient>
<linearGradient id="paint3_linear_1817_1695" x1="480.557" y1="215" x2="480.557" y2="431" gradientUnits="userSpaceOnUse">
<stop stop-color="#EE0000" stop-opacity="0"/>
<stop offset="1" stop-color="#EE0000" stop-opacity="0.5"/>
</linearGradient>
<linearGradient id="paint4_linear_1817_1695" x1="595.757" y1="430" x2="595.757" y2="646" gradientUnits="userSpaceOnUse">
<stop stop-color="#EE0000" stop-opacity="0"/>
<stop offset="1" stop-color="#EE0000" stop-opacity="0.5"/>
</linearGradient>
</defs>
</svg>
