<svg width="1920" height="600" viewBox="0 0 1920 600" fill="none" xmlns="http://www.w3.org/2000/svg">
<g opacity="0.05">
<path d="M1729.26 0.0996094V1508.1" stroke="white"/>
<path d="M1537.26 0.0996094V1508.1" stroke="white"/>
<path d="M1345.26 0.0996094V1508.1" stroke="white"/>
<path d="M1153.26 0.0996094V1508.1" stroke="white"/>
<path d="M961.256 0.0996094V1508.1" stroke="white"/>
<path d="M769.256 0.0996094V1508.1" stroke="white"/>
<path d="M577.256 0.0996094V1508.1" stroke="white"/>
<path d="M385.256 0.0996094V1508.1" stroke="white"/>
<path d="M193.256 0.0996094V1508.1" stroke="white"/>
<path d="M1.25586 0.0996094V1508.1" stroke="white"/>
<path d="M1921.26 215.528L1.25552 215.528" stroke="white"/>
<path d="M1921.26 0.0996094L1.25552 0.0997772" stroke="white"/>
<path d="M1 431H1921" stroke="url(#paint0_linear_178_3875)"/>
</g>
<!-- <rect opacity="0.1" x="1345" y="215" width="192" height="216" fill="url(#paint1_linear_178_3875)"/>
<rect opacity="0.1" x="1537" y="430" width="192" height="216" fill="url(#paint2_linear_178_3875)"/>
<rect opacity="0.05" x="386" width="192" height="216" fill="url(#paint3_linear_178_3875)"/>
<g filter="url(#filter0_d_178_3875)">
<circle cx="2" cy="2" r="2" transform="matrix(0 1 1 0 1343.5 429.5)" fill="#EE0000"/>
</g> -->
<defs>
<filter id="filter0_d_178_3875" x="1337.5" y="423.5" width="16" height="16" filterUnits="userSpaceOnUse" color-interpolation-filters="sRGB">
<feFlood flood-opacity="0" result="BackgroundImageFix"/>
<feColorMatrix in="SourceAlpha" type="matrix" values="0 0 0 0 0 0 0 0 0 0 0 0 0 0 0 0 0 0 127 0" result="hardAlpha"/>
<feOffset/>
<feGaussianBlur stdDeviation="3"/>
<feComposite in2="hardAlpha" operator="out"/>
<feColorMatrix type="matrix" values="0 0 0 0 1 0 0 0 0 0.268571 0 0 0 0 0.268571 0 0 0 1 0"/>
<feBlend mode="normal" in2="BackgroundImageFix" result="effect1_dropShadow_178_3875"/>
<feBlend mode="normal" in="SourceGraphic" in2="effect1_dropShadow_178_3875" result="shape"/>
</filter>
<linearGradient id="paint0_linear_178_3875" x1="1" y1="431" x2="1921" y2="431" gradientUnits="userSpaceOnUse">
<stop stop-color="white" stop-opacity="0"/>
<stop offset="0.532909" stop-color="white" stop-opacity="0.2"/>
<stop offset="1" stop-color="white" stop-opacity="0"/>
</linearGradient>
<linearGradient id="paint1_linear_178_3875" x1="1441" y1="215" x2="1441" y2="431" gradientUnits="userSpaceOnUse">
<stop stop-color="#EE0000" stop-opacity="0"/>
<stop offset="1" stop-color="#EE0000" stop-opacity="0.5"/>
</linearGradient>
<linearGradient id="paint2_linear_178_3875" x1="1633" y1="430" x2="1633" y2="646" gradientUnits="userSpaceOnUse">
<stop stop-color="#EE0000" stop-opacity="0"/>
<stop offset="1" stop-color="#EE0000" stop-opacity="0.5"/>
</linearGradient>
<linearGradient id="paint3_linear_178_3875" x1="482" y1="0" x2="482" y2="216" gradientUnits="userSpaceOnUse">
<stop stop-color="#EE0000" stop-opacity="0"/>
<stop offset="1" stop-color="#EE0000" stop-opacity="0.4"/>
</linearGradient>
</defs>
</svg>
