<svg width="769" height="981" viewBox="0 0 769 981" fill="none" xmlns="http://www.w3.org/2000/svg">
<g opacity="0.05">
<path d="M77.2539 0.983398V1006.32" stroke="white" stroke-width="0.666667"/>
<path d="M0.454102 0.983398V1006.32" stroke="white" stroke-width="0.666667"/>
<path d="M154.054 0.983398V1006.32" stroke="white" stroke-width="0.666667"/>
<path d="M230.854 0.983398V1006.32" stroke="white" stroke-width="0.666667"/>
<path d="M307.654 0.983398V1006.32" stroke="white" stroke-width="0.666667"/>
<path d="M384.454 0.983398V1006.32" stroke="white" stroke-width="0.666667"/>
<path d="M461.254 0.983398V1006.32" stroke="white" stroke-width="0.666667"/>
<path d="M538.054 0.983398V1006.32" stroke="white" stroke-width="0.666667"/>
<path d="M614.854 0.983398V1006.32" stroke="white" stroke-width="0.666667"/>
<path d="M691.654 0.983398V1006.32" stroke="white" stroke-width="0.666667"/>
<path d="M768.454 0.983398V1006.32" stroke="white" stroke-width="0.666667"/>
<path d="M0.454102 144.603L768.454 144.603" stroke="white" stroke-width="0.666667"/>
<path d="M0.454102 0.983398L768.454 0.98351" stroke="white" stroke-width="0.666667"/>
<path d="M0.454102 288.222L768.454 288.222" stroke="white" stroke-width="0.666667"/>
<path d="M0.454102 431.841L768.454 431.841" stroke="white" stroke-width="0.666667"/>
<path d="M0.454102 575.459L768.454 575.459" stroke="white" stroke-width="0.666667"/>
<path d="M0.454102 719.078L768.454 719.078" stroke="white" stroke-width="0.666667"/>
<path d="M0.454102 862.697L768.454 862.697" stroke="white" stroke-width="0.666667"/>
</g>
<rect width="76.8" height="666.667" transform="matrix(-1 0 0 1 768.557 0.916992)" fill="url(#paint0_linear_1817_1576)"/>
<rect x="0.556641" y="0.916992" width="76.8" height="666.667" fill="url(#paint1_linear_1817_1576)"/>
<rect x="768.557" y="667.584" width="768" height="142.667" transform="rotate(180 768.557 667.584)" fill="url(#paint2_linear_1817_1576)"/>
<!-- <rect opacity="0.1" width="76.8" height="144" transform="matrix(-1 0 0 1 230.957 144.25)" fill="url(#paint3_linear_1817_1576)"/>
<rect opacity="0.1" width="76.8" height="144" transform="matrix(-1 0 0 1 154.157 287.584)" fill="url(#paint4_linear_1817_1576)"/>
<rect opacity="0.05" width="76.8" height="144" transform="matrix(-1 0 0 1 614.557 0.916992)" fill="url(#paint5_linear_1817_1576)"/>
<g filter="url(#filter0_d_1817_1576)">
<ellipse cx="230.757" cy="288.583" rx="1.33333" ry="0.8" transform="rotate(90 230.757 288.583)" fill="#EE0000"/>
</g>
<path d="M153.756 557.584L153.756 432.917" stroke="url(#paint6_linear_1817_1576)" stroke-width="0.666667"/>
<g filter="url(#filter1_d_1817_1576)">
<ellipse cx="153.757" cy="432.918" rx="1.33333" ry="0.8" transform="rotate(-90 153.757 432.918)" fill="#8A0000"/>
</g> -->
<!-- <g opacity="0.3" filter="url(#filter2_f_1817_1576)">
<ellipse cx="299.265" cy="129.251" rx="298.708" ry="218.145" fill="#EE0000"/>
</g> -->
<defs>
<filter id="filter0_d_1817_1576" x="225.957" y="283.25" width="9.6001" height="10.667" filterUnits="userSpaceOnUse" color-interpolation-filters="sRGB">
<feFlood flood-opacity="0" result="BackgroundImageFix"/>
<feColorMatrix in="SourceAlpha" type="matrix" values="0 0 0 0 0 0 0 0 0 0 0 0 0 0 0 0 0 0 127 0" result="hardAlpha"/>
<feOffset/>
<feGaussianBlur stdDeviation="2"/>
<feComposite in2="hardAlpha" operator="out"/>
<feColorMatrix type="matrix" values="0 0 0 0 1 0 0 0 0 0.268571 0 0 0 0 0.268571 0 0 0 1 0"/>
<feBlend mode="normal" in2="BackgroundImageFix" result="effect1_dropShadow_1817_1576"/>
<feBlend mode="normal" in="SourceGraphic" in2="effect1_dropShadow_1817_1576" result="shape"/>
</filter>
<filter id="filter1_d_1817_1576" x="148.957" y="427.584" width="9.6001" height="10.667" filterUnits="userSpaceOnUse" color-interpolation-filters="sRGB">
<feFlood flood-opacity="0" result="BackgroundImageFix"/>
<feColorMatrix in="SourceAlpha" type="matrix" values="0 0 0 0 0 0 0 0 0 0 0 0 0 0 0 0 0 0 127 0" result="hardAlpha"/>
<feOffset/>
<feGaussianBlur stdDeviation="2"/>
<feComposite in2="hardAlpha" operator="out"/>
<feColorMatrix type="matrix" values="0 0 0 0 1 0 0 0 0 0.268571 0 0 0 0 0.268571 0 0 0 1 0"/>
<feBlend mode="normal" in2="BackgroundImageFix" result="effect1_dropShadow_1817_1576"/>
<feBlend mode="normal" in="SourceGraphic" in2="effect1_dropShadow_1817_1576" result="shape"/>
</filter>
<!-- <filter id="filter2_f_1817_1576" x="-546.11" y="-635.561" width="1690.75" height="1529.62" filterUnits="userSpaceOnUse" color-interpolation-filters="sRGB">
<feFlood flood-opacity="0" result="BackgroundImageFix"/>
<feBlend mode="normal" in="SourceGraphic" in2="BackgroundImageFix" result="shape"/>
<feGaussianBlur stdDeviation="273.333" result="effect1_foregroundBlur_1817_1576"/>
</filter> -->
<linearGradient id="paint0_linear_1817_1576" x1="0" y1="333.333" x2="76.8" y2="333.333" gradientUnits="userSpaceOnUse">
<stop/>
<stop offset="1" stop-opacity="0"/>
</linearGradient>
<linearGradient id="paint1_linear_1817_1576" x1="0.556641" y1="334.25" x2="77.3566" y2="334.25" gradientUnits="userSpaceOnUse">
<stop/>
<stop offset="1" stop-opacity="0"/>
</linearGradient>
<!-- <linearGradient id="paint2_linear_1817_1576" x1="1152.56" y1="667.584" x2="1152.56" y2="810.251" gradientUnits="userSpaceOnUse">
<stop/>
<stop offset="1" stop-opacity="0"/>
</linearGradient> -->
<linearGradient id="paint3_linear_1817_1576" x1="38.4" y1="0" x2="38.4" y2="144" gradientUnits="userSpaceOnUse">
<stop stop-color="#EE0000" stop-opacity="0"/>
<stop offset="1" stop-color="#EE0000" stop-opacity="0.5"/>
</linearGradient>
<linearGradient id="paint4_linear_1817_1576" x1="38.4" y1="0" x2="38.4" y2="144" gradientUnits="userSpaceOnUse">
<stop stop-color="#EE0000" stop-opacity="0"/>
<stop offset="1" stop-color="#EE0000" stop-opacity="0.5"/>
</linearGradient>
<linearGradient id="paint5_linear_1817_1576" x1="38.4" y1="0" x2="38.4" y2="144" gradientUnits="userSpaceOnUse">
<stop stop-color="#EE0000" stop-opacity="0"/>
<stop offset="1" stop-color="#EE0000" stop-opacity="0.4"/>
</linearGradient>
<linearGradient id="paint6_linear_1817_1576" x1="153.756" y1="432.917" x2="153.756" y2="561.251" gradientUnits="userSpaceOnUse">
<stop stop-color="#8A0000"/>
<stop offset="1" stop-color="#EE0000" stop-opacity="0"/>
</linearGradient>
</defs>
</svg>
