<svg width="1921" height="1001" viewBox="0 0 1921 1001" fill="none" xmlns="http://www.w3.org/2000/svg">
<g opacity="0.05">
<path d="M193.3 1.0166V1509.02" stroke="white"/>
<path d="M1.2998 1.0166V1509.02" stroke="white"/>
<path d="M385.3 1.0166V1509.02" stroke="white"/>
<path d="M577.3 1.0166V1509.02" stroke="white"/>
<path d="M769.3 1.0166V1509.02" stroke="white"/>
<path d="M961.3 1.0166V1509.02" stroke="white"/>
<path d="M1153.3 1.0166V1509.02" stroke="white"/>
<path d="M1345.3 1.0166V1509.02" stroke="white"/>
<path d="M1537.3 1.0166V1509.02" stroke="white"/>
<path d="M1729.3 1.0166V1509.02" stroke="white"/>
<path d="M1921.3 1.0166V1509.02" stroke="white"/>
<path d="M1.2998 216.445L1921.3 216.445" stroke="white"/>
<path d="M1.2998 1.0166L1921.3 1.01677" stroke="white"/>
<path d="M1.2998 431.874L1921.3 431.874" stroke="white"/>
<path d="M1.2998 647.303L1921.3 647.303" stroke="white"/>
<path d="M1.2998 862.73L1921.3 862.731" stroke="white"/>
</g>
<rect width="192" height="1000" transform="matrix(-1 0 0 1 1921.56 0.916992)" fill="url(#paint0_linear_178_3003)"/>
<rect x="1.55615" y="0.916992" width="192" height="1000" fill="url(#paint1_linear_178_3003)"/>
<rect x="1921.56" y="1000.92" width="1920" height="214" transform="rotate(180 1921.56 1000.92)" fill="url(#paint2_linear_178_3003)"/>
<!-- <rect opacity="0.1" width="192" height="216" transform="matrix(-1 0 0 1 577.556 215.917)" fill="url(#paint3_linear_178_3003)"/> -->
<!-- <rect opacity="0.1" width="192" height="216" transform="matrix(-1 0 0 1 385.556 430.917)" fill="url(#paint4_linear_178_3003)"/> -->
<!-- <rect opacity="0.05" width="192" height="216" transform="matrix(-1 0 0 1 1536.56 0.916992)" fill="url(#paint5_linear_178_3003)"/> -->
<!-- <g filter="url(#filter0_d_178_3003)">
<circle cx="577.056" cy="432.417" r="2" transform="rotate(90 577.056 432.417)" fill="#EE0000"/>
</g> -->
<!-- <path d="M384.556 835.917L384.556 648.917" stroke="url(#paint6_linear_178_3003)"/> -->
<!-- <g filter="url(#filter1_d_178_3003)">
<circle cx="384.556" cy="648.917" r="2" transform="rotate(-90 384.556 648.917)" fill="#8A0000"/>
</g> -->
<!-- <g opacity="0.3" filter="url(#filter2_f_178_3003)">
<ellipse cx="274.018" cy="193.417" rx="647" ry="283.5" fill="#EE0000"/>
</g> -->
<defs>
<filter id="filter0_d_178_3003" x="569.056" y="424.417" width="16" height="16" filterUnits="userSpaceOnUse" color-interpolation-filters="sRGB">
<feFlood flood-opacity="0" result="BackgroundImageFix"/>
<feColorMatrix in="SourceAlpha" type="matrix" values="0 0 0 0 0 0 0 0 0 0 0 0 0 0 0 0 0 0 127 0" result="hardAlpha"/>
<feOffset/>
<feGaussianBlur stdDeviation="3"/>
<feComposite in2="hardAlpha" operator="out"/>
<feColorMatrix type="matrix" values="0 0 0 0 1 0 0 0 0 0.268571 0 0 0 0 0.268571 0 0 0 1 0"/>
<feBlend mode="normal" in2="BackgroundImageFix" result="effect1_dropShadow_178_3003"/>
<feBlend mode="normal" in="SourceGraphic" in2="effect1_dropShadow_178_3003" result="shape"/>
</filter>
<filter id="filter1_d_178_3003" x="376.556" y="640.917" width="16" height="16" filterUnits="userSpaceOnUse" color-interpolation-filters="sRGB">
<feFlood flood-opacity="0" result="BackgroundImageFix"/>
<feColorMatrix in="SourceAlpha" type="matrix" values="0 0 0 0 0 0 0 0 0 0 0 0 0 0 0 0 0 0 127 0" result="hardAlpha"/>
<feOffset/>
<feGaussianBlur stdDeviation="3"/>
<feComposite in2="hardAlpha" operator="out"/>
<feColorMatrix type="matrix" values="0 0 0 0 1 0 0 0 0 0.268571 0 0 0 0 0.268571 0 0 0 1 0"/>
<feBlend mode="normal" in2="BackgroundImageFix" result="effect1_dropShadow_178_3003"/>
<feBlend mode="normal" in="SourceGraphic" in2="effect1_dropShadow_178_3003" result="shape"/>
</filter>
<filter id="filter2_f_178_3003" x="-1192.98" y="-910.083" width="2934" height="2207" filterUnits="userSpaceOnUse" color-interpolation-filters="sRGB">
<feFlood flood-opacity="0" result="BackgroundImageFix"/>
<!-- <feBlend mode="normal" in="SourceGraphic" in2="BackgroundImageFix" result="shape"/> -->
<feGaussianBlur stdDeviation="410" result="effect1_foregroundBlur_178_3003"/>
</filter>
<linearGradient id="paint0_linear_178_3003" x1="0" y1="500" x2="192" y2="500" gradientUnits="userSpaceOnUse">
<stop/>
<stop offset="1" stop-opacity="0"/>
</linearGradient>
<linearGradient id="paint1_linear_178_3003" x1="1.55615" y1="500.917" x2="193.556" y2="500.917" gradientUnits="userSpaceOnUse">
<stop/>
<stop offset="1" stop-opacity="0"/>
</linearGradient>
<!-- <linearGradient id="paint2_linear_178_3003" x1="2881.56" y1="1000.92" x2="2881.56" y2="1214.92" gradientUnits="userSpaceOnUse">
<stop/>
<stop offset="1" stop-opacity="0"/>
</linearGradient> -->
<linearGradient id="paint3_linear_178_3003" x1="96" y1="0" x2="96" y2="216" gradientUnits="userSpaceOnUse">
<stop stop-color="#EE0000" stop-opacity="0"/>
<stop offset="1" stop-color="#EE0000" stop-opacity="0.5"/>
</linearGradient>
<linearGradient id="paint4_linear_178_3003" x1="96" y1="0" x2="96" y2="216" gradientUnits="userSpaceOnUse">
<stop stop-color="#EE0000" stop-opacity="0"/>
<stop offset="1" stop-color="#EE0000" stop-opacity="0.5"/>
</linearGradient>
<linearGradient id="paint5_linear_178_3003" x1="96" y1="0" x2="96" y2="216" gradientUnits="userSpaceOnUse">
<stop stop-color="#EE0000" stop-opacity="0"/>
<stop offset="1" stop-color="#EE0000" stop-opacity="0.4"/>
</linearGradient>
<linearGradient id="paint6_linear_178_3003" x1="384.556" y1="648.917" x2="384.556" y2="841.417" gradientUnits="userSpaceOnUse">
<stop stop-color="#8A0000"/>
<stop offset="1" stop-color="#EE0000" stop-opacity="0"/>
</linearGradient>
</defs>
</svg>
