<svg width="375" height="1003" viewBox="0 0 375 1003" fill="none" xmlns="http://www.w3.org/2000/svg">
<g clip-path="url(#clip0_1927_1929)">
<g opacity="0.05">
<path d="M34.2979 0.0664062V1005.4" stroke="white" stroke-width="0.666667"/>
<path d="M111.098 0.0664062V1005.4" stroke="white" stroke-width="0.666667"/>
<path d="M187.897 0.0664062V1005.4" stroke="white" stroke-width="0.666667"/>
<path d="M264.697 0.0664062V1005.4" stroke="white" stroke-width="0.666667"/>
<path d="M341.498 0.0664062V1005.4" stroke="white" stroke-width="0.666667"/>
<path d="M-196.103 143.686L571.897 143.686" stroke="white" stroke-width="0.666667"/>
<path d="M-196.103 0.0664062L571.897 0.0665182" stroke="white" stroke-width="0.666667"/>
<path d="M-196.103 287.305L571.897 287.305" stroke="white" stroke-width="0.666667"/>
<path d="M-196.103 430.924L571.897 430.924" stroke="white" stroke-width="0.666667"/>
<path d="M-196.103 574.542L571.897 574.542" stroke="white" stroke-width="0.666667"/>
<path d="M-196.103 718.162L571.897 718.162" stroke="white" stroke-width="0.666667"/>
<path d="M-196.103 861.78L571.897 861.78" stroke="white" stroke-width="0.666667"/>
</g>
<!-- <rect x="572" y="1007.45" width="768" height="215.594" transform="rotate(180 572 1007.45)" fill="url(#paint0_linear_1927_1929)"/> -->
<!-- <rect opacity="0.1" width="76.8" height="144" transform="matrix(-1 0 0 1 34.4004 143.334)" fill="url(#paint1_linear_1927_1929)"/> -->
<rect opacity="0.05" width="76.8" height="144" transform="matrix(-1 0 0 1 418 0)" fill="url(#paint2_linear_1927_1929)"/>
<!-- <g filter="url(#filter0_d_1927_1929)">
<ellipse cx="34.2" cy="287.667" rx="1.33333" ry="0.8" transform="rotate(90 34.2 287.667)" fill="#EE0000"/>
</g> -->
</g>
<defs>
<filter id="filter0_d_1927_1929" x="29.4004" y="282.334" width="9.59961" height="10.667" filterUnits="userSpaceOnUse" color-interpolation-filters="sRGB">
<feFlood flood-opacity="0" result="BackgroundImageFix"/>
<feColorMatrix in="SourceAlpha" type="matrix" values="0 0 0 0 0 0 0 0 0 0 0 0 0 0 0 0 0 0 127 0" result="hardAlpha"/>
<feOffset/>
<feGaussianBlur stdDeviation="2"/>
<feComposite in2="hardAlpha" operator="out"/>
<feColorMatrix type="matrix" values="0 0 0 0 1 0 0 0 0 0.268571 0 0 0 0 0.268571 0 0 0 1 0"/>
<feBlend mode="normal" in2="BackgroundImageFix" result="effect1_dropShadow_1927_1929"/>
<feBlend mode="normal" in="SourceGraphic" in2="effect1_dropShadow_1927_1929" result="shape"/>
</filter>
<linearGradient id="paint0_linear_1927_1929" x1="956" y1="1007.45" x2="956" y2="1223.04" gradientUnits="userSpaceOnUse">
<stop/>
<stop offset="1" stop-opacity="0"/>
</linearGradient>
<linearGradient id="paint1_linear_1927_1929" x1="38.4" y1="0" x2="38.4" y2="144" gradientUnits="userSpaceOnUse">
<stop stop-color="#EE0000" stop-opacity="0"/>
<stop offset="1" stop-color="#EE0000" stop-opacity="0.5"/>
</linearGradient>
<linearGradient id="paint2_linear_1927_1929" x1="38.4" y1="0" x2="38.4" y2="144" gradientUnits="userSpaceOnUse">
<stop stop-color="#EE0000" stop-opacity="0"/>
<stop offset="1" stop-color="#EE0000" stop-opacity="0.4"/>
</linearGradient>
<clipPath id="clip0_1927_1929">
<rect width="375" height="1003" fill="white"/>
</clipPath>
</defs>
</svg>
