<svg width="1281" height="1001" viewBox="0 0 1281 1001" fill="none" xmlns="http://www.w3.org/2000/svg">
<g opacity="0.05">
<path d="M128.385 0.983887V1006.32" stroke="white" stroke-width="0.666667"/>
<path d="M0.385254 0.983887V1006.32" stroke="white" stroke-width="0.666667"/>
<path d="M256.385 0.983887V1006.32" stroke="white" stroke-width="0.666667"/>
<path d="M384.385 0.983887V1006.32" stroke="white" stroke-width="0.666667"/>
<path d="M512.385 0.983887V1006.32" stroke="white" stroke-width="0.666667"/>
<path d="M640.385 0.983887V1006.32" stroke="white" stroke-width="0.666667"/>
<path d="M768.385 0.983887V1006.32" stroke="white" stroke-width="0.666667"/>
<path d="M896.385 0.983887V1006.32" stroke="white" stroke-width="0.666667"/>
<path d="M1024.39 0.983887V1006.32" stroke="white" stroke-width="0.666667"/>
<path d="M1152.39 0.983887V1006.32" stroke="white" stroke-width="0.666667"/>
<path d="M1280.39 0.983887V1006.32" stroke="white" stroke-width="0.666667"/>
<path d="M0.385254 144.603L1280.39 144.603" stroke="white" stroke-width="0.666667"/>
<path d="M0.385254 0.983887L1280.39 0.983999" stroke="white" stroke-width="0.666667"/>
<path d="M0.385254 288.222L1280.39 288.222" stroke="white" stroke-width="0.666667"/>
<path d="M0.385254 431.841L1280.39 431.841" stroke="white" stroke-width="0.666667"/>
<path d="M0.385254 575.46L1280.39 575.46" stroke="white" stroke-width="0.666667"/>
<path d="M0.385254 719.079L1280.39 719.079" stroke="white" stroke-width="0.666667"/>
<path d="M0.385254 862.698L1280.39 862.698" stroke="white" stroke-width="0.666667"/>
</g>
<rect width="128" height="1001" transform="matrix(-1 0 0 1 1280.56 0.91748)" fill="url(#paint0_linear_1803_2851)"/>
<rect x="0.556152" y="0.91748" width="128" height="1001" fill="url(#paint1_linear_1803_2851)"/>
<rect x="1280.56" y="667.584" width="1280" height="142.667" transform="rotate(180 1280.56 667.584)" fill="url(#paint2_linear_1803_2851)"/>
<!-- <rect opacity="0.1" width="128" height="144" transform="matrix(-1 0 0 1 384.556 144.25)" fill="url(#paint3_linear_1803_2851)"/>
<rect opacity="0.1" width="128" height="144" transform="matrix(-1 0 0 1 256.556 287.584)" fill="url(#paint4_linear_1803_2851)"/>
<rect opacity="0.05" width="128" height="144" transform="matrix(-1 0 0 1 1023.89 0.916992)" fill="url(#paint5_linear_1803_2851)"/>
<g filter="url(#filter0_d_1803_2851)">
<circle cx="384.223" cy="288.583" r="1.33333" transform="rotate(90 384.223 288.583)" fill="#EE0000"/>
</g>
<path d="M255.89 557.584L255.89 432.917" stroke="url(#paint6_linear_1803_2851)" stroke-width="0.666667"/>
<g filter="url(#filter1_d_1803_2851)">
<circle cx="255.889" cy="432.918" r="1.33333" transform="rotate(-90 255.889 432.918)" fill="#8A0000"/>
</g> -->
<defs>
<filter id="filter0_d_1803_2851" x="378.89" y="283.25" width="10.6665" height="10.667" filterUnits="userSpaceOnUse" color-interpolation-filters="sRGB">
<feFlood flood-opacity="0" result="BackgroundImageFix"/>
<feColorMatrix in="SourceAlpha" type="matrix" values="0 0 0 0 0 0 0 0 0 0 0 0 0 0 0 0 0 0 127 0" result="hardAlpha"/>
<feOffset/>
<feGaussianBlur stdDeviation="2"/>
<feComposite in2="hardAlpha" operator="out"/>
<feColorMatrix type="matrix" values="0 0 0 0 1 0 0 0 0 0.268571 0 0 0 0 0.268571 0 0 0 1 0"/>
<feBlend mode="normal" in2="BackgroundImageFix" result="effect1_dropShadow_1803_2851"/>
<feBlend mode="normal" in="SourceGraphic" in2="effect1_dropShadow_1803_2851" result="shape"/>
</filter>
<filter id="filter1_d_1803_2851" x="250.556" y="427.584" width="10.6665" height="10.667" filterUnits="userSpaceOnUse" color-interpolation-filters="sRGB">
<feFlood flood-opacity="0" result="BackgroundImageFix"/>
<feColorMatrix in="SourceAlpha" type="matrix" values="0 0 0 0 0 0 0 0 0 0 0 0 0 0 0 0 0 0 127 0" result="hardAlpha"/>
<feOffset/>
<feGaussianBlur stdDeviation="2"/>
<feComposite in2="hardAlpha" operator="out"/>
<feColorMatrix type="matrix" values="0 0 0 0 1 0 0 0 0 0.268571 0 0 0 0 0.268571 0 0 0 1 0"/>
<feBlend mode="normal" in2="BackgroundImageFix" result="effect1_dropShadow_1803_2851"/>
<feBlend mode="normal" in="SourceGraphic" in2="effect1_dropShadow_1803_2851" result="shape"/>
</filter>
<linearGradient id="paint0_linear_1803_2851" x1="0" y1="333.333" x2="128" y2="333.333" gradientUnits="userSpaceOnUse">
<stop/>
<stop offset="1" stop-opacity="0"/>
</linearGradient>
<linearGradient id="paint1_linear_1803_2851" x1="0.556152" y1="334.251" x2="128.556" y2="334.251" gradientUnits="userSpaceOnUse">
<stop/>
<stop offset="1" stop-opacity="0"/>
</linearGradient>
<!-- <linearGradient id="paint2_linear_1803_2851" x1="1920.56" y1="667.584" x2="1920.56" y2="810.251" gradientUnits="userSpaceOnUse">
<stop/>
<stop offset="1" stop-opacity="0"/>
</linearGradient> -->
<linearGradient id="paint3_linear_1803_2851" x1="64" y1="0" x2="64" y2="144" gradientUnits="userSpaceOnUse">
<stop stop-color="#EE0000" stop-opacity="0"/>
<stop offset="1" stop-color="#EE0000" stop-opacity="0.5"/>
</linearGradient>
<linearGradient id="paint4_linear_1803_2851" x1="64" y1="0" x2="64" y2="144" gradientUnits="userSpaceOnUse">
<stop stop-color="#EE0000" stop-opacity="0"/>
<stop offset="1" stop-color="#EE0000" stop-opacity="0.5"/>
</linearGradient>
<linearGradient id="paint5_linear_1803_2851" x1="64" y1="0" x2="64" y2="144" gradientUnits="userSpaceOnUse">
<stop stop-color="#EE0000" stop-opacity="0"/>
<stop offset="1" stop-color="#EE0000" stop-opacity="0.4"/>
</linearGradient>
<linearGradient id="paint6_linear_1803_2851" x1="255.89" y1="432.917" x2="255.89" y2="561.251" gradientUnits="userSpaceOnUse">
<stop stop-color="#8A0000"/>
<stop offset="1" stop-color="#EE0000" stop-opacity="0"/>
</linearGradient>
</defs>
</svg>
