<svg width="390" height="650" viewBox="0 0 390 650" fill="none" xmlns="http://www.w3.org/2000/svg">
<rect opacity="0.1" x="65" y="390.667" width="64.7695" height="64.7051" fill="url(#paint0_linear_347_1975)"/>
<g opacity="0.3">
<path d="M-1 -263H-1.65333V-263.653H-1V-263ZM-1 651.667L-1 652.32H-1.65333V651.667H-1ZM-0.346667 -263L-0.346667 651.667H-1.65333L-1.65333 -263H-0.346667ZM-1 651.013H64.3333V652.32H-1L-1 651.013ZM64.3333 -262.347H-1V-263.653H64.3333V-262.347Z" fill="white" mask="url(#path-2-inside-1_347_1975)"/>
<path d="M-1 63.3402H64.3333V63.9935H-1V63.3402Z" fill="white"/>
<path d="M-1 128.673H64.3333V129.327H-1V128.673Z" fill="white"/>
<path d="M-1 194.007H64.3333V194.66H-1V194.007Z" fill="white"/>
<path d="M-1 259.34H64.3333V259.993H-1V259.34Z" fill="white"/>
<path d="M-1 324.673H64.3333V325.327H-1V324.673Z" fill="white"/>
<path d="M-1 390.007H64.3333V390.66H-1V390.007Z" fill="white"/>
<path d="M-1 455.34H64.3333V455.993H-1V455.34Z" fill="white"/>
<path d="M-1 520.674H64.3333V521.327H-1V520.674Z" fill="white"/>
<path d="M-1 586.007H64.3333V586.66H-1V586.007Z" fill="white"/>
</g>
<g opacity="0.3">
<path d="M64.3335 -263H63.6802V-263.653H64.3335V-263ZM64.3335 651.667V652.32H63.6802V651.667H64.3335ZM64.9868 -263L64.9868 651.667H63.6802L63.6802 -263H64.9868ZM64.3335 651.013H129.667V652.32H64.3335V651.013ZM129.667 -262.347H64.3335V-263.653H129.667V-262.347Z" fill="white" mask="url(#path-13-inside-2_347_1975)"/>
<path d="M64.3335 63.3402H129.667V63.9935H64.3335V63.3402Z" fill="white"/>
<path d="M64.3335 128.673H129.667V129.327H64.3335V128.673Z" fill="white"/>
<path d="M64.3335 194.007H129.667V194.66H64.3335V194.007Z" fill="white"/>
<path d="M64.3335 259.34H129.667V259.993H64.3335V259.34Z" fill="white"/>
<path d="M64.3335 324.673H129.667V325.327H64.3335V324.673Z" fill="white"/>
<path d="M64.3335 390.007H129.667V390.66H64.3335V390.007Z" fill="white"/>
<path d="M64.3335 455.34H129.667V455.993H64.3335V455.34Z" fill="white"/>
<path d="M64.3335 520.674H129.667V521.327H64.3335V520.674Z" fill="white"/>
<path d="M64.3335 586.007H129.667V586.66H64.3335V586.007Z" fill="white"/>
</g>
<g opacity="0.3">
<path d="M129.667 -263H129.013V-263.653H129.667V-263ZM129.667 651.667V652.32H129.013V651.667H129.667ZM130.32 -263L130.32 651.667H129.013L129.013 -263H130.32ZM129.667 651.013H195V652.32H129.667V651.013ZM195 -262.347H129.667V-263.653H195V-262.347Z" fill="white" mask="url(#path-24-inside-3_347_1975)"/>
<path d="M129.667 63.3402H195V63.9935H129.667V63.3402Z" fill="white"/>
<path d="M129.667 128.673H195V129.327H129.667V128.673Z" fill="white"/>
<path d="M129.667 194.007H195V194.66H129.667V194.007Z" fill="white"/>
<path d="M129.667 259.34H195V259.993H129.667V259.34Z" fill="white"/>
<path d="M129.667 324.673H195V325.327H129.667V324.673Z" fill="white"/>
<path d="M129.667 390.007H195V390.66H129.667V390.007Z" fill="white"/>
<path d="M129.667 455.34H195V455.993H129.667V455.34Z" fill="white"/>
<path d="M129.667 520.674H195V521.327H129.667V520.674Z" fill="white"/>
<path d="M129.667 586.007H195V586.66H129.667V586.007Z" fill="white"/>
</g>
<g opacity="0.3">
<path d="M195 -263H194.347V-263.653H195V-263ZM195 651.667V652.32H194.347V651.667H195ZM195.653 -263L195.653 651.667H194.347L194.347 -263H195.653ZM195 651.013H260.333V652.32H195V651.013ZM260.333 -262.347H195V-263.653H260.333V-262.347Z" fill="white" mask="url(#path-35-inside-4_347_1975)"/>
<path d="M195 63.3402H260.333V63.9935H195V63.3402Z" fill="white"/>
<path d="M195 128.673H260.333V129.327H195V128.673Z" fill="white"/>
<path d="M195 194.007H260.333V194.66H195V194.007Z" fill="white"/>
<path d="M195 259.34H260.333V259.993H195V259.34Z" fill="white"/>
<path d="M195 324.673H260.333V325.327H195V324.673Z" fill="white"/>
<path d="M195 390.007H260.333V390.66H195V390.007Z" fill="white"/>
<path d="M195 455.34H260.333V455.993H195V455.34Z" fill="white"/>
<path d="M195 520.674H260.333V521.327H195V520.674Z" fill="white"/>
<path d="M195 586.007H260.333V586.66H195V586.007Z" fill="white"/>
</g>
<g opacity="0.3">
<path d="M260.333 -263H259.68V-263.653H260.333V-263ZM260.333 651.667V652.32H259.68V651.667H260.333ZM260.987 -263L260.987 651.667H259.68L259.68 -263H260.987ZM260.333 651.013H325.667V652.32H260.333V651.013ZM325.667 -262.347H260.333V-263.653H325.667V-262.347Z" fill="white" mask="url(#path-46-inside-5_347_1975)"/>
<path d="M260.333 63.3402H325.667V63.9935H260.333V63.3402Z" fill="white"/>
<path d="M260.333 128.673H325.667V129.327H260.333V128.673Z" fill="white"/>
<path d="M260.333 194.007H325.667V194.66H260.333V194.007Z" fill="white"/>
<path d="M260.333 259.34H325.667V259.993H260.333V259.34Z" fill="white"/>
<path d="M260.333 324.673H325.667V325.327H260.333V324.673Z" fill="white"/>
<path d="M260.333 390.007H325.667V390.66H260.333V390.007Z" fill="white"/>
<path d="M260.333 455.34H325.667V455.993H260.333V455.34Z" fill="white"/>
<path d="M260.333 520.674H325.667V521.327H260.333V520.674Z" fill="white"/>
<path d="M260.333 586.007H325.667V586.66H260.333V586.007Z" fill="white"/>
</g>
<g opacity="0.3">
<path d="M325.667 -263H325.013V-263.653H325.667V-263ZM325.667 651.667V652.32H325.013V651.667H325.667ZM391 651.667H391.653V652.32H391V651.667ZM391 -263V-263.653H391.653V-263H391ZM326.32 -263L326.32 651.667H325.013L325.013 -263H326.32ZM325.667 651.013H391V652.32H325.667V651.013ZM390.346 651.667L390.346 -263H391.653L391.653 651.667H390.346ZM391 -262.347H325.667V-263.653H391V-262.347Z" fill="white" mask="url(#path-57-inside-6_347_1975)"/>
<path d="M325.667 63.3402H391V63.9935H325.667V63.3402Z" fill="white"/>
<path d="M325.667 128.673H391V129.327H325.667V128.673Z" fill="white"/>
<path d="M325.667 194.007H391V194.66H325.667V194.007Z" fill="white"/>
<path d="M325.667 259.34H391V259.993H325.667V259.34Z" fill="white"/>
<path d="M325.667 324.673H391V325.327H325.667V324.673Z" fill="white"/>
<path d="M325.667 390.007H391V390.66H325.667V390.007Z" fill="white"/>
<path d="M325.667 455.34H391V455.993H325.667V455.34Z" fill="white"/>
<path d="M325.667 520.674H391V521.327H325.667V520.674Z" fill="white"/>
<path d="M325.667 586.007H391V586.66H325.667V586.007Z" fill="white"/>
</g>
<rect opacity="0.1" x="195.679" y="456.025" width="64.6899" height="64.6416" fill="url(#paint1_linear_347_1975)"/>
<rect opacity="0.1" x="260.957" y="325.315" width="64.6938" height="64.6953" fill="url(#paint2_linear_347_1975)"/>
<defs>
<linearGradient id="paint0_linear_347_1975" x1="97.3848" y1="390.667" x2="97.3848" y2="455.372" gradientUnits="userSpaceOnUse">
<stop stop-opacity="0"/>
<stop offset="1" stop-opacity="0.62"/>
</linearGradient>
<linearGradient id="paint1_linear_347_1975" x1="228.024" y1="456.025" x2="228.024" y2="520.667" gradientUnits="userSpaceOnUse">
<stop stop-opacity="0"/>
<stop offset="1" stop-opacity="0.62"/>
</linearGradient>
<linearGradient id="paint2_linear_347_1975" x1="293.303" y1="325.315" x2="293.303" y2="390.011" gradientUnits="userSpaceOnUse">
<stop stop-opacity="0"/>
<stop offset="1" stop-opacity="0.62"/>
</linearGradient>
</defs>
</svg>
