<svg width="377" height="50" viewBox="0 0 377 50" fill="none" xmlns="http://www.w3.org/2000/svg">
<g clip-path="url(#clip0_178_3817)">
<path d="M50.3871 38.4878V37.9713C52.0794 37.879 53.2088 37.3121 53.2088 36.3253V25.2234C53.2088 22.1666 52.222 19.5297 49.4004 19.5297C47.9433 19.5297 46.6711 20.0924 45.6844 21.1756V36.4177C45.9195 37.6396 47.0027 37.8286 48.2708 38.0175V38.4878H37.2151V38.0175C38.6721 37.8747 39.8982 37.1231 39.8982 36.1363V21.0833C39.8982 20.613 39.852 20.3778 39.4279 20.0965C38.8652 19.769 37.971 19.3449 37.2151 19.0133V18.7319L45.3526 15.5322H45.6339V20.6591L45.7263 20.7515C47.2295 18.5387 49.8202 15.5785 53.3936 15.5785C56.9669 15.5785 59.0369 18.5891 59.0369 22.8216V36.4638C59.0369 37.4044 60.8718 37.9209 61.9551 38.0637V38.4878H50.3829H50.3871Z" fill="#FDFDFD"/>
<path d="M79.0154 18.9157H72.2425V30.6769C72.2425 33.8766 73.4182 35.2411 75.631 35.2411C77.466 35.2411 78.9692 34.3005 79.6285 33.3601L79.9098 33.5027C79.2044 35.4301 76.8529 38.8186 72.4314 38.8186C69.4208 38.8186 66.4103 36.7486 66.4103 34.7247C66.4103 28.8461 66.5992 23.0097 66.5992 18.9199H63.072V18.4035L71.7764 11.0176H72.1544V16.0522H80.4808L79.0238 18.9199L79.0154 18.9157Z" fill="#FDFDFD"/>
<path d="M97.944 21.8349C95.1685 21.8349 95.3112 19.9999 94.4631 19.9999C93.0984 19.9999 91.6413 21.268 90.9822 23.0568V36.4177C91.4062 37.5934 93.7115 37.8286 94.9796 38.0175V38.4878H82.5129V38.0175C83.97 37.8747 85.196 37.1231 85.196 36.1363V21.3646C85.196 20.8943 85.1499 20.6591 84.7257 20.3778C84.1631 20.0503 83.2687 19.5297 82.5129 19.2021V18.9208L90.6504 15.5322H90.9318L90.8394 22.1162H90.9318C91.591 20.613 93.3797 15.5785 97.4232 15.5785C99.0693 15.5785 100.342 16.9431 100.342 18.7781C100.342 20.613 99.0231 21.8349 97.944 21.8349Z" fill="#FDFDFD"/>
<path d="M113.505 38.7225C106.451 38.7225 102.26 33.264 102.26 26.6339C102.26 21.318 106.212 15.5781 112.846 15.5781C118.019 15.5781 122.067 18.0261 122.394 23.4343H108.093C108.047 23.9508 108.047 24.4211 108.047 24.8452C108.047 30.3037 111.011 34.4396 115.857 34.4396C118.678 34.4396 121.689 32.9365 122.44 30.5809L122.911 30.6733C122.298 33.5915 119.619 38.7184 113.501 38.7184L113.505 38.7225ZM112.472 16.3802C109.743 16.3802 108.24 21.0367 108.143 22.7793C110.356 22.7793 111.297 22.6869 113.648 22.5903C114.026 22.5903 114.731 22.498 115.202 22.2628C115.626 21.8387 115.815 21.3684 115.815 20.5706C115.815 18.5468 114.639 16.3843 112.477 16.3843L112.472 16.3802Z" fill="#FDFDFD"/>
<path d="M137.384 38.4366C136.301 38.4366 135.314 38.294 134.139 38.0588C134.185 40.0365 134.231 44.9744 134.231 47.2795C134.466 48.4091 136.818 48.6904 138.09 48.8794V49.3959H124.544V48.8794C126.001 48.7366 128.403 47.9388 128.403 46.9018V21.8762C128.403 21.4059 128.357 21.1707 127.933 20.8894C127.37 20.5619 125.72 19.8565 124.968 19.5247V19.2434L133.857 15.5273H134.139V20.8432L134.185 20.9356C135.877 18.5841 138.279 15.5735 141.709 15.5735C147.449 15.5735 150.178 20.9818 150.178 25.7812C150.178 33.167 145.43 38.4366 137.384 38.4366ZM138.371 19.6213C135.923 19.6213 134.185 21.41 134.185 21.9726C134.185 22.7243 134.093 25.1262 134.093 26.159C134.093 27.7126 134.139 29.5938 134.235 31.0507C134.471 33.969 135.978 37.5423 138.564 37.5423C141.529 37.5423 144.023 33.2132 144.023 27.616C144.023 23.2407 142.234 19.6213 138.38 19.6213H138.371Z" fill="#FDFDFD"/>
<path d="M168.557 21.8349C165.782 21.8349 165.925 19.9999 165.076 19.9999C163.712 19.9999 162.254 21.268 161.596 23.0568V36.4177C162.019 37.5934 164.325 37.8286 165.593 38.0175V38.4878H153.126V38.0175C154.584 37.8747 155.809 37.1231 155.809 36.1363V21.3646C155.809 20.8943 155.763 20.6591 155.34 20.3778C154.776 20.0503 153.882 19.5297 153.126 19.2021V18.9208L161.263 15.5322H161.546L161.453 22.1162H161.546C162.204 20.613 163.993 15.5785 168.037 15.5785C169.682 15.5785 170.954 16.9431 170.954 18.7781C170.954 20.613 169.637 21.8349 168.557 21.8349Z" fill="#FDFDFD"/>
<path d="M184.118 38.7225C177.065 38.7225 172.874 33.264 172.874 26.6339C172.874 21.318 176.825 15.5781 183.459 15.5781C188.632 15.5781 192.679 18.0261 193.007 23.4343H178.706C178.66 23.9508 178.66 24.4211 178.66 24.8452C178.66 30.3037 181.624 34.4396 186.469 34.4396C189.291 34.4396 192.301 32.9365 193.053 30.5809L193.524 30.6733C192.91 33.5915 190.232 38.7184 184.115 38.7184L184.118 38.7225ZM183.085 16.3802C180.356 16.3802 178.853 21.0367 178.756 22.7793C180.969 22.7793 181.91 22.6869 184.262 22.5903C184.64 22.5903 185.344 22.498 185.815 22.2628C186.238 21.8387 186.428 21.3684 186.428 20.5706C186.428 18.5468 185.251 16.3843 183.09 16.3843L183.085 16.3802Z" fill="#FDFDFD"/>
<path d="M209.035 38.4878V37.9713C210.727 37.879 211.856 37.3121 211.856 36.3253V25.2234C211.856 22.1666 210.869 19.5297 208.049 19.5297C206.591 19.5297 205.319 20.0924 204.332 21.1756V36.4177C204.568 37.6396 205.65 37.8286 206.919 38.0175V38.4878H195.863V38.0175C197.319 37.8747 198.546 37.1231 198.546 36.1363V21.0833C198.546 20.613 198.5 20.3778 198.075 20.0965C197.513 19.769 196.619 19.3449 195.863 19.0133V18.7319L204 15.5322H204.282V20.6591L204.374 20.7515C205.878 18.5387 208.468 15.5785 212.041 15.5785C215.615 15.5785 217.685 18.5891 217.685 22.8216V36.4638C217.685 37.4044 219.519 37.9209 220.603 38.0637V38.4878H209.031H209.035Z" fill="#FDFDFD"/>
<path d="M233.918 38.7225C226.863 38.7225 222.674 33.264 222.674 26.6339C222.674 21.318 226.624 15.5781 233.259 15.5781C238.431 15.5781 242.479 18.0261 242.807 23.4343H228.506C228.459 23.9508 228.459 24.4211 228.459 24.8452C228.459 30.3037 231.424 34.4396 236.269 34.4396C239.091 34.4396 242.102 32.9365 242.853 30.5809L243.324 30.6733C242.71 33.5915 240.031 38.7184 233.913 38.7184L233.918 38.7225ZM232.885 16.3802C230.156 16.3802 228.652 21.0367 228.556 22.7793C230.769 22.7793 231.709 22.6869 234.06 22.5903C234.438 22.5903 235.144 22.498 235.615 22.2628C236.038 21.8387 236.227 21.3684 236.227 20.5706C236.227 18.5468 235.052 16.3843 232.888 16.3843L232.885 16.3802Z" fill="#FDFDFD"/>
<path d="M261.597 38.7221H261.269V33.8765L261.224 33.7842C259.859 35.9465 257.179 38.8186 253.699 38.8186C249.702 38.8186 247.821 36.2783 247.821 31.714V20.3308C247.821 19.8143 247.774 18.4034 247.585 18.0256C247.115 16.9423 245.607 16.6609 244.482 16.5686V16.0521H253.657V29.0814C253.657 33.1754 254.362 35.1487 257.184 35.1487C259.49 35.1487 260.477 34.2083 261.278 33.1711V19.8564C261.278 19.3399 261.185 18.0676 260.807 17.5511C260.056 17.1733 258.646 16.703 257.281 16.5643V16.0479H267.063V34.1579C267.063 34.6281 267.11 34.8633 267.534 35.1446C268.097 35.4721 269.415 36.1314 270.168 36.463V36.7443L261.606 38.7221H261.597Z" fill="#FDFDFD"/>
<path d="M288.801 21.8349C286.026 21.8349 286.169 19.9999 285.321 19.9999C283.956 19.9999 282.499 21.268 281.84 23.0568V36.4177C282.265 37.5934 284.569 37.8286 285.837 38.0175V38.4878H273.371V38.0175C274.828 37.8747 276.054 37.1231 276.054 36.1363V21.3646C276.054 20.8943 276.007 20.6591 275.584 20.3778C275.021 20.0503 274.126 19.5297 273.371 19.2021V18.9208L281.509 15.5322H281.79L281.697 22.1162H281.79C282.449 20.613 284.238 15.5785 288.281 15.5785C289.926 15.5785 291.2 16.9431 291.2 18.7781C291.2 20.613 289.881 21.8349 288.801 21.8349Z" fill="#FDFDFD"/>
<path d="M301.962 38.7687C298.669 38.7687 295.797 38.0171 293.731 37.0767V29.9258H294.109C295.285 32.7937 298.25 38.1096 301.496 38.1096C303.8 38.1096 306.059 36.7449 306.059 33.4068C306.059 31.4794 304.649 30.6312 302.625 30.0686C301.306 29.6906 299.237 29.128 298.015 28.704C295.616 27.8096 293.971 25.4581 293.971 22.4475C293.971 18.215 298.3 15.5781 302.487 15.5781C305.45 15.5781 307.991 16.2374 309.779 16.9428L310.343 23.7156L309.965 23.808C308.365 20.4194 305.4 16.2331 302.578 16.2331C300.462 16.2331 298.766 17.7868 298.766 19.9953C298.766 22.204 300.177 23.0522 302.154 23.619C303.472 23.9969 305.59 24.5134 306.484 24.7947C309.54 25.7353 311.61 28.0867 311.61 31.3787C311.61 36.5055 306.81 38.7646 301.965 38.7646L301.962 38.7687Z" fill="#FDFDFD"/>
<path d="M31.7103 38.5628H22.6531L35.4388 28.1494L31.7103 38.5628Z" fill="#EE0000"/>
<path d="M31.7103 0H22.6531L35.4388 10.4133L31.7103 0Z" fill="#EE0000"/>
<path d="M0 38.4582V37.925C1.75935 37.6604 3.57328 37.0726 4.6356 35.8465C5.32843 35.0487 5.32843 32.4369 5.38302 30.1444C5.4376 28.1709 5.48799 23.0566 5.48799 19.1095V8.71726C5.48799 6.26508 5.48799 3.43922 4.69019 2.48186C3.67825 1.30616 2.02388 0.827486 0.159559 0.613341V0.0800781H18.6557V0.613341C17.1651 0.827486 14.9775 1.20119 14.0706 2.90595C13.4323 4.13204 13.5373 6.2105 13.4827 7.81029C13.4281 11.434 13.4281 14.579 13.4281 18.8954V30.9422C13.4281 32.9156 13.4281 35.2082 13.9614 35.9515C14.8138 37.1229 17.2113 37.8157 18.7062 37.925V38.4582H0Z" fill="#FDFDFD"/>
<path d="M17.3708 19.3741C19.4493 19.5336 20.8895 20.1214 22.2206 21.2929C23.7112 22.6239 25.3109 26.3023 25.8989 28.5403H26.5371V9.88867H25.8989C25.3656 13.4074 24.299 16.926 19.1847 17.9883C17.1945 18.4083 13.9739 18.4167 13.407 18.4167L12.8738 18.7904L13.3735 19.2901V19.2691C15.6115 19.2691 15.2378 19.2145 17.3708 19.3741Z" fill="#FDFDFD"/>
<path d="M313.356 38.0546C313.356 37.1982 314.037 36.5557 314.856 36.5557C315.675 36.5557 316.354 37.1982 316.354 38.0546C316.354 38.9113 315.675 39.5915 314.856 39.5915C314.037 39.5915 313.356 38.9113 313.356 38.0546Z" fill="#FDFDFD"/>
<path d="M320.507 32.6298C320.507 28.5569 323.404 25.71 327.401 25.71C329.569 25.71 331.45 26.5456 332.571 28.2167L331.604 28.9222C330.615 27.5364 329.098 26.8857 327.401 26.8857C324.19 26.8857 321.838 29.1825 321.838 32.6298C321.838 36.077 324.19 38.3739 327.401 38.3739C329.098 38.3739 330.615 37.723 331.604 36.3375L332.571 37.0428C331.45 38.6888 329.569 39.5495 327.401 39.5495C323.404 39.5495 320.507 36.6775 320.507 32.6298Z" fill="#FDFDFD"/>
<path d="M335.628 32.6298C335.628 28.582 338.525 25.71 342.443 25.71C346.36 25.71 349.257 28.582 349.257 32.6298C349.257 36.6775 346.36 39.5495 342.443 39.5495C338.525 39.5495 335.628 36.6775 335.628 32.6298ZM347.926 32.6298C347.926 29.2076 345.575 26.8857 342.443 26.8857C339.31 26.8857 336.959 29.2119 336.959 32.6298C336.959 36.0478 339.31 38.3739 342.443 38.3739C345.575 38.3739 347.926 36.0478 347.926 32.6298Z" fill="#FDFDFD"/>
<path d="M376.471 31.4792V39.4447H375.165V31.5842C375.165 28.5022 373.574 26.8814 370.907 26.8814C367.825 26.8814 365.919 28.943 365.919 32.1847V39.4447H364.613V31.5842C364.613 28.5022 363.022 26.8814 360.354 26.8814C357.274 26.8814 355.366 28.943 355.366 32.1847V39.4447H354.06V25.8107H355.316V28.7373C356.203 26.831 358.059 25.71 360.54 25.71C363.022 25.71 364.797 26.831 365.528 29.0019C366.415 27.0158 368.4 25.71 371.037 25.71C374.329 25.71 376.471 27.6708 376.471 31.4835V31.4792Z" fill="#FDFDFD"/>
</g>
<defs>
<clipPath id="clip0_178_3817">
<rect width="376.471" height="50" fill="white"/>
</clipPath>
</defs>
</svg>
