<svg width="34" height="34" viewBox="0 0 34 34" fill="none" xmlns="http://www.w3.org/2000/svg">
<g id="Frame" clip-path="url(#clip0_177_2517)">
<path id="Vector" d="M27.8875 33.9141H19.9223L31.1667 24.7561L27.8875 33.9141Z" fill="#EE0000"/>
<path id="Vector_2" d="M27.8875 0H19.9223L31.1667 9.15797L27.8875 0Z" fill="#EE0000"/>
<path id="Union" d="M0 33.3534V33.8224H16.4511V33.3534C15.1365 33.2574 13.028 32.6481 12.2783 31.6178C11.8093 30.9642 11.8093 28.948 11.8093 27.2124V16.9459C12.2675 16.9457 12.5984 16.943 12.8622 16.9407C13.7011 16.9337 13.8615 16.9324 15.2768 17.0382C17.1048 17.1786 18.3713 17.6956 19.5419 18.7258C20.8528 19.8964 22.2598 23.1313 22.7768 25.0995H23.3381V8.69641H22.7768C22.3078 11.7909 21.3698 14.8854 16.8721 15.8197C15.1422 16.1846 12.3555 16.1961 11.8093 16.1963C11.8094 12.6143 11.8111 9.93675 11.8574 6.8691C11.866 6.61476 11.8701 6.34666 11.8743 6.07172C11.8934 4.82578 11.9146 3.43933 12.3744 2.55598C13.172 1.05674 15.0959 0.728078 16.4068 0.539743V0.0707703H0.140324V0.539743C1.7799 0.728078 3.23484 1.14905 4.12478 2.18302C4.82641 3.02495 4.82641 5.51016 4.82641 7.66671V16.8063C4.82641 20.2774 4.78209 24.7752 4.73408 26.5107C4.73036 26.667 4.72693 26.8249 4.72348 26.9837C4.68242 28.8734 4.63886 30.8782 4.07678 31.5255C3.14251 32.6037 1.54726 33.1207 0 33.3534Z" fill="white"/>
</g>
<defs>
<clipPath id="clip0_177_2517">
<rect width="162" height="34" fill="white"/>
</clipPath>
</defs>
</svg>
