<svg width="1921" height="1510" viewBox="0 0 1921 1510" fill="none" xmlns="http://www.w3.org/2000/svg">
<g opacity="0.05">
<path d="M192.301 1.01685V1509.02" stroke="white"/>
<path d="M0.300781 1.01685V1509.02" stroke="white"/>
<path d="M384.301 1.01685V1509.02" stroke="white"/>
<path d="M576.301 1.01685V1509.02" stroke="white"/>
<path d="M768.301 1.01685V1509.02" stroke="white"/>
<path d="M960.301 1.01685V1509.02" stroke="white"/>
<path d="M1152.3 1.01685V1509.02" stroke="white"/>
<path d="M1344.3 1.01685V1509.02" stroke="white"/>
<path d="M1536.3 1.01685V1509.02" stroke="white"/>
<path d="M1728.3 1.01685V1509.02" stroke="white"/>
<path d="M1920.3 1.01685V1509.02" stroke="white"/>
<path d="M0.300781 216.445L1920.3 216.445" stroke="white"/>
<path d="M0.300781 1.01685L1920.3 1.01701" stroke="white"/>
<path d="M0.300781 431.874L1920.3 431.874" stroke="white"/>
<path d="M0.300781 647.302L1920.3 647.303" stroke="white"/>
<path d="M0.300781 862.731L1920.3 862.731" stroke="white"/>
<path d="M0.300781 1078.16L1920.3 1078.16" stroke="white"/>
<path d="M0.300781 1293.59L1920.3 1293.59" stroke="white"/>
<path d="M0.300781 1509.02L1920.3 1509.02" stroke="white"/>
</g>
</svg>
