<svg width="18" height="21" viewBox="0 0 18 21" fill="none" xmlns="http://www.w3.org/2000/svg">
<path fill-rule="evenodd" clip-rule="evenodd" d="M4.76946 1.67157C4.78159 1.67954 4.79376 1.68753 4.80597 1.69556L15.5091 8.72804C15.8188 8.93149 16.1059 9.12012 16.3264 9.29541C16.5566 9.47834 16.8279 9.73202 16.9841 10.1031C17.1904 10.5936 17.1904 11.1449 16.9841 11.6354C16.8279 12.0065 16.5566 12.2602 16.3264 12.4431C16.1059 12.6184 15.8188 12.807 15.5091 13.0104L4.7695 20.0669C4.39095 20.3157 4.05056 20.5394 3.76173 20.6936C3.4727 20.848 3.07597 21.0244 2.61291 20.9972C2.02062 20.9623 1.47347 20.6737 1.1155 20.2074C0.83564 19.8427 0.764504 19.4195 0.734508 19.0969C0.704534 18.7745 0.704561 18.3713 0.704592 17.9229L0.704594 3.85889C0.704594 3.84443 0.704593 3.83001 0.704592 3.81564C0.704561 3.36725 0.704534 2.96405 0.734508 2.64163C0.764504 2.31897 0.83564 1.89578 1.1155 1.53116C1.47347 1.06479 2.02062 0.776186 2.61291 0.741331C3.07597 0.714082 3.4727 0.890493 3.76173 1.04487C4.05056 1.19914 4.39093 1.42282 4.76946 1.67157Z" fill="url(#paint0_linear_59_204)"/>
<defs>
<linearGradient id="paint0_linear_59_204" x1="8.92172" y1="0.738525" x2="8.92172" y2="21" gradientUnits="userSpaceOnUse">
<stop stop-color="white"/>
<stop offset="1" stop-color="white" stop-opacity="0.4"/>
</linearGradient>
</defs>
</svg>
