<svg width="1921" height="1509" viewBox="0 0 1921 1509" fill="none" xmlns="http://www.w3.org/2000/svg">
<mask id="path-1-inside-1_72_1438" fill="white">
<path d="M1920.56 0.916992H0.556641V216.346H1920.56V0.916992Z"/>
</mask>
<path d="M1920.56 1.91699H0.556641V-0.0830078H1920.56V1.91699Z" fill="white" fill-opacity="0.05" mask="url(#path-1-inside-1_72_1438)"/>
<mask id="path-3-inside-2_72_1438" fill="white">
<path d="M1920.56 216.345H0.556641V431.774H1920.56V216.345Z"/>
</mask>
<path d="M1920.56 217.345H0.556641V215.345H1920.56V217.345Z" fill="white" fill-opacity="0.05" mask="url(#path-3-inside-2_72_1438)"/>
<mask id="path-5-inside-3_72_1438" fill="white">
<path d="M1920.56 431.774H0.556641V647.203H1920.56V431.774Z"/>
</mask>
<path d="M1920.56 432.774H0.556641V430.774H1920.56V432.774Z" fill="white" fill-opacity="0.05" mask="url(#path-5-inside-3_72_1438)"/>
<mask id="path-7-inside-4_72_1438" fill="white">
<path d="M1920.56 647.203H0.556641V862.631H1920.56V647.203Z"/>
</mask>
<path d="M1920.56 648.203H0.556641V646.203H1920.56V648.203Z" fill="white" fill-opacity="0.05" mask="url(#path-7-inside-4_72_1438)"/>
<mask id="path-9-inside-5_72_1438" fill="white">
<path d="M1920.56 862.631H0.556641V1078.06H1920.56V862.631Z"/>
</mask>
<path d="M1920.56 863.631H0.556641V861.631H1920.56V863.631Z" fill="white" fill-opacity="0.05" mask="url(#path-9-inside-5_72_1438)"/>
<mask id="path-11-inside-6_72_1438" fill="white">
<path d="M1920.56 1078.06H0.556641V1293.49H1920.56V1078.06Z"/>
</mask>
<path d="M1920.56 1079.06H0.556641V1077.06H1920.56V1079.06Z" fill="white" fill-opacity="0.05" mask="url(#path-11-inside-6_72_1438)"/>
<mask id="path-13-inside-7_72_1438" fill="white">
<path d="M1920.56 1293.49H0.556641V1508.92H1920.56V1293.49Z"/>
</mask>
<path d="M1920.56 1294.49H0.556641V1292.49H1920.56V1294.49ZM0.556641 1507.92H1920.56V1509.92H0.556641V1507.92Z" fill="white" fill-opacity="0.05" mask="url(#path-13-inside-7_72_1438)"/>
<mask id="path-15-inside-8_72_1438" fill="white">
<path d="M1920.56 0.916992H1728.56V1508.92H1920.56V0.916992Z"/>
</mask>
<path d="M1919.56 1508.92V0.916992H1921.56V1508.92H1919.56Z" fill="white" fill-opacity="0.05" mask="url(#path-15-inside-8_72_1438)"/>
<mask id="path-17-inside-9_72_1438" fill="white">
<path d="M1728.56 0.916992H1536.56V1508.92H1728.56V0.916992Z"/>
</mask>
<path d="M1727.56 1508.92V0.916992H1729.56V1508.92H1727.56Z" fill="white" fill-opacity="0.05" mask="url(#path-17-inside-9_72_1438)"/>
<mask id="path-19-inside-10_72_1438" fill="white">
<path d="M1536.56 0.916992H1344.56V1508.92H1536.56V0.916992Z"/>
</mask>
<path d="M1535.56 1508.92V0.916992H1537.56V1508.92H1535.56Z" fill="white" fill-opacity="0.05" mask="url(#path-19-inside-10_72_1438)"/>
<mask id="path-21-inside-11_72_1438" fill="white">
<path d="M1344.56 0.916992H1152.56V1508.92H1344.56V0.916992Z"/>
</mask>
<path d="M1343.56 1508.92V0.916992H1345.56V1508.92H1343.56Z" fill="white" fill-opacity="0.05" mask="url(#path-21-inside-11_72_1438)"/>
<mask id="path-23-inside-12_72_1438" fill="white">
<path d="M1152.56 0.916992H960.557V1508.92H1152.56V0.916992Z"/>
</mask>
<path d="M1151.56 1508.92V0.916992H1153.56V1508.92H1151.56Z" fill="white" fill-opacity="0.05" mask="url(#path-23-inside-12_72_1438)"/>
<mask id="path-25-inside-13_72_1438" fill="white">
<path d="M960.557 0.916992H768.557V1508.92H960.557V0.916992Z"/>
</mask>
<path d="M959.557 1508.92V0.916992H961.557V1508.92H959.557Z" fill="white" fill-opacity="0.05" mask="url(#path-25-inside-13_72_1438)"/>
<mask id="path-27-inside-14_72_1438" fill="white">
<path d="M768.557 0.916992H576.557V1508.92H768.557V0.916992Z"/>
</mask>
<path d="M767.557 1508.92V0.916992H769.557V1508.92H767.557Z" fill="white" fill-opacity="0.05" mask="url(#path-27-inside-14_72_1438)"/>
<mask id="path-29-inside-15_72_1438" fill="white">
<path d="M576.557 0.916992H384.557V1508.92H576.557V0.916992Z"/>
</mask>
<path d="M575.557 1508.92V0.916992H577.557V1508.92H575.557Z" fill="white" fill-opacity="0.05" mask="url(#path-29-inside-15_72_1438)"/>
<mask id="path-31-inside-16_72_1438" fill="white">
<path d="M384.557 0.916992H192.557V1508.92H384.557V0.916992Z"/>
</mask>
<path d="M383.557 1508.92V0.916992H385.557V1508.92H383.557Z" fill="white" fill-opacity="0.05" mask="url(#path-31-inside-16_72_1438)"/>
<mask id="path-33-inside-17_72_1438" fill="white">
<path d="M192.557 0.916992H0.556641V1508.92H192.557V0.916992Z"/>
</mask>
<path d="M1.55664 0.916992V1508.92H-0.443359V0.916992H1.55664ZM191.557 1508.92V0.916992H193.557V1508.92H191.557Z" fill="white" fill-opacity="0.05" mask="url(#path-33-inside-17_72_1438)"/>
</svg>
